<?xml version="1.0" standalone="no"?>
<!DOCTYPE svg PUBLIC "-//W3C//DTD SVG 1.1//EN" "http://www.w3.org/Graphics/SVG/1.1/DTD/svg11.dtd" >
<svg xmlns="http://www.w3.org/2000/svg">
<metadata></metadata>
<defs>
<font id="standard_07_55regular" horiz-adv-x="1536" >
<font-face units-per-em="2048" ascent="1638" descent="-410" />
<missing-glyph horiz-adv-x="768" />
<glyph horiz-adv-x="2048" />
<glyph horiz-adv-x="2048" />
<glyph unicode="&#xd;" horiz-adv-x="768" />
<glyph unicode=" "  horiz-adv-x="768" />
<glyph unicode="&#x09;" horiz-adv-x="768" />
<glyph unicode="&#xa0;" horiz-adv-x="768" />
<glyph unicode="!" horiz-adv-x="768" d="M256 0v256h256v-256h-256zM256 512v1280h256v-1280h-256z" />
<glyph unicode="&#x22;" horiz-adv-x="1280" d="M0 1280v512h256v-512h-256zM512 1280v512h256v-512h-256z" />
<glyph unicode="#" d="M0 512v256h256v256h-256v256h256v512h256v-512h256v512h256v-512h256v-256h-256v-256h256v-256h-256v-512h-256v512h-256v-512h-256v512h-256zM512 768h256v256h-256v-256z" />
<glyph unicode="$" d="M0 256v256h1024v256h-768v256h-256v256h256v256h256v256h256v-256h512v-256h-1024v-256h768v-256h256v-256h-256v-256h-256v-256h-256v256h-512z" />
<glyph unicode="%" horiz-adv-x="2048" d="M0 0v256h256v256h256v256h256v256h256v256h256v256h256v256h256v-256h-256v-256h-256v-256h-256v-256h-256v-256h-256v-256h-256v-256h-256zM0 1280v256h256v256h256v-256h256v-256h-256v-256h-256v256h-256zM266 1280h236v256h-236v-256zM1024 256v256h256v256h256v-256 h256v-256h-256v-256h-256v256h-256zM1290 256h236v256h-236v-256z" />
<glyph unicode="&#x26;" horiz-adv-x="1792" d="M0 256v512h256v512h-256v256h256v256h768v-256h256v-256h-256v-256h-256v-256h256v-256h256v512h256v-512h-256v-256h256v-256h-256v256h-256v-256h-768v256h-256zM266 256h748v256h-256v256h-492v-512zM266 1280h246v-256h246v256h256v256h-748v-256z" />
<glyph unicode="'" horiz-adv-x="512" d="M0 1280v512h256v-512h-256z" />
<glyph unicode="(" horiz-adv-x="1024" d="M0 256v1280h256v256h256v256h256v-256h-256v-256h-256v-1280h256v-256h256v-256h-256v256h-256v256h-256z" />
<glyph unicode=")" horiz-adv-x="1024" d="M0 0h256v256h256v1280h-256v256h-256v256h256v-256h256v-256h256v-1280h-256v-256h-256v-256h-256v256z" />
<glyph unicode="*" horiz-adv-x="1024" d="M0 256v256h256v256h-256v256h256v256h-256v256h256v-256h256v256h256v-256h-256v-256h256v-256h-256v-256h256v-256h-256v256h-256v-256h-256z" />
<glyph unicode="+" d="M0 768v256h512v512h256v-512h512v-256h-512v-512h-256v512h-512z" />
<glyph unicode="," horiz-adv-x="768" d="M0 -256h256v512h256v-512h-256v-256h-256v256z" />
<glyph unicode="-" horiz-adv-x="1280" d="M0 768v256h1024v-256h-1024z" />
<glyph unicode="." horiz-adv-x="512" d="M0 0v256h256v-256h-256z" />
<glyph unicode="/" horiz-adv-x="1280" d="M0 0v512h256v512h256v512h256v512h256v-512h-256v-512h-256v-512h-256v-512h-256z" />
<glyph unicode="0" d="M0 256v1280h256v256h768v-256h256v-1280h-256v-256h-768v256h-256zM256 266h768v1260h-768v-1260z" />
<glyph unicode="1" horiz-adv-x="768" d="M0 1280v256h256v256h256v-1792h-256v1280h-256z" />
<glyph unicode="2" d="M0 0v256h256v256h256v256h256v256h256v512h-768v-256h-256v256h256v256h768v-256h256v-512h-256v-256h-256v-256h-256v-256h768v-256h-1280z" />
<glyph unicode="3" d="M0 256v256h256v-256h768v512h-512v256h512v512h-768v-256h-256v256h256v256h768v-256h256v-512h-256v-256h256v-512h-256v-256h-768v256h-256z" />
<glyph unicode="4" d="M0 512v512h256v256h256v256h256v256h256v-1024h256v-256h-256v-512h-256v512h-768zM266 768h502v512h-246v-256h-256v-256z" />
<glyph unicode="5" d="M0 256v256h256v-256h768v512h-768v256h-256v768h1280v-256h-1024v-512h768v-256h256v-512h-256v-256h-768v256h-256z" />
<glyph unicode="6" d="M0 256v1280h256v256h768v-256h256v-256h-256v256h-768v-512h768v-256h256v-512h-254v-256h-772v256h-254zM266 256h748v512h-748v-512z" />
<glyph unicode="7" d="M0 1536v256h1280v-768h-256v-512h-256v-512h-256v512h256v512h256v512h-1024z" />
<glyph unicode="8" d="M0 256v512h256v256h-256v512h256v256h768v-256h256v-512h-256v-256h256v-512h-256v-256h-768v256h-256zM266 256h748v512h-748v-512zM266 1024h748v512h-748v-512z" />
<glyph unicode="9" d="M0 256v256h256v-256h768v512h-768v256h-256v512h254v256h772v-256h254v-1280h-256v-256h-768v256h-256zM266 1024h748v512h-748v-512z" />
<glyph unicode=":" horiz-adv-x="512" d="M0 256v256h256v-256h-256zM0 1024v256h256v-256h-256z" />
<glyph unicode=";" horiz-adv-x="768" d="M0 -256h256v512h256v-512h-256v-256h-256v256zM256 1024v256h256v-256h-256z" />
<glyph unicode="&#x3c;" horiz-adv-x="1024" d="M0 512v256h256v256h256v256h256v-256h-256v-256h-256v-256h256v-256h256v-256h-256v256h-256v256h-256z" />
<glyph unicode="=" d="M0 512v256h1280v-256h-1280zM0 1024v256h1280v-256h-1280z" />
<glyph unicode="&#x3e;" horiz-adv-x="1024" d="M0 0v256h256v256h256v256h-256v256h-256v256h256v-256h256v-256h256v-256h-256v-256h-256v-256h-256z" />
<glyph unicode="?" d="M0 1280v256h256v256h768v-256h256v-512h-256v-256h-256v-256h-256v512h512v512h-768v-256h-256zM512 0v256h256v-256h-256z" />
<glyph unicode="@" horiz-adv-x="2048" d="M0 256v768h256v-768h256v-256h768v-256h-768v256h-256v256h-256zM256 1024v256h256v256h768v-256h256v-256h256v-512h-256v512h-256v256h-768v-256h-256zM512 512v256h256v256h256v-256h256v-256h256v-256h-256v256h-256v-256h-256v256h-256zM778 512h236v256h-236v-256z " />
<glyph unicode="A" d="M0 0v1536h256v256h768v-256h256v-1536h-256v768h-768v-768h-256zM256 1024h768v502h-768v-502z" />
<glyph unicode="B" d="M0 0v1792h1024v-256h256v-512h-256v-256h256v-512h-256v-256h-1024zM256 256h758v512h-758v-512zM256 1024h758v512h-758v-512z" />
<glyph unicode="C" d="M0 256v1280h256v256h768v-256h256v-256h-256v256h-768v-1280h768v256h256v-256h-256v-256h-768v256h-256z" />
<glyph unicode="D" d="M0 0v1792h1024v-256h256v-1280h-256v-256h-1024zM256 256h758v1280h-758v-1280z" />
<glyph unicode="E" d="M0 0v1792h1280v-256h-1024v-512h768v-256h-768v-512h1024v-256h-1280z" />
<glyph unicode="F" d="M0 0v1792h1280v-256h-1024v-512h768v-256h-768v-768h-256z" />
<glyph unicode="G" d="M0 256v1280h256v256h768v-256h256v-256h-256v256h-768v-1280h768v512h-256v256h512v-768h-256v-256h-768v256h-256z" />
<glyph unicode="H" d="M0 0v1792h256v-768h768v768h256v-1792h-256v768h-768v-768h-256z" />
<glyph unicode="I" horiz-adv-x="512" d="M0 0v1792h256v-1792h-256z" />
<glyph unicode="J" d="M0 256v256h256v-256h768v1536h256v-1536h-256v-256h-768v256h-256z" />
<glyph unicode="K" d="M0 0v1792h256v-768h256v256h256v256h256v256h256v-256h-256v-256h-256v-256h-256v-256h256v-256h256v-256h256v-256h-256v256h-256v256h-256v256h-256v-768h-256z" />
<glyph unicode="L" horiz-adv-x="1280" d="M0 0v1792h256v-1536h768v-256h-1024z" />
<glyph unicode="M" horiz-adv-x="2048" d="M0 0v1792h256v-256h256v-256h256v-256h256v256h256v256h256v256h256v-1792h-256v1280h-256v-256h-256v-256h-256v256h-256v256h-256v-1280h-256z" />
<glyph unicode="N" d="M0 0v1792h256v-512h256v-256h256v-256h256v1024h256v-1792h-256v512h-256v256h-256v256h-256v-1024h-256z" />
<glyph unicode="O" d="M0 256v1280h256v256h768v-256h256v-1280h-256v-256h-768v256h-256zM256 266h768v1260h-768v-1260z" />
<glyph unicode="P" d="M0 0v1792h1024v-256h256v-512h-256v-256h-768v-768h-256zM256 1024h758v512h-758v-512z" />
<glyph unicode="Q" d="M0 256v1280h256v256h768v-256h256v-1280h-256v-256h256v-256h-256v256h-768v256h-256zM256 266h768v1260h-768v-1260z" />
<glyph unicode="R" d="M0 0v1792h1024v-256h256v-512h-256v-256h-256v-256h256v-256h256v-256h-256v256h-256v256h-256v256h-256v-768h-256zM256 1024h758v512h-758v-512z" />
<glyph unicode="S" d="M0 256v256h256v-256h768v512h-768v256h-256v512h256v256h768v-256h256v-256h-256v256h-768v-512h768v-256h256v-512h-256v-256h-768v256h-256z" />
<glyph unicode="T" d="M0 1536v256h1280v-256h-512v-1536h-256v1536h-512z" />
<glyph unicode="U" d="M0 256v1536h256v-1536h768v1536h256v-1536h-256v-256h-768v256h-256z" />
<glyph unicode="V" d="M0 1024v768h256v-768h256v-512h256v512h256v768h256v-768h-256v-512h-256v-512h-256v512h-256v512h-256z" />
<glyph unicode="W" horiz-adv-x="2048" d="M0 256v1536h256v-1536h512v1536h256v-1536h512v1536h256v-1536h-256v-256h-512v256h-256v-256h-512v256h-256z" />
<glyph unicode="X" d="M0 0v512h256v256h256v256h-256v256h-256v512h256v-512h256v-256h256v256h256v512h256v-512h-256v-256h-256v-256h256v-256h256v-512h-256v512h-256v256h-256v-256h-256v-512h-256z" />
<glyph unicode="Y" d="M0 1280v512h256v-512h256v-256h-256v256h-256zM512 0v1024h256v-1024h-256zM768 1024v256h256v512h256v-512h-256v-256h-256z" />
<glyph unicode="Z" d="M0 0v512h256v256h256v256h256v256h256v256h-1024v256h1280v-512h-256v-256h-256v-256h-256v-256h-256v-256h1024v-256h-1280z" />
<glyph unicode="[" horiz-adv-x="768" d="M0 -256v2304h512v-256h-256v-1792h256v-256h-512z" />
<glyph unicode="\" horiz-adv-x="1280" d="M0 1536v512h256v-512h256v-512h256v-512h256v-512h-256v512h-256v512h-256v512h-256z" />
<glyph unicode="]" horiz-adv-x="768" d="M0 0h256v1792h-256v256h512v-2304h-512v256z" />
<glyph unicode="^" d="M0 1024v256h256v256h256v256h256v-256h256v-256h256v-256h-256v256h-256v256h-256v-256h-256v-256h-256z" />
<glyph unicode="_" horiz-adv-x="1792" d="M0 0v256h1536v-256h-1536z" />
<glyph unicode="`" horiz-adv-x="768" d="M0 1536v256h256v-256h256v-256h-256v256h-256z" />
<glyph unicode="a" horiz-adv-x="1280" d="M0 256v768h256v256h768v-1280h-768v256h-256zM266 256h502v768h-502v-768z" />
<glyph unicode="b" horiz-adv-x="1280" d="M0 0v1792h256v-512h512v-256h256v-768h-256v-256h-768zM256 256h502v768h-502v-768z" />
<glyph unicode="c" horiz-adv-x="1280" d="M0 256v768h256v256h512v-256h256v-256h-256v256h-512v-768h512v256h256v-256h-256v-256h-512v256h-256z" />
<glyph unicode="d" horiz-adv-x="1280" d="M0 256v768h256v256h512v512h256v-1792h-768v256h-256zM266 256h502v768h-502v-768z" />
<glyph unicode="e" horiz-adv-x="1280" d="M0 256v768h256v256h512v-256h256v-512h-768v-256h512v-256h-512v256h-256zM256 768h512v246h-512v-246z" />
<glyph unicode="f" horiz-adv-x="768" d="M0 0v1536h256v256h256v-256h-256v-512h256v-256h-256v-768h-256z" />
<glyph unicode="g" horiz-adv-x="1280" d="M0 256v768h256v256h768v-1536h-256v-256h-512v256h512v256h-512v256h-256zM266 256h502v768h-502v-768z" />
<glyph unicode="h" horiz-adv-x="1280" d="M0 0v1792h256v-512h512v-256h256v-1024h-256v1024h-512v-1024h-256z" />
<glyph unicode="i" horiz-adv-x="512" d="M0 0v1280h256v-1280h-256zM0 1536v256h256v-256h-256z" />
<glyph unicode="j" horiz-adv-x="512" d="M-256 -256h256v1536h256v-1536h-256v-256h-256v256zM0 1536v256h256v-256h-256z" />
<glyph unicode="k" horiz-adv-x="1280" d="M0 0v1792h256v-1024h256v256h256v256h256v-256h-256v-256h-256v-256h256v-256h256v-256h-256v256h-256v256h-256v-512h-256z" />
<glyph unicode="l" horiz-adv-x="512" d="M0 0v1792h256v-1792h-256z" />
<glyph unicode="m" horiz-adv-x="2048" d="M0 0v1280h768v-256h256v256h512v-256h256v-1024h-256v1024h-512v-1024h-256v1024h-512v-1024h-256z" />
<glyph unicode="n" horiz-adv-x="1280" d="M0 0v1280h768v-256h256v-1024h-256v1024h-512v-1024h-256z" />
<glyph unicode="o" horiz-adv-x="1280" d="M0 256v768h256v256h512v-256h256v-768h-256v-256h-512v256h-256zM256 266h512v748h-512v-748z" />
<glyph unicode="p" horiz-adv-x="1280" d="M0 -512v1792h768v-256h256v-768h-256v-256h-512v-512h-256zM256 256h502v768h-502v-768z" />
<glyph unicode="q" horiz-adv-x="1280" d="M0 256v768h256v256h768v-1792h-256v512h-512v256h-256zM266 256h502v768h-502v-768z" />
<glyph unicode="r" horiz-adv-x="1024" d="M0 0v1280h768v-256h-512v-1024h-256z" />
<glyph unicode="s" horiz-adv-x="1024" d="M0 0v256h512v256h-256v256h-256v256h256v256h512v-256h-512v-256h256v-256h256v-256h-256v-256h-512z" />
<glyph unicode="t" horiz-adv-x="1024" d="M0 1024v256h256v512h256v-512h256v-256h-256v-1024h-256v1024h-256z" />
<glyph unicode="u" horiz-adv-x="1280" d="M0 256v1024h256v-1024h512v1024h256v-1280h-768v256h-256z" />
<glyph unicode="v" horiz-adv-x="1280" d="M0 256v1024h256v-1024h512v1024h256v-1024h-256v-256h-512v256h-256z" />
<glyph unicode="w" horiz-adv-x="2048" d="M0 256v1024h256v-1024h512v1024h256v-1024h512v1024h256v-1024h-256v-256h-512v256h-256v-256h-512v256h-256z" />
<glyph unicode="x" horiz-adv-x="1280" d="M0 0v512h256v256h-256v512h256v-512h512v512h256v-512h-256v-256h256v-512h-256v512h-512v-512h-256z" />
<glyph unicode="y" horiz-adv-x="1280" d="M0 256v1024h256v-1024h512v1024h256v-1536h-256v-256h-512v256h512v256h-512v256h-256z" />
<glyph unicode="z" horiz-adv-x="1280" d="M0 0v512h256v256h512v256h-768v256h1024v-512h-256v-256h-512v-256h768v-256h-1024z" />
<glyph unicode="{" horiz-adv-x="1024" d="M0 768v256h256v768h256v256h256v-256h-256v-768h-256v-256h256v-768h256v-256h-256v256h-256v768h-256z" />
<glyph unicode="|" horiz-adv-x="1024" d="M256 -256v2048h256v-2048h-256z" />
<glyph unicode="}" horiz-adv-x="1024" d="M0 0h256v768h256v256h-256v768h-256v256h256v-256h256v-768h256v-256h-256v-768h-256v-256h-256v256z" />
<glyph unicode="~" horiz-adv-x="1280" d="M0 1280v256h256v256h256v-256h256v256h256v-256h-256v-256h-256v256h-256v-256h-256z" />
<glyph unicode="&#xa1;" horiz-adv-x="1024" d="M256 0v1280h256v-1280h-256zM256 1536v256h256v-256h-256z" />
<glyph unicode="&#xa2;" horiz-adv-x="1280" d="M0 768v256h256v256h256v256h256v-256h256v-256h-768v-256h768v-256h-256v-256h-256v256h-256v256h-256z" />
<glyph unicode="&#xa3;" d="M0 0v1536h256v256h512v-256h256v-256h-256v256h-512v-512h512v-256h-512v-512h768v256h256v-256h-256v-256h-1024z" />
<glyph unicode="&#xa4;" horiz-adv-x="1280" d="M0 256v512h256v256h512v-256h256v-512h-256v-256h-512v256h-256zM256 266h512v492h-512v-492z" />
<glyph unicode="&#xa5;" d="M0 256v256h514v256h-514v256h256v256h-256v512h256v-512h258v-256h254v256h256v512h256v-512h-256v-256h256v-256h-512v-256h512v-256h-512v-256h-254v256h-514z" />
<glyph unicode="&#xa6;" horiz-adv-x="1024" d="M256 4v766h256v-766h-256zM256 1026v766h256v-766h-256z" />
<glyph unicode="&#xa7;" horiz-adv-x="1024" d="M0 0v256h512v256h-256v256h-256v256h256v256h-256v256h256v256h512v-256h-512v-256h256v-256h256v-256h-256v-256h256v-256h-256v-256h-512zM266 768h236v256h-236v-256z" />
<glyph unicode="&#xa8;" horiz-adv-x="1280" d="M256 1536v256h256v-256h-256zM768 1536v256h256v-256h-256z" />
<glyph unicode="&#xa9;" horiz-adv-x="2048" d="M0 254v1282h256v256h1280v-256h256v-1282h-256v-254h-1280v254h-256zM266 256h1260v1278h-1260v-1278zM512 512v768h768v-256h-512v-256h512v-256h-768z" />
<glyph unicode="&#xaa;" horiz-adv-x="1280" d="M0 4v254h1022v-254h-1022zM0 768v768h256v256h768v-1280h-768v256h-256zM266 768h502v768h-502v-768z" />
<glyph unicode="&#xab;" d="M0 512v256h256v256h256v-256h-256v-256h256v-256h-256v256h-256zM768 512v256h256v256h256v-256h-256v-256h256v-256h-256v256h-256z" />
<glyph unicode="&#xac;" d="M0 768v256h1280v-768h-256v512h-1024z" />
<glyph unicode="&#xad;" horiz-adv-x="1280" d="M0 768v256h1024v-256h-1024z" />
<glyph unicode="&#xae;" horiz-adv-x="2048" d="M0 254v1282h256v256h1280v-256h256v-1282h-256v-254h-1280v254h-256zM266 256h1260v1278h-1260v-1278zM512 512v768h768v-256h-256v-256h256v-256h-256v256h-256v-256h-256z" />
<glyph unicode="&#xaf;" horiz-adv-x="1024" d="M0 1280v256h768v-256h-768z" />
<glyph unicode="&#xb0;" horiz-adv-x="1024" d="M0 1276v256h256v256h256v-256h256v-256h-256v-256h-256v256h-256zM266 1276h236v256h-236v-256z" />
<glyph unicode="&#xb1;" d="M0 0v256h512v512h-512v256h512v512h256v-512h512v-256h-512v-512h512v-256h-1280z" />
<glyph unicode="&#xb2;" horiz-adv-x="1280" d="M0 512v256h256v256h256v256h256v256h-512v256h512v-256h256v-256h-256v-256h-256v-256h512v-256h-1024zM0 1280v256h256v-256h-256z" />
<glyph unicode="&#xb3;" horiz-adv-x="1024" d="M0 512v256h512v256h-512v256h512v256h-512v256h512v-256h256v-256h-256v-256h256v-256h-256v-256h-512z" />
<glyph unicode="&#xb4;" horiz-adv-x="1024" d="M256 1536h256v256h256v256h-256v-256h-256v-256z" />
<glyph unicode="&#xb6;" d="M0 1024v512h256v256h1024v-1792h-256v768h-256v-768h-256v768h-256v256h-256zM266 1024h246v512h-246v-512zM768 1024h256v512h-256v-512z" />
<glyph unicode="&#xb7;" horiz-adv-x="1024" d="M256 770v256h256v-256h-256z" />
<glyph unicode="&#xb8;" horiz-adv-x="1024" d="M0 -256h512v256h-256v256h256v-256h258v-256h-258v-256h-512v256z" />
<glyph unicode="&#xb9;" horiz-adv-x="768" d="M0 1280v256h256v256h256v-1280h-256v768h-256z" />
<glyph unicode="&#xba;" horiz-adv-x="1280" d="M0 4v254h1022v-254h-1022zM0 768v768h256v256h512v-256h256v-768h-256v-256h-512v256h-256zM256 778h512v748h-512v-748z" />
<glyph unicode="&#xbb;" d="M0 256v256h256v256h-256v256h256v-256h256v-256h-256v-256h-256zM768 256v256h256v256h-256v256h256v-256h256v-256h-256v-256h-256z" />
<glyph unicode="&#xbc;" horiz-adv-x="2560" d="M0 1280h256v-768h256v1280h-256v-256h-256v-256zM512 0v512h256v512h256v512h256v512h256v-512h-256v-512h-256v-512h-256v-512h-256zM1280 256v512h256v256h256v256h256v-768h256v-256h-256v-256h-256v256h-512zM1536 512h256v246h-256v-246z" />
<glyph unicode="&#xbd;" horiz-adv-x="2560" d="M0 1280v256h256v256h256v-1280h256v512h256v512h256v512h256v-512h-256v-512h256v-256h-256v256h-256v-512h-256v-512h-256v512h-256v768h-256zM1280 0v256h256v256h256v256h256v256h-512v256h512v-256h256v-256h-256v-256h-256v-256h512v-256h-1024z" />
<glyph unicode="&#xbe;" horiz-adv-x="2816" d="M0 512v256h512v256h-512v256h512v256h-512v256h512v-256h256v-256h-256v-256h256v-256h-256v-256h-512zM768 0v512h256v512h256v512h256v512h256v-512h-256v-512h-256v-512h-256v-512h-256zM1536 256v512h256v256h256v256h256v-768h256v-256h-256v-256h-256v256h-512z M1792 512h256v246h-256v-246z" />
<glyph unicode="&#xbf;" d="M0 256v512h256v256h256v256h256v-512h-512v-512h768v256h256v-256h-256v-256h-768v256h-256zM512 1536v256h256v-256h-256z" />
<glyph unicode="&#xc0;" d="M0 0v1536h256v256h768v-256h256v-1536h-256v768h-768v-768h-256zM256 1024h768v502h-768v-502zM256 2304v256h256v-256h256v-256h-256v256h-256z" />
<glyph unicode="&#xc1;" d="M0 0v1536h256v256h768v-256h256v-1536h-256v768h-768v-768h-256zM256 1024h768v502h-768v-502zM512 2048h256v256h256v256h-256v-256h-256v-256z" />
<glyph unicode="&#xc2;" d="M0 0v1536h256v256h768v-256h256v-1536h-256v768h-768v-768h-256zM256 1024h768v502h-768v-502zM256 2048v256h256v256h256v-256h256v-256h-256v256h-256v-256h-256z" />
<glyph unicode="&#xc3;" d="M0 0v1536h256v256h768v-256h256v-1536h-256v768h-768v-768h-256zM256 1024h768v502h-768v-502zM256 2048v256h256v256h256v-256h256v256h256v-256h-256v-256h-256v256h-256v-256h-256z" />
<glyph unicode="&#xc4;" d="M0 0v1536h256v256h768v-256h256v-1536h-256v768h-768v-768h-256zM256 1024h768v502h-768v-502zM256 2048v256h256v-256h-256zM768 2048v256h256v-256h-256z" />
<glyph unicode="&#xc5;" d="M0 0v1536h256v256h256v256h-256v256h256v256h256v-256h256v-256h-256v-256h256v-256h256v-1536h-256v768h-768v-768h-256zM256 1024h768v502h-768v-502zM522 2048h236v256h-236v-256z" />
<glyph unicode="&#xc6;" horiz-adv-x="2048" d="M0 0v1536h256v256h1536v-256h-768v-512h512v-256h-512v-512h768v-256h-1024v768h-512v-768h-256zM266 1024h502v512h-502v-512z" />
<glyph unicode="&#xc7;" d="M0 256v1280h256v256h768v-256h256v-256h-256v256h-768v-1280h768v256h256v-256h-256v-256h-256v-256h-256v-256h-256v256h256v256h-256v256h-256z" />
<glyph unicode="&#xc8;" d="M0 0v1792h1280v-256h-1024v-512h768v-256h-768v-512h1024v-256h-1280zM256 2304v256h256v-256h256v-256h-256v256h-256z" />
<glyph unicode="&#xc9;" d="M0 0v1792h1280v-256h-1024v-512h768v-256h-768v-512h1024v-256h-1280zM512 2048h256v256h256v256h-256v-256h-256v-256z" />
<glyph unicode="&#xca;" d="M0 0v1792h1280v-256h-1024v-512h768v-256h-768v-512h1024v-256h-1280zM256 2048v256h256v256h256v-256h256v-256h-256v256h-256v-256h-256z" />
<glyph unicode="&#xcb;" d="M0 0v1792h1280v-256h-1024v-512h768v-256h-768v-512h1024v-256h-1280zM256 2048v256h256v-256h-256zM768 2048v256h256v-256h-256z" />
<glyph unicode="&#xcc;" horiz-adv-x="1280" d="M0 256v768h256v256h512v-256h256v-256h-256v256h-512v-768h512v256h256v-256h-256v-256h-512v256h-256zM256 1536h256v256h256v256h-256v-256h-256v-256z" />
<glyph unicode="&#xcd;" d="M0 256v1280h256v256h768v-256h256v-256h-256v256h-768v-1280h768v256h256v-256h-256v-256h-768v256h-256zM256 2304v256h256v-256h256v256h256v-256h-256v-256h-256v256h-256z" />
<glyph unicode="&#xce;" d="M0 256v1280h256v256h768v-256h256v-256h-256v256h-768v-1280h768v256h256v-256h-256v-256h-768v256h-256zM512 2048h256v256h256v256h-256v-256h-256v-256z" />
<glyph unicode="&#xcf;" horiz-adv-x="1280" d="M0 256v768h256v256h512v-256h256v-256h-256v256h-512v-768h512v256h256v-256h-256v-256h-512v256h-256zM0 1792v256h256v-256h512v256h256v-256h-256v-256h-512v256h-256z" />
<glyph unicode="&#xd0;" horiz-adv-x="1792" d="M0 766v256h256v770h1024v-256h256v-1280h-256v-256h-1024v766h-256zM512 256h758v1280h-758v-514h256v-256h-256v-510z" />
<glyph unicode="&#xd1;" d="M0 0v1792h256v-512h256v-256h256v-256h256v1024h256v-1792h-256v512h-256v256h-256v256h-256v-1024h-256zM256 2048v256h256v256h256v-256h256v256h256v-256h-256v-256h-256v256h-256v-256h-256z" />
<glyph unicode="&#xd2;" d="M0 256v1280h256v256h768v-256h256v-1280h-256v-256h-768v256h-256zM256 266h768v1260h-768v-1260zM256 2304v256h256v-256h256v-256h-256v256h-256z" />
<glyph unicode="&#xd3;" d="M0 256v1280h256v256h768v-256h256v-1280h-256v-256h-768v256h-256zM256 266h768v1260h-768v-1260zM512 2048h256v256h256v256h-256v-256h-256v-256z" />
<glyph unicode="&#xd4;" d="M0 256v1280h256v256h768v-256h256v-1280h-256v-256h-768v256h-256zM256 266h768v1260h-768v-1260zM256 2048v256h256v256h256v-256h256v-256h-256v256h-256v-256h-256z" />
<glyph unicode="&#xd5;" horiz-adv-x="1280" d="M0 256v768h256v256h512v-256h256v-768h-256v-256h-512v256h-256zM0 1536v256h256v256h256v-256h256v256h256v-256h-256v-256h-256v256h-256v-256h-256zM256 266h512v748h-512v-748z" />
<glyph unicode="&#xd6;" d="M0 256v1280h256v256h768v-256h256v-1280h-256v-256h-768v256h-256zM256 266h768v1260h-768v-1260zM256 2048v256h256v-256h-256zM768 2048v256h256v-256h-256z" />
<glyph unicode="&#xd7;" horiz-adv-x="1024" d="M0 512v254h256v256h-256v256h256v-256h256v256h254v-256h-254v-256h254v-254h-254v254h-256v-254h-256z" />
<glyph unicode="&#xd8;" d="M0 256v1280h256v256h768v-256h256v-1280h-256v-256h-768v256h-256zM256 266h768v768h-246v-256h-266v-256h-256v-256zM256 778h246v256h266v256h256v236h-768v-748z" />
<glyph unicode="&#xd9;" d="M0 256v1536h256v-1536h768v1536h256v-1536h-256v-256h-768v256h-256zM256 2304v256h256v-256h256v-256h-256v256h-256z" />
<glyph unicode="&#xda;" d="M0 256v1536h256v-1536h768v1536h256v-1536h-256v-256h-768v256h-256zM512 2048h256v256h256v256h-256v-256h-256v-256z" />
<glyph unicode="&#xdb;" d="M0 256v1536h256v-1536h768v1536h256v-1536h-256v-256h-768v256h-256zM256 2048v256h256v256h256v-256h256v-256h-256v256h-256v-256h-256z" />
<glyph unicode="&#xdc;" d="M0 256v1536h256v-1536h768v1536h256v-1536h-256v-256h-768v256h-256zM256 2048v256h256v-256h-256zM768 2048v256h256v-256h-256z" />
<glyph unicode="&#xdd;" d="M0 1280v512h256v-512h256v-256h-256v256h-256zM512 0v1024h256v-1024h-256zM512 2048h256v256h256v256h-256v-256h-256v-256zM768 1024v256h256v512h256v-512h-256v-256h-256z" />
<glyph unicode="&#xde;" horiz-adv-x="1280" d="M0 4v1788h256v-512h514v-254h254v-256h-254v-258h-514v-508h-256zM256 770h502v256h-502v-256z" />
<glyph unicode="&#xdf;" d="M0 -256v1536h256v256h256v256h512v-256h256v-512h-256v-256h256v-512h-256v-256h-512v256h512v512h-256v256h256v512h-512v-256h-256v-1536h-256z" />
<glyph unicode="&#xe0;" horiz-adv-x="1280" d="M0 256v768h256v256h768v-1280h-768v256h-256zM256 1792v256h256v-256h256v-256h-256v256h-256zM266 256h502v768h-502v-768z" />
<glyph unicode="&#xe1;" horiz-adv-x="1280" d="M0 256v768h256v256h768v-1280h-768v256h-256zM256 1536h256v256h256v256h-256v-256h-256v-256zM266 256h502v768h-502v-768z" />
<glyph unicode="&#xe2;" horiz-adv-x="1280" d="M0 256v768h256v256h768v-1280h-768v256h-256zM0 1536v256h256v256h512v-256h256v-256h-256v256h-512v-256h-256zM266 256h502v768h-502v-768z" />
<glyph unicode="&#xe3;" horiz-adv-x="1280" d="M0 256v768h256v256h768v-1280h-768v256h-256zM0 1536v256h256v256h256v-256h256v256h256v-256h-256v-256h-256v256h-256v-256h-256zM266 256h502v768h-502v-768z" />
<glyph unicode="&#xe4;" horiz-adv-x="1280" d="M0 256v768h256v256h768v-1280h-768v256h-256zM0 1536v256h256v-256h-256zM266 256h502v768h-502v-768zM768 1536v256h256v-256h-256z" />
<glyph unicode="&#xe5;" horiz-adv-x="1280" d="M0 256v768h256v256h256v256h-256v256h256v256h256v-256h256v-256h-256v-256h256v-1280h-768v256h-256zM266 256h502v768h-502v-768zM522 1536h236v256h-236v-256z" />
<glyph unicode="&#xe6;" horiz-adv-x="2048" d="M0 254v258h256v256h512v256h-512v256h512v-256h254v256h516v-256h254v-512h-758v-256h502v-256h-512v256h-256v-256h-514v254h-254zM266 256h492v254h-492v-254zM1034 768h492v256h-492v-256z" />
<glyph unicode="&#xe7;" horiz-adv-x="1280" d="M0 256v768h256v256h512v-256h256v-256h-256v256h-512v-768h512v256h256v-256h-256v-512h-256v-256h-256v256h256v256h-256v256h-256z" />
<glyph unicode="&#xe8;" horiz-adv-x="1280" d="M0 256v768h256v256h512v-256h256v-512h-768v-256h512v-256h-512v256h-256zM256 768h512v246h-512v-246zM256 1792v256h256v-256h256v-256h-256v256h-256z" />
<glyph unicode="&#xe9;" horiz-adv-x="1280" d="M0 256v768h256v256h512v-256h256v-512h-768v-256h512v-256h-512v256h-256zM256 768h512v246h-512v-246zM256 1536h256v256h256v256h-256v-256h-256v-256z" />
<glyph unicode="&#xea;" horiz-adv-x="1280" d="M0 256v768h256v256h512v-256h256v-512h-768v-256h512v-256h-512v256h-256zM0 1536v256h256v256h512v-256h256v-256h-256v256h-512v-256h-256zM256 768h512v246h-512v-246z" />
<glyph unicode="&#xeb;" horiz-adv-x="1280" d="M0 256v768h256v256h512v-256h256v-512h-768v-256h512v-256h-512v256h-256zM0 1536v256h256v-256h-256zM256 768h512v246h-512v-246zM768 1536v256h256v-256h-256z" />
<glyph unicode="&#xec;" horiz-adv-x="512" d="M-256 1792v256h256v-256h256v-256h-256v256h-256zM0 0v1280h256v-1280h-256z" />
<glyph unicode="&#xed;" horiz-adv-x="512" d="M0 0v1280h256v-1280h-256zM0 1536h256v256h256v256h-256v-256h-256v-256z" />
<glyph unicode="&#xee;" horiz-adv-x="512" d="M-256 1536h768h-256v256h-256v-256h-256zM-256 1536v256h256v256h256v-256h256v-256h-768zM0 0v1280h256v-1280h-256z" />
<glyph unicode="&#xef;" horiz-adv-x="512" d="M-256 1536v256h256v-256h-256zM0 0v1280h256v-1280h-256zM256 1536v256h256v-256h-256z" />
<glyph unicode="&#xf0;" horiz-adv-x="1280" d="M0 256v510h254v258h258v254h-512v256h256v254h256v-254h512v-256h-254v-254h254v-768h-256v-256h-514v256h-254zM266 256h492v768h-236v-258h-256v-510z" />
<glyph unicode="&#xf1;" horiz-adv-x="1280" d="M0 0v1280h768v-256h256v-1024h-256v1024h-512v-1024h-256zM0 1536v256h256v256h256v-256h256v256h256v-256h-256v-256h-256v256h-256v-256h-256z" />
<glyph unicode="&#xf2;" horiz-adv-x="1280" d="M0 256v768h256v256h512v-256h256v-768h-256v-256h-512v256h-256zM256 266h512v748h-512v-748zM256 1792v256h256v-256h256v-256h-256v256h-256z" />
<glyph unicode="&#xf3;" horiz-adv-x="1280" d="M0 256v768h256v256h512v-256h256v-768h-256v-256h-512v256h-256zM256 266h512v748h-512v-748zM256 1536h256v256h256v256h-256v-256h-256v-256z" />
<glyph unicode="&#xf4;" horiz-adv-x="1280" d="M0 256v768h256v256h512v-256h256v-768h-256v-256h-512v256h-256zM0 1536v256h256v256h512v-256h256v-256h-256v256h-512v-256h-256zM256 266h512v748h-512v-748z" />
<glyph unicode="&#xf5;" horiz-adv-x="1280" d="M0 256v768h256v256h512v-256h256v-768h-256v-256h-512v256h-256zM0 1536v256h256v256h256v-256h256v256h256v-256h-256v-256h-256v256h-256v-256h-256zM256 266h512v748h-512v-748z" />
<glyph unicode="&#xf6;" horiz-adv-x="1280" d="M0 256v768h256v256h512v-256h256v-768h-256v-256h-512v256h-256zM0 1536v256h256v-256h-256zM256 266h512v748h-512v-748zM768 1536v256h256v-256h-256z" />
<glyph unicode="&#xf7;" d="M0 770v256h1278v-256h-1278zM512 258v256h254v-256h-254zM512 1280v256h254v-256h-254z" />
<glyph unicode="&#xf8;" horiz-adv-x="1280" d="M0 256v768h256v256h512v-256h256v-768h-256v-256h-512v256h-256zM266 256h492v256h-492v-256zM266 768h492v256h-492v-256z" />
<glyph unicode="&#xf9;" horiz-adv-x="1280" d="M0 256v1024h256v-1024h512v1024h256v-1280h-768v256h-256zM256 1792v256h256v-256h256v-256h-256v256h-256z" />
<glyph unicode="&#xfa;" horiz-adv-x="1280" d="M0 256v1024h256v-1024h512v1024h256v-1280h-768v256h-256zM256 1536h256v256h256v256h-256v-256h-256v-256z" />
<glyph unicode="&#xfb;" horiz-adv-x="1280" d="M0 256v1024h256v-1024h512v1024h256v-1280h-768v256h-256zM0 1536v256h256v256h512v-256h256v-256h-256v256h-512v-256h-256z" />
<glyph unicode="&#xfc;" horiz-adv-x="1280" d="M0 256v1024h256v-1024h512v1024h256v-1280h-768v256h-256zM0 1536v256h256v-256h-256zM768 1536v256h256v-256h-256z" />
<glyph unicode="&#xfd;" horiz-adv-x="1280" d="M0 256v1024h256v-1024h512v1024h256v-1536h-256v-256h-512v256h512v256h-512v256h-256zM256 1536h256v256h256v256h-256v-256h-256v-256z" />
<glyph unicode="&#xfe;" horiz-adv-x="1280" d="M0 -252v1788h256v-512h514v-254h254v-256h-254v-258h-514v-508h-256zM256 514h502v256h-502v-256z" />
<glyph unicode="&#xff;" horiz-adv-x="1280" d="M0 256v1024h256v-1024h512v1024h256v-1536h-256v-256h-512v256h512v256h-512v256h-256zM0 1536v256h256v-256h-256zM768 1536v256h256v-256h-256z" />
<glyph unicode="&#x152;" horiz-adv-x="2048" d="M0 256v1280h256v256h1536v-256h-768v-512h512v-256h-512v-512h768v-256h-1536v256h-256zM266 256h502v1280h-502v-1280z" />
<glyph unicode="&#x153;" horiz-adv-x="2048" d="M0 256v768h256v256h512v-256h256v256h512v-256h256v-512h-768v-256h512v-256h-512v256h-256v-256h-512v256h-256zM266 256h492v768h-492v-768zM1034 768h492v256h-492v-256z" />
<glyph unicode="&#x178;" d="M0 1280v512h256v-512h256v-256h-256v256h-256zM256 2048v256h256v-256h-256zM512 0v1024h256v-1024h-256zM768 1024v256h256v512h256v-512h-256v-256h-256zM768 2048v256h256v-256h-256z" />
<glyph unicode="&#x2c6;" horiz-adv-x="1280" d="M256 1276v256h256v256h256v-256h256v-256h-256v256h-256v-256h-256z" />
<glyph unicode="&#x2dc;" horiz-adv-x="1280" d="M0 1280v256h256v256h256v-256h256v256h256v-256h-256v-256h-256v256h-256v-256h-256z" />
<glyph unicode="&#x2000;" horiz-adv-x="1280" />
<glyph unicode="&#x2001;" horiz-adv-x="2560" />
<glyph unicode="&#x2002;" horiz-adv-x="1280" />
<glyph unicode="&#x2003;" horiz-adv-x="2560" />
<glyph unicode="&#x2004;" horiz-adv-x="853" />
<glyph unicode="&#x2005;" horiz-adv-x="640" />
<glyph unicode="&#x2006;" horiz-adv-x="426" />
<glyph unicode="&#x2007;" horiz-adv-x="426" />
<glyph unicode="&#x2008;" horiz-adv-x="320" />
<glyph unicode="&#x2009;" horiz-adv-x="512" />
<glyph unicode="&#x200a;" horiz-adv-x="142" />
<glyph unicode="&#x2010;" horiz-adv-x="1280" d="M0 768v256h1024v-256h-1024z" />
<glyph unicode="&#x2011;" horiz-adv-x="1280" d="M0 768v256h1024v-256h-1024z" />
<glyph unicode="&#x2012;" horiz-adv-x="1280" d="M0 768v256h1024v-256h-1024z" />
<glyph unicode="&#x2013;" horiz-adv-x="1024" d="M0 768v256h768v-256h-768z" />
<glyph unicode="&#x2014;" horiz-adv-x="1280" d="M0 768v256h1024v-256h-1024z" />
<glyph unicode="&#x2018;" horiz-adv-x="768" d="M0 770v510h256v256h256v-256h-256v-254h256v-256h-512z" />
<glyph unicode="&#x2019;" horiz-adv-x="768" d="M0 770v256h256v254h-256v256h512v-510h-256v-256h-256z" />
<glyph unicode="&#x201a;" horiz-adv-x="768" d="M-256 -256h256v512h256v-512h-256v-256h-256v256z" />
<glyph unicode="&#x201c;" horiz-adv-x="1280" d="M0 1024v512h256v256h256v-256h256v256h256v-256h-256v-512h-256v512h-256v-512h-256z" />
<glyph unicode="&#x201d;" horiz-adv-x="1280" d="M0 1024v256h256v512h256v-512h256v512h256v-512h-256v-256h-256v256h-256v-256h-256z" />
<glyph unicode="&#x201e;" horiz-adv-x="1024" d="M-256 -256h256v512h256v-512h256v512h256v-512h-256v-256h-256v256h-256v-256h-256v256z" />
<glyph unicode="&#x2022;" horiz-adv-x="1024" d="M0 768v256h256v256h256v-256h256v-256h-256v-256h-256v256h-256z" />
<glyph unicode="&#x2026;" d="M0 0v256h256v-256h-256zM512 0v256h256v-256h-256zM1024 0v256h256v-256h-256z" />
<glyph unicode="&#x202f;" horiz-adv-x="512" />
<glyph unicode="&#x2039;" horiz-adv-x="768" d="M0 512v256h256v256h256v-256h-256v-256h256v-256h-256v256h-256z" />
<glyph unicode="&#x203a;" horiz-adv-x="768" d="M0 256v256h256v256h-256v256h256v-256h256v-256h-256v-256h-256z" />
<glyph unicode="&#x205f;" horiz-adv-x="640" />
<glyph unicode="&#x2122;" horiz-adv-x="2304" d="M0 1536v256h768v-256h256v256h256v-256h256v256h256v-256h256v-512h-256v512h-256v-512h-256v512h-256v-512h-256v512h-256v-512h-256v512h-256z" />
<glyph unicode="&#xe000;" horiz-adv-x="1280" d="M0 0v1280h1280v-1280h-1280z" />
</font>
</defs>
</svg>
