<?xml version="1.0" standalone="no"?>
<!DOCTYPE svg PUBLIC "-//W3C//DTD SVG 1.1//EN" "http://www.w3.org/Graphics/SVG/1.1/DTD/svg11.dtd" >
<svg>
<metadata>
Created by FontForge 20110222 at Wed May  8 10:39:07 2013
 By ,,,
CN Bold is the proprietary display typeface for the Cartoon Network.
</metadata>
<defs>
<font id="CNBold" horiz-adv-x="1705" >
  <font-face 
    font-family="CN"
    font-weight="700"
    font-stretch="normal"
    units-per-em="2048"
    panose-1="0 0 7 0 0 0 0 0 0 0"
    ascent="1638"
    descent="-410"
    x-height="1366"
    cap-height="1366"
    bbox="-168 -512 11158 2548"
    underline-thickness="40"
    underline-position="-252"
    unicode-range="U+0020-E000"
  />
<missing-glyph horiz-adv-x="2048" 
 />
    <glyph glyph-name=".notdef" horiz-adv-x="2048" 
 />
    <glyph glyph-name="glyph1" horiz-adv-x="0" 
 />
    <glyph glyph-name="glyph2" horiz-adv-x="2048" 
 />
    <glyph glyph-name="space" unicode=" " horiz-adv-x="1161" 
 />
    <glyph glyph-name="exclam" unicode="!" horiz-adv-x="526" 
d="M109 72v166q0 49 11 60t58 11h168q47 0 58.5 -11t11.5 -60v-166q0 -49 -11.5 -60.5t-58.5 -11.5h-168q-47 0 -58 11.5t-11 60.5zM109 518v778q0 47 11 58.5t58 11.5h168q47 0 58.5 -11.5t11.5 -58.5v-778q0 -47 -11.5 -58t-58.5 -11h-168q-47 0 -58 11t-11 58z" />
    <glyph glyph-name="quotedbl" unicode="&#x22;" horiz-adv-x="845" 
d="M86 1321q0 45 70 45h151q39 0 54.5 -7t15.5 -38q0 -18 -2 -29l-37 -405q-4 -47 -15.5 -57.5t-58.5 -10.5h-65q-47 0 -58.5 10.5t-15.5 57.5l-37 405q-2 10 -2 29zM469 1321q0 45 70 45h151q72 0 70 -45q-2 -18 -2 -29l-37 -405q-4 -47 -15.5 -57.5t-58.5 -10.5h-67
q-45 0 -56.5 10.5t-15.5 57.5l-37 405q-2 8 -2 29z" />
    <glyph glyph-name="numbersign" unicode="#" horiz-adv-x="1161" 
d="M63 416q0 10 5 37l12 77q8 45 17 54.5t57 9.5h86l28 176h-71q-70 0 -70 41q0 10 4 37l12 78q8 45 18.5 54t55.5 9h86l49 314q8 45 17.5 54t56.5 9h98q70 0 70 -41q0 -10 -4 -37l-47 -299h172l49 314q8 45 17.5 54t56.5 9h100q70 0 70 -41q0 -10 -4 -37l-48 -299h72
q72 0 72 -41q0 2 -6 -37l-13 -77q-8 -45 -18 -54.5t-55 -9.5h-86l-29 -176h74q70 0 69 -41q0 -10 -4 -37l-12 -78q-8 -47 -18.5 -55t-57.5 -8h-86l-49 -312q-8 -45 -18.5 -54t-55.5 -9h-100q-70 0 -70 41q0 8 4 35l47 299h-172l-49 -312q-8 -45 -17 -54t-56 -9h-99
q-70 0 -69 41q0 8 4 35l47 299h-72q-70 0 -70 41zM479 594h172l29 176h-172z" />
    <glyph glyph-name="dollar" unicode="$" horiz-adv-x="1161" 
d="M112 971q0 139 87.5 239t237.5 133v166q0 47 11.5 58.5t58.5 11.5h117q47 0 58 -11.5t11 -58.5v-180q31 -8 58 -24q0 37 18 47q12 6 53 6h84q49 0 60.5 -11.5t11.5 -60.5v-256q0 -47 -11.5 -58t-60.5 -11h-139q-41 0 -52.5 6t-17.5 28q-25 94 -131 95q-53 0 -89 -31
t-36 -80q0 -92 142 -135q88 -27 166 -58q303 -117 303 -387q0 -145 -96.5 -248.5t-262.5 -136.5v-186q0 -47 -11 -58.5t-58 -11.5h-125q-47 0 -58.5 11.5t-11.5 58.5v195q-31 12 -55 26q0 -35 -21 -43q-10 -6 -49 -6h-104q-47 0 -58.5 11.5t-11.5 58.5v288q0 49 11.5 60.5
t58.5 11.5h155q66 0 72 -39q23 -135 154 -135q55 0 93 35t38 86q0 74 -74 115q-29 16 -133 53q-203 72 -279 147q-115 115 -114 279z" />
    <glyph glyph-name="percent" unicode="%" horiz-adv-x="1767" 
d="M61 1040q0 145 104 249t251 104q145 0 249.5 -103.5t104.5 -251.5q0 -147 -103.5 -250.5t-250.5 -103.5q-145 0 -250 104.5t-105 251.5zM315 1040q0 -41 30 -70.5t71 -29.5t69.5 29.5t28.5 68.5q0 41 -29.5 71t-70.5 30q-39 0 -69 -29t-30 -70zM504 39q0 10 16 47
l559 1229l8 18q10 23 20.5 28t49.5 5h37q70 0 70 -39q0 -10 -17 -47l-557 -1229q-18 -39 -27.5 -45t-52.5 -6h-37q-70 0 -69 39zM997 330q0 145 104 248.5t251 103.5q145 0 249.5 -103.5t104.5 -250.5t-103.5 -251t-250.5 -104q-145 0 -250 104.5t-105 252.5zM1251 330
q0 -41 30 -71t71 -30t69.5 30t28.5 69q0 41 -29.5 70.5t-70.5 29.5q-39 0 -69 -28.5t-30 -69.5z" />
    <glyph glyph-name="ampersand" unicode="&#x26;" horiz-adv-x="1353" 
d="M68 362q0 113 51 191t198 184l-14 21q-63 92 -86 141q-25 59 -24 133q0 156 105 258.5t267 102.5q150 0 253.5 -94.5t103.5 -229.5q0 -184 -185 -332l162 -164l82 177q2 6 8 16q8 23 19.5 28t50.5 5h182q47 0 58.5 -11.5t11.5 -58.5v-131q0 -47 -11.5 -58.5t-58.5 -11.5
h-45l-88 -166l154 -159q33 -35 32 -49q0 -16 -20 -37l-12 -13l-109 -106q-33 -33 -49 -33t-49 33l-133 133q-182 -158 -400 -158q-193 0 -323.5 113t-130.5 276zM391 393q0 -59 43 -99t107 -40q102 0 170 90l-203 205q-117 -66 -117 -156zM483 1047q1 -76 62 -129l16 -15
q84 72 84 146q0 39 -23.5 64.5t-58.5 25.5q-80 0 -80 -92z" />
    <glyph glyph-name="quotesingle" unicode="'" horiz-adv-x="464" 
d="M86 1321q0 45 70 45h151q39 0 54.5 -7t15.5 -38q0 -18 -2 -29l-37 -405q-4 -47 -15.5 -57.5t-58.5 -10.5h-65q-47 0 -58.5 10.5t-15.5 57.5l-37 405q-2 10 -2 29z" />
    <glyph glyph-name="parenleft" unicode="(" horiz-adv-x="788" 
d="M61 504q0 258 124 482t343 364q119 76 164 75q41 0 41 -71v-246q0 -51 -26 -68q-133 -82 -213 -228t-80 -308q0 -160 83 -312.5t208 -222.5q28 -16 28 -69v-248q0 -70 -41 -70q-29 0 -111.5 46t-150.5 102q-174 139 -271.5 342.5t-97.5 431.5z" />
    <glyph glyph-name="parenright" unicode=")" horiz-adv-x="788" 
d="M55 -102q0 51 27 67q133 82 213 228.5t80 308.5q0 160 -83 312.5t-208 221.5q-29 17 -29 70v248q0 70 41 69q29 0 112 -46t150 -101q174 -139 271.5 -343t97.5 -431q0 -258 -124 -482.5t-343 -363.5q-119 -76 -164 -76q-41 0 -41 72v246z" />
    <glyph glyph-name="asterisk" unicode="*" horiz-adv-x="1161" 
d="M145 973q0 10 11 43l32 102q18 55 48 56q10 0 43 -13l192 -71l-12 202q-2 12 -2 27q0 47 69 47h107q49 0 59 -11.5t10 -35.5v-25l-10 -204l191 73q37 14 43 15q27 2 47 -58l33 -100q12 -37 12 -43q0 -29 -60 -45l-196 -53l129 -158q29 -35 29 -49q0 -23 -41 -51l-86 -62
q-16 -12 -48 -27q-20 -2 -40 29q-6 10 -11 14l-112 173l-109 -173q-31 -47 -51 -45q-16 0 -49 25l-86 63q-39 29 -39 52q0 16 26 49l129 160l-198 51q-59 14 -60 43z" />
    <glyph glyph-name="plus" unicode="+" horiz-adv-x="1161" 
d="M78 649v94q0 47 11 58.5t58 11.5h310v301q0 47 11 58.5t58 11.5h105q47 0 58 -11.5t11 -58.5v-301h310q49 0 60 -11t11 -59v-94q0 -47 -11 -58t-60 -11h-310v-301q0 -47 -11 -58.5t-58 -11.5h-105q-47 0 -58 11t-11 59v301h-310q-47 0 -58 11t-11 58z" />
    <glyph glyph-name="comma" unicode="," horiz-adv-x="501" 
d="M96 72v166q0 49 11.5 60t60.5 11h168q49 0 60.5 -11t11.5 -60v-308q0 -115 -61.5 -180t-172.5 -65h-6q-49 0 -60.5 11t-11.5 60v6q0 68 43 72q90 8 90 117v49h-61q-49 0 -60.5 11.5t-11.5 60.5z" />
    <glyph glyph-name="hyphen" unicode="-" 
d="M332 614v516h516v-516h-516zM848 98v516h516v-516h-516z" />
    <glyph glyph-name="period" unicode="." horiz-adv-x="501" 
d="M96 72v166q0 49 11.5 60t58.5 11h170q47 0 58.5 -11t11.5 -60v-166q0 -49 -11.5 -60.5t-58.5 -11.5h-170q-47 0 -58.5 11.5t-11.5 60.5z" />
    <glyph glyph-name="slash" unicode="/" horiz-adv-x="937" 
d="M-45 -299q0 35 33 111l630 1464q29 70 39 82q27 37 76 37q39 0 68.5 -28t29.5 -62q1 -31 -32 -107l-631 -1464q-29 -68 -41 -82q-27 -37 -76 -37q-37 0 -66.5 26.5t-29.5 59.5z" />
    <glyph glyph-name="zero" unicode="0" horiz-adv-x="1161" 
d="M82 489v388q0 248 162 385q150 127 336 127q217 0 374 -168q125 -133 125 -344v-388q0 -246 -164 -385q-150 -127 -335 -127q-215 0 -373 164q-125 131 -125 348zM410 485q0 -207 172 -206q170 0 170 206v389q0 213 -172 213q-170 0 -170 -213v-389z" />
    <glyph glyph-name="one" unicode="1" horiz-adv-x="1161" 
d="M274 1184v112q0 47 11.5 58.5t60.5 11.5h344q47 0 58.5 -11.5t11.5 -58.5v-1015h76q47 0 58 -11.5t11 -60.5v-137q0 -49 -11 -60.5t-58 -11.5h-480q-47 0 -58 11.5t-11 60.5v137q0 49 11 60.5t58 11.5h76v833h-86q-49 0 -60.5 11.5t-11.5 58.5z" />
    <glyph glyph-name="two" unicode="2" horiz-adv-x="1161" 
d="M94 942q0 180 141.5 313.5t331.5 133.5q197 0 331 -132.5t134 -322.5q0 -121 -61.5 -222.5t-210.5 -228.5l-240 -202h207v28q0 47 11.5 58.5t60.5 11.5h149q47 0 58.5 -11.5t11.5 -58.5v-237q0 -49 -11.5 -60.5t-58.5 -11.5h-776q-47 0 -58.5 11.5t-11.5 60.5v161
q0 41 3.5 47.5t29.5 32.5l422 400q96 90 122 128t26 87q0 57 -43.5 98t-104.5 41q-57 0 -98 -38t-47 -95q-4 -39 -72 -39h-176q-49 0 -59.5 11.5t-10.5 35.5z" />
    <glyph glyph-name="three" unicode="3" horiz-adv-x="1161" 
d="M59 352q0 43 70 43h199q55 0 67 -26q49 -104 146 -105q72 0 119 48t47 118t-49.5 120t-118.5 50h-31q-45 0 -45 70v110q0 37 7 52.5t40 17.5q178 6 178 139q0 55 -37 91t-94 36q-106 0 -125 -86q-7 -33 -70 -33h-163q-72 0 -72 45q0 137 131 242t305 105
q180 0 303 -105.5t123 -259.5q0 -170 -145 -274q211 -102 211 -334q0 -182 -143.5 -310.5t-350.5 -128.5q-201 0 -351.5 113t-150.5 262z" />
    <glyph glyph-name="four" unicode="4" horiz-adv-x="1161" 
d="M10 455v139q0 37 2 42t25 36l498 655q2 2 6 7t6 7q16 25 67 25h256q47 0 58.5 -11.5t11.5 -60.5v-657h139q47 0 58.5 -11.5t11.5 -58.5v-112q0 -47 -11.5 -58.5t-58.5 -11.5h-139v-104h76q49 0 60 -11.5t11 -60.5v-137q0 -49 -11 -60.5t-60 -11.5h-479q-47 0 -58.5 11.5
t-11.5 60.5v137q0 49 11 60.5t59 11.5h75v104h-532q-47 0 -58.5 11.5t-11.5 58.5zM367 637h245v326z" />
    <glyph glyph-name="five" unicode="5" horiz-adv-x="1161" 
d="M72 324q0 41 69 41h211q47 0 62 -17q63 -70 149 -69q82 0 138.5 56t56.5 136q0 82 -56.5 135t-142.5 53q-117 0 -162 -90q-14 -23 -35 -22q-12 0 -43 8l-147 39q-59 16 -59 47q0 8 4 35l98 627q8 45 17.5 54t56.5 9h626q47 0 58.5 -11.5t11.5 -60.5v-137q0 -49 -11 -60.5
t-59 -11.5h-430l-34 -194q96 55 206 55q188 0 318.5 -135t130.5 -330q0 -219 -155.5 -361.5t-395.5 -142.5q-285 0 -432 226q-51 78 -51 121z" />
    <glyph glyph-name="six" unicode="6" horiz-adv-x="1161" 
d="M57 512q0 166 117 340l318 471q23 35 30.5 39t48.5 4h209q74 0 72 -41q0 -16 -25 -49l-223 -315q35 8 66 8q180 0 307 -137.5t127 -333.5q0 -213 -153.5 -367t-366.5 -154q-219 0 -373 156t-154 379zM385 494q0 -78 57.5 -133.5t139.5 -55.5q80 0 137 55.5t57 133.5
t-57 133t-139 55q-80 0 -137.5 -55.5t-57.5 -132.5z" />
    <glyph glyph-name="seven" unicode="7" horiz-adv-x="1161" 
d="M115 950v344q0 49 11 60.5t58 11.5h817q47 0 58.5 -11.5t11.5 -60.5v-172q0 -39 -14 -71l-439 -1000q-18 -39 -26 -45t-51 -6h-217q-70 0 -70 39q0 16 14 47l461 999h-287v-135q0 -47 -11 -58t-58 -11h-189q-47 0 -58 11t-11 58z" />
    <glyph glyph-name="eight" unicode="8" horiz-adv-x="1161" 
d="M86 393q0 238 221 340q-162 88 -162 271q0 158 127 271.5t308 113.5q178 0 305 -114t127 -271q0 -182 -158 -271q219 -102 219 -340q0 -178 -141 -297t-352 -119t-352.5 119t-141.5 297zM414 424q0 -68 49 -117t119 -49q68 0 115.5 48t47.5 116q0 70 -47.5 119t-117.5 49
t-118 -48t-48 -118zM446 979q0 -53 39 -92t95 -39q55 0 93 39t38 92t-39 91t-94 38t-93.5 -38t-38.5 -91z" />
    <glyph glyph-name="nine" unicode="9" horiz-adv-x="1161" 
d="M55 864q0 211 158 368t371 157q221 0 371.5 -158t150.5 -389q0 -166 -100 -320l-312 -479q-23 -35 -31 -39t-49 -4h-243q-70 0 -70 39q0 16 27 51l239 307q-39 -12 -84 -12q-174 0 -301 142.5t-127 336.5zM383 866q0 -82 57.5 -138t141.5 -56q82 0 139 56t57 136
q0 82 -57 138.5t-141 56.5q-82 0 -139.5 -56.5t-57.5 -136.5z" />
    <glyph glyph-name="colon" unicode=":" horiz-adv-x="501" 
d="M96 188v166q0 49 11.5 60.5t58.5 11.5h170q47 0 58.5 -11.5t11.5 -60.5v-166q0 -49 -11.5 -60t-58.5 -11h-170q-47 0 -58.5 11t-11.5 60zM96 909v166q0 49 11.5 60.5t58.5 11.5h170q47 0 58.5 -11.5t11.5 -60.5v-166q0 -49 -11.5 -60t-58.5 -11h-170q-47 0 -58.5 11
t-11.5 60z" />
    <glyph glyph-name="semicolon" unicode=";" horiz-adv-x="501" 
d="M96 72v166q0 49 11.5 60t60.5 11h168q49 0 60.5 -11t11.5 -60v-308q0 -115 -61.5 -180t-172.5 -65h-6q-49 0 -60.5 11t-11.5 60v6q0 68 43 72q90 8 90 117v49h-61q-49 0 -60.5 11.5t-11.5 60.5zM96 793v165q0 49 11.5 60.5t58.5 11.5h170q47 0 58.5 -11.5t11.5 -60.5
v-165q0 -49 -11.5 -60.5t-58.5 -11.5h-170q-47 0 -58.5 11t-11.5 61z" />
    <glyph glyph-name="less" unicode="&#x3c;" horiz-adv-x="1112" 
d="M145 530v201q0 20 12.5 41t30.5 31l740 409q16 10 29.5 2t13.5 -28v-258q0 -20 -13.5 -41t-29.5 -31l-404 -227l400 -226q16 -10 29.5 -31.5t13.5 -43.5v-254q0 -18 -13.5 -26.5t-29.5 1.5l-736 408q-18 10 -30.5 30.5t-12.5 42.5z" />
    <glyph glyph-name="equal" unicode="=" horiz-adv-x="1161" 
d="M78 485v74q0 47 11 58.5t58 11.5h865q47 0 58 -11.5t11 -58.5v-74q0 -47 -11 -58t-58 -11h-865q-47 0 -58 11t-11 58zM78 834v73q0 47 11 58.5t58 11.5h865q47 0 58 -11.5t11 -58.5v-73q0 -47 -11 -58.5t-58 -11.5h-865q-47 0 -58 11.5t-11 58.5z" />
    <glyph glyph-name="greater" unicode="&#x3e;" horiz-adv-x="1112" 
d="M145 928v258q0 20 13.5 28.5t29.5 -2.5l740 -409q18 -10 30.5 -30.5t12.5 -41.5v-201q0 -23 -12.5 -43t-30.5 -30l-735 -408q-16 -10 -29.5 -2t-13.5 27v254q0 23 13 44t30 31l399 226l-404 227q-16 10 -29.5 30.5t-13.5 41.5z" />
    <glyph glyph-name="question" unicode="?" horiz-adv-x="1044" 
d="M45 948q0 176 140.5 310.5t322.5 134.5q197 0 336 -136.5t139 -328.5q0 -180 -164 -318q-127 -106 -145 -170q-9 -30 -70 -30h-170q-72 0 -72 45q0 74 37 133t146 162q61 57 76 77q37 47 36 99q0 59 -42 102t-103 43q-127 0 -147 -131q-6 -37 -70 -37h-180q-70 0 -70 45z
M360 70v168q0 47 11.5 58t60.5 11h160q49 0 60.5 -11t11.5 -58v-168q0 -47 -11.5 -58.5t-60.5 -11.5h-160q-49 0 -60.5 11.5t-11.5 58.5z" />
    <glyph glyph-name="at" unicode="@" horiz-adv-x="1587" 
d="M68 670q0 305 220 519t533 214q301 0 500 -173t199 -435q0 -127 -60 -250q-66 -137 -172 -187q-68 -33 -237 -32h-179q-41 0 -38 49q-74 -59 -183 -60q-115 0 -184.5 80t-69.5 211q0 158 97.5 269.5t234.5 111.5q104 0 191 -65q6 -6 12 -11v2q8 45 19.5 54.5t56.5 9.5
h118q70 0 70 -41q0 -14 -6 -37l-4 -31q-6 -45 -17.5 -53t-58.5 -8h-8l-53 -311h104q78 0 113 36q84 90 84 244q0 217 -134.5 343t-363.5 126q-266 0 -437 -167t-171 -427q0 -244 157.5 -387t423.5 -143q70 0 194 24.5t157 24.5q27 0 47 -55l8 -23q10 -29 10 -45
q0 -47 -199 -70q-123 -14 -239 -14q-311 0 -523 203t-212 504zM578 629q0 -68 36.5 -109t98.5 -41q76 0 125 57.5t49 145.5q0 61 -38 101t-97 40q-72 0 -123 -57t-51 -137z" />
    <glyph glyph-name="A" unicode="A" horiz-adv-x="1478" 
d="M-14 70v139q0 49 11 60.5t60 11.5h60l334 804h-62q-47 0 -58.5 11.5t-11.5 60.5v137q0 49 11.5 60.5t58.5 11.5h395q25 0 41.5 -6t36.5 -47l418 -1032h61q47 0 58.5 -11.5t11.5 -60.5v-139q0 -47 -11 -58.5t-59 -11.5h-483q-47 0 -58.5 11.5t-11.5 58.5v104
q0 47 11.5 58.5t58.5 11.5h60l-41 125h-381l-37 -125h59q47 0 58.5 -11.5t11.5 -58.5v-104q0 -47 -11.5 -58.5t-58.5 -11.5h-461q-49 0 -60 11.5t-11 58.5zM578 625h217l-109 346z" />
    <glyph glyph-name="B" unicode="B" horiz-adv-x="1193" 
d="M45 72v137q0 49 11.5 60.5t58.5 11.5h61v804h-61q-47 0 -58.5 11.5t-11.5 60.5v137q0 49 11.5 60.5t58.5 11.5h555q221 0 325.5 -91t104.5 -255q0 -205 -172 -289q223 -94 223 -336q0 -180 -115.5 -287.5t-343.5 -107.5h-577q-47 0 -58.5 11.5t-11.5 60.5zM514 295h107
q100 0 144 31.5t44 105.5q0 139 -174 139h-121v-276zM514 842h107q94 0 132 26.5t38 89.5q0 66 -38 92.5t-132 26.5h-107v-235z" />
    <glyph glyph-name="C" unicode="C" horiz-adv-x="1480" 
d="M55 690q0 289 204 496t486 207q231 0 383 -150v51q0 49 11.5 60.5t58.5 11.5h137q47 0 58.5 -11.5t11.5 -60.5v-360q0 -47 -11.5 -58.5t-58.5 -11.5h-200h-12q-45 0 -58 27q-61 92 -139 128t-170 36q-154 0 -256.5 -102.5t-102.5 -258.5q0 -160 106.5 -271.5
t258.5 -111.5q199 0 299 162q16 35 72 35h229q70 0 70 -41q0 -55 -80 -172q-100 -147 -261 -234.5t-331 -87.5q-289 0 -497 211t-208 506z" />
    <glyph glyph-name="D" unicode="D" horiz-adv-x="1460" 
d="M74 72v137q0 49 11 60.5t58 11.5h62v804h-62q-47 0 -58 11.5t-11 60.5v137q0 49 11 60.5t58 11.5h625q285 0 461 -188.5t176 -491.5q0 -301 -180.5 -493.5t-460.5 -192.5h-621q-47 0 -58 11.5t-11 60.5zM543 301h188q158 0 245 100.5t87 282.5t-87 281.5t-245 99.5h-188
v-764z" />
    <glyph glyph-name="E" unicode="E" horiz-adv-x="1169" 
d="M74 72v137q0 49 11 60.5t58 11.5h62v804h-62q-47 0 -58 11.5t-11 60.5v137q0 49 11 60.5t58 11.5h899q49 0 60.5 -11.5t11.5 -60.5v-307q0 -49 -11 -60.5t-61 -11.5h-196q-47 0 -58.5 11.5t-11.5 60.5v78h-233v-244h245q47 0 58.5 -11t11.5 -58v-121q0 -47 -11 -58.5
t-59 -11.5h-245v-260h233v78q0 49 11.5 60.5t58.5 11.5h196q49 0 60.5 -11.5t11.5 -60.5v-307q0 -49 -11 -60.5t-61 -11.5h-899q-47 0 -58 11.5t-11 60.5z" />
    <glyph glyph-name="F" unicode="F" horiz-adv-x="1142" 
d="M74 72v137q0 49 11 60.5t58 11.5h62v804h-62q-47 0 -58 11.5t-11 60.5v137q0 49 11 60.5t58 11.5h908q49 0 60 -11.5t11 -60.5v-303q0 -49 -11 -60t-60 -11h-197q-47 0 -58.5 11t-11.5 60v74h-241v-254h245q47 0 58.5 -11.5t11.5 -58.5v-120q0 -47 -11 -58.5t-59 -11.5
h-245v-270h61q47 0 58.5 -11.5t11.5 -60.5v-137q0 -49 -11.5 -60.5t-58.5 -11.5h-461q-47 0 -58 11.5t-11 60.5z" />
    <glyph glyph-name="G" unicode="G" horiz-adv-x="1507" 
d="M55 684q0 295 205 502t498 207q113 0 190.5 -26t190.5 -101v28q0 49 11 60.5t58 11.5h138q47 0 58 -11.5t11 -60.5v-303q0 -47 -11 -58t-58 -11h-254q-47 0 -66 22q-96 111 -256 111q-162 0 -267.5 -104.5t-105.5 -264.5t107.5 -268.5t265.5 -108.5q201 0 301 174h-321
q-47 0 -58.5 11.5t-11.5 60.5v141q0 49 11 60.5t59 11.5h626q47 0 58.5 -11.5t11.5 -60.5v-626q0 -47 -11.5 -58.5t-58.5 -11.5h-137q-47 0 -58.5 11.5t-11.5 58.5v71q-139 -168 -407 -168q-295 0 -501 207t-206 504z" />
    <glyph glyph-name="H" unicode="H" horiz-adv-x="1513" 
d="M74 72v137q0 49 11 60.5t58 11.5h62v804h-62q-47 0 -58 11.5t-11 60.5v137q0 49 11 60.5t58 11.5h461q47 0 58.5 -11.5t11.5 -60.5v-137q0 -49 -11.5 -60.5t-58.5 -11.5h-61v-235h428v235h-60q-47 0 -58 11.5t-11 60.5v137q0 49 11 60.5t58 11.5h459q47 0 58.5 -11.5
t11.5 -60.5v-137q0 -49 -11.5 -60.5t-58.5 -11.5h-61v-804h61q47 0 58.5 -11.5t11.5 -60.5v-137q0 -49 -11.5 -60.5t-58.5 -11.5h-459q-47 0 -58 11.5t-11 60.5v137q0 49 11 60.5t58 11.5h60v251h-428v-251h61q47 0 58.5 -11.5t11.5 -60.5v-137q0 -49 -11.5 -60.5
t-58.5 -11.5h-461q-47 0 -58 11.5t-11 60.5z" />
    <glyph glyph-name="I" unicode="I" horiz-adv-x="747" 
d="M74 72v137q0 49 11 60.5t58 11.5h62v804h-62q-47 0 -58 11.5t-11 60.5v137q0 49 11 60.5t58 11.5h461q47 0 58.5 -11.5t11.5 -60.5v-137q0 -49 -11.5 -60.5t-58.5 -11.5h-61v-804h61q47 0 58.5 -11.5t11.5 -60.5v-137q0 -49 -11.5 -60.5t-58.5 -11.5h-461q-47 0 -58 11.5
t-11 60.5z" />
    <glyph glyph-name="J" unicode="J" horiz-adv-x="1093" 
d="M16 379q0 37 19 49q10 6 51 6h215q35 0 45 -9t10 -45t26 -74q22 -33 74 -33q8 0 17 1q102 2 105 195v616h-62q-47 0 -58.5 11.5t-11.5 60.5v137q0 49 11.5 60.5t58.5 11.5h461q47 0 58.5 -11.5t11.5 -60.5v-137q0 -49 -11.5 -60.5t-58.5 -11.5h-62v-651q0 -236 -141 -356
q-123 -104 -309 -105q-195 0 -322 115t-127 291z" />
    <glyph glyph-name="K" unicode="K" horiz-adv-x="1406" 
d="M74 72v137q0 49 11 60.5t58 11.5h62v804h-62q-47 0 -58 11.5t-11 60.5v137q0 49 11 60.5t58 11.5h461q47 0 58.5 -11.5t11.5 -60.5v-137q0 -49 -11.5 -60.5t-58.5 -11.5h-61v-329l334 329h-33q-47 0 -58.5 11.5t-11.5 60.5v137q0 49 11.5 60.5t58.5 11.5h467
q47 0 58 -11.5t11 -60.5v-137q0 -49 -11 -60.5t-58 -11.5h-17l-417 -393l432 -411h28q47 0 58.5 -11.5t11.5 -60.5v-137q0 -49 -11.5 -60.5t-58.5 -11.5h-493q-47 0 -58.5 11.5t-11.5 60.5v137q0 49 11.5 60.5t58.5 11.5h41l-342 331v-331h61q47 0 58.5 -11.5t11.5 -60.5
v-137q0 -49 -11.5 -60.5t-58.5 -11.5h-461q-47 0 -58 11.5t-11 60.5z" />
    <glyph glyph-name="L" unicode="L" horiz-adv-x="1144" 
d="M74 72v137q0 49 11 60.5t58 11.5h62v804h-62q-47 0 -58 11.5t-11 60.5v137q0 49 11 60.5t58 11.5h461q47 0 58.5 -11.5t11.5 -60.5v-137q0 -49 -11.5 -60.5t-58.5 -11.5h-61v-784h250v78q0 49 11 60.5t60 11.5h195q49 0 60 -11.5t11 -60.5v-307q0 -49 -11 -60.5
t-60 -11.5h-916q-47 0 -58 11.5t-11 60.5z" />
    <glyph glyph-name="M" unicode="M" horiz-adv-x="1884" 
d="M74 72v137q0 49 11 60.5t58 11.5h62v804h-62q-47 0 -58 11.5t-11 60.5v137q0 49 11 60.5t58 11.5h455q43 0 52 -7t24 -48l258 -785l252 783q14 43 23.5 50t54.5 7h479q47 0 58 -11.5t11 -60.5v-137q0 -49 -11 -60.5t-58 -11.5h-62v-804h62q47 0 58 -11.5t11 -60.5v-137
q0 -49 -11 -60.5t-58 -11.5h-461q-47 0 -58.5 11.5t-11.5 60.5v137q0 49 11.5 60.5t58.5 11.5h61v677l-280 -903q-2 -2 -6 -16q-8 -27 -19.5 -33t-52.5 -6h-115q-43 0 -53 7t-22 48l-279 893v-667h61q47 0 58.5 -11.5t11.5 -60.5v-137q0 -49 -11 -60.5t-59 -11.5h-432
q-47 0 -58 11.5t-11 60.5z" />
    <glyph glyph-name="N" unicode="N" horiz-adv-x="1554" 
d="M74 72v137q0 49 11 60.5t58 11.5h82v804h-82q-47 0 -58 11.5t-11 60.5v137q0 49 11 60.5t58 11.5h308q39 0 52 -12.5t25 -28.5l510 -745v505h-61q-47 0 -58.5 11.5t-11.5 60.5v137q0 49 11.5 60.5t58.5 11.5h461q47 0 58 -11.5t11 -60.5v-137q0 -49 -11 -60.5t-58 -11.5
h-82v-1013q0 -49 -12.5 -60.5t-59.5 -11.5h-164q-43 0 -74.5 39t-39.5 53l-463 672v-483h61q47 0 58.5 -11.5t11.5 -60.5v-137q0 -49 -11.5 -60.5t-58.5 -11.5h-461q-47 0 -58 11.5t-11 60.5z" />
    <glyph glyph-name="O" unicode="O" horiz-adv-x="1538" 
d="M55 682q0 293 210 502t505 209t504 -207t209 -498q0 -297 -209 -506t-506 -209q-295 0 -504 208t-209 501zM397 684q0 -154 108.5 -263.5t264.5 -109.5q154 0 262.5 110.5t108.5 266.5q0 152 -108.5 259.5t-262.5 107.5q-156 0 -264.5 -108.5t-108.5 -262.5z" />
    <glyph glyph-name="P" unicode="P" horiz-adv-x="1210" 
d="M74 72v137q0 49 11 60.5t58 11.5h62v804h-62q-47 0 -58 11.5t-11 60.5v137q0 49 11 60.5t58 11.5h435q317 0 457.5 -119t140.5 -342q0 -209 -131.5 -342t-391.5 -133h-110v-149h61q47 0 58.5 -11.5t11.5 -60.5v-137q0 -49 -11.5 -60.5t-58.5 -11.5h-461q-47 0 -58 11.5
t-11 60.5zM543 731h121q170 0 170 164q0 170 -189 170h-102v-334z" />
    <glyph glyph-name="Q" unicode="Q" horiz-adv-x="1687" 
d="M53 684q0 293 207 501t500 208t499.5 -207t206.5 -500q0 -223 -106 -362q35 -41 119 -43h84q-20 0 8 -1t33 -42v-66v-59v-78q0 -37 -39 -41q-38 -9 -91 -9q-59 0 -137 11q-111 20 -202 88q-178 -113 -375 -113q-295 0 -501 208t-206 505zM395 733q100 41 262 41
q271 -8 437 -239q31 59 30 139q0 160 -106.5 270.5t-259.5 110.5q-139 0 -245.5 -94.5t-117.5 -227.5zM459 469q113 -160 305 -160q66 0 121 31q-96 150 -283 154q-86 -2 -143 -25z" />
    <glyph glyph-name="R" unicode="R" horiz-adv-x="1300" 
d="M74 72v137q0 49 11 60.5t58 11.5h62v804h-62q-47 0 -58 11.5t-11 60.5v137q0 49 11 60.5t58 11.5h541q264 0 399.5 -129t135.5 -348q0 -158 -78 -269.5t-207 -138.5l168 -200h67q47 0 58.5 -11.5t11.5 -60.5v-137q0 -49 -11 -60.5t-59 -11.5h-233q-51 0 -74 33l-6 10
l-25 35l-288 424v-221h16q47 0 58.5 -11.5t11.5 -60.5v-137q0 -49 -11.5 -60.5t-58.5 -11.5h-416q-47 0 -58 11.5t-11 60.5zM543 670h106q106 0 167 54t61 148q0 90 -50.5 141.5t-138.5 51.5h-145v-395z" />
    <glyph glyph-name="S" unicode="S" horiz-adv-x="1052" 
d="M55 975q0 174 124 296t300 122q119 0 221 -80q0 37 19 47q12 6 51 6h113q49 0 60 -11.5t11 -58.5v-256q0 -47 -11 -58t-60 -11h-164q-41 0 -53.5 6t-18.5 31q-25 102 -123 102q-57 0 -92 -34t-35 -87q0 -59 39 -90t168 -72q213 -68 304 -164t91 -253
q0 -186 -125.5 -311.5t-312.5 -125.5q-145 0 -233 90v-6q0 -41 -25 -51q-14 -6 -47 -6h-123q-49 0 -60.5 11.5t-11.5 58.5v299q0 47 11.5 58t60.5 11h170q63 0 70 -39q25 -137 147 -137q59 0 98 36t39 93q0 53 -35.5 84t-144.5 68q-197 68 -289 147q-133 117 -133 285z" />
    <glyph glyph-name="T" unicode="T" horiz-adv-x="1171" 
d="M14 967v329q0 47 11.5 58.5t58.5 11.5h1006q47 0 58 -11.5t11 -58.5v-329q0 -49 -11 -60.5t-58 -11.5h-127q-47 0 -58.5 11.5t-11.5 60.5v98h-137v-784h61q47 0 58.5 -11.5t11.5 -60.5v-137q0 -49 -11.5 -60.5t-58.5 -11.5h-461q-47 0 -58 11.5t-11 60.5v137
q0 49 11 60.5t58 11.5h62v784h-137v-98q0 -49 -11.5 -60.5t-58.5 -11.5h-127q-47 0 -58.5 11.5t-11.5 60.5z" />
    <glyph glyph-name="U" unicode="U" horiz-adv-x="1378" 
d="M47 1137v159q0 47 11.5 58.5t60.5 11.5h426q47 0 58 -11.5t11 -60.5v-137q0 -49 -11 -60.5t-58 -11.5h-29v-593q0 -201 174 -201q172 0 172 201v593h-26q-47 0 -58.5 11.5t-11.5 60.5v137q0 49 11 60.5t59 11.5h424q49 0 60 -10t11 -60v-159q0 -35 -15.5 -43.5
t-53.5 -8.5h-62v-628q0 -227 -135 -355.5t-375 -128.5q-242 0 -377 127t-135 357v628h-61q-49 0 -59.5 12.5t-10.5 39.5z" />
    <glyph glyph-name="V" unicode="V" horiz-adv-x="1302" 
d="M-14 1157v137q0 49 11 60.5t58 11.5h453q47 0 58.5 -11.5t11.5 -60.5v-137q0 -49 -11.5 -60.5t-58.5 -11.5h-35l176 -618l199 618h-35q-47 0 -58.5 11.5t-11.5 60.5v137q0 49 11.5 60.5t58.5 11.5h432q47 0 58.5 -11.5t11.5 -60.5v-137q0 -49 -11.5 -60.5t-58.5 -11.5
h-61l-344 -1030q-14 -41 -23.5 -48t-54.5 -7h-256q-45 0 -54.5 7t-21.5 50l-313 1028h-62q-47 0 -58 11.5t-11 60.5z" />
    <glyph glyph-name="W" unicode="W" horiz-adv-x="1896" 
d="M0 1157v137q0 49 11.5 60.5t58.5 11.5h456q47 0 58.5 -11.5t11.5 -60.5v-137q0 -49 -11.5 -60.5t-58.5 -11.5h-61l131 -512l186 734q12 45 21.5 52t54.5 7h168q41 0 52.5 -6t19.5 -33l6 -18l209 -727l117 503h-64q-47 0 -58.5 11.5t-11.5 60.5v137q0 49 11.5 60.5
t58.5 11.5h461q51 0 60 -10t9 -62v-137q0 -49 -11 -60.5t-58 -11.5h-74l-262 -1026q-10 -43 -20.5 -51t-55.5 -8h-188q-45 0 -55.5 7t-22.5 50l-205 717l-201 -717q-12 -43 -21 -50t-54 -7h-185q-45 0 -55 7t-22 50l-291 1028h-45q-47 0 -58.5 11.5t-11.5 60.5z" />
    <glyph glyph-name="X" unicode="X" horiz-adv-x="1366" 
d="M0 72v137q0 49 11.5 60.5t58.5 11.5h57l358 405l-340 399h-51q-47 0 -58 11.5t-11 60.5v137q0 49 11 60.5t58 11.5h463q49 0 60.5 -11.5t11.5 -60.5v-116q0 -49 -11.5 -60.5t-60.5 -11.5h-25l158 -184l160 184h-25q-47 0 -58 11t-11 61v116q0 49 11 60.5t58 11.5h471
q47 0 58.5 -11.5t11.5 -60.5v-137q0 -49 -11.5 -60.5t-58.5 -11.5h-55l-350 -399l350 -405h55q47 0 58.5 -11.5t11.5 -60.5v-137q0 -49 -11.5 -60.5t-58.5 -11.5h-471q-47 0 -58 11.5t-11 60.5v116q0 49 11 60.5t58 11.5h45l-180 197l-182 -197h37q47 0 58 -11t11 -61v-116
q0 -49 -11 -60.5t-58 -11.5h-475q-47 0 -58.5 11.5t-11.5 60.5z" />
    <glyph glyph-name="Y" unicode="Y" horiz-adv-x="1216" 
d="M-14 1157v137q0 49 11 60.5t58 11.5h420q47 0 58.5 -11.5t11.5 -60.5v-137q0 -49 -11.5 -60.5t-58.5 -11.5h-26l157 -321l168 321h-31q-47 0 -58 11.5t-11 60.5v137q0 49 11 60.5t58 11.5h416q47 0 58.5 -11.5t11.5 -60.5v-137q0 -49 -11.5 -60.5t-58.5 -11.5h-49
l-336 -598v-206h62q47 0 58 -11.5t11 -60.5v-137q0 -49 -11 -60.5t-58 -11.5h-461q-47 0 -58.5 11.5t-11.5 60.5v137q0 49 11.5 60.5t58.5 11.5h61v206l-330 598h-51q-47 0 -58 11.5t-11 60.5z" />
    <glyph glyph-name="Z" unicode="Z" horiz-adv-x="1132" 
d="M47 70v151q0 18 7 40t18 36l587 774h-272v-90q0 -49 -11 -60.5t-61 -11.5h-157q-49 0 -60.5 11.5t-11.5 60.5v315q0 47 11.5 58.5t60.5 11.5h837q47 0 58.5 -11.5t11.5 -58.5v-141q-2 -35 -7 -48t-18 -28l-591 -784h323v90q0 47 11.5 58.5t58.5 11.5h172q49 0 60 -11.5
t11 -58.5v-315q0 -47 -11 -58.5t-60 -11.5h-897q-47 0 -58.5 11.5t-11.5 58.5z" />
    <glyph glyph-name="bracketleft" unicode="[" horiz-adv-x="788" 
d="M96 -287v1581q0 49 11.5 60.5t58.5 11.5h493q49 0 60.5 -11.5t11.5 -60.5v-139q0 -49 -11 -60.5t-61 -11.5h-229v-1153h229q49 0 60.5 -11t11.5 -58v-148q0 -47 -11 -58t-61 -11h-493q-47 0 -58.5 11t-11.5 58z" />
    <glyph glyph-name="backslash" unicode="\" horiz-adv-x="937" 
d="M-45 1305q0 35 29.5 62.5t68.5 27.5q49 0 76 -37q10 -12 39 -82l631 -1464q33 -76 32 -111q0 -33 -29.5 -59.5t-66.5 -26.5q-49 0 -76 37q-12 14 -41 82l-630 1464q-33 76 -33 107z" />
    <glyph glyph-name="bracketright" unicode="]" horiz-adv-x="788" 
d="M57 -145q0 49 11.5 60t60.5 11h229v1153h-229q-49 0 -60.5 11.5t-11.5 58.5v147q0 47 11.5 58.5t60.5 11.5h494q47 0 58 -11.5t11 -58.5v-1581q0 -49 -11 -60t-58 -11h-494q-49 0 -60.5 11t-11.5 60v140z" />
    <glyph glyph-name="asciicircum" unicode="^" 
d="M332 614v516h516v-516h-516zM848 98v516h516v-516h-516z" />
    <glyph glyph-name="underscore" unicode="_" horiz-adv-x="1024" 
d="M0 -186q0 49 11.5 60t58.5 11h884q47 0 58.5 -11t11.5 -60v-43q0 -49 -11.5 -60.5t-58.5 -11.5h-884q-47 0 -58.5 11t-11.5 61v43z" />
    <glyph glyph-name="grave" unicode="`" horiz-adv-x="1024" 
d="M166 1343q0 11 16 46l47 102q23 51 50 51q10 0 47 -20l350 -199q49 -29 47 -49q0 -10 -16 -45l-23 -47q-25 -51 -49 -52q-12 0 -27 9q-6 4 -16 6l-373 151q-53 23 -53 47z" />
    <glyph glyph-name="a" unicode="a" horiz-adv-x="1478" 
d="M-14 70v139q0 49 11 60.5t60 11.5h60l334 804h-62q-47 0 -58.5 11.5t-11.5 60.5v137q0 49 11.5 60.5t58.5 11.5h395q25 0 41.5 -6t36.5 -47l418 -1032h61q47 0 58.5 -11.5t11.5 -60.5v-139q0 -47 -11 -58.5t-59 -11.5h-483q-47 0 -58.5 11.5t-11.5 58.5v104
q0 47 11.5 58.5t58.5 11.5h60l-41 125h-381l-37 -125h59q47 0 58.5 -11.5t11.5 -58.5v-104q0 -47 -11.5 -58.5t-58.5 -11.5h-461q-49 0 -60 11.5t-11 58.5zM578 625h217l-109 346z" />
    <glyph glyph-name="b" unicode="b" horiz-adv-x="1193" 
d="M45 72v137q0 49 11.5 60.5t58.5 11.5h61v804h-61q-47 0 -58.5 11.5t-11.5 60.5v137q0 49 11.5 60.5t58.5 11.5h555q221 0 325.5 -91t104.5 -255q0 -205 -172 -289q223 -94 223 -336q0 -180 -115.5 -287.5t-343.5 -107.5h-577q-47 0 -58.5 11.5t-11.5 60.5zM514 295h107
q100 0 144 31.5t44 105.5q0 139 -174 139h-121v-276zM514 842h107q94 0 132 26.5t38 89.5q0 66 -38 92.5t-132 26.5h-107v-235z" />
    <glyph glyph-name="c" unicode="c" horiz-adv-x="1480" 
d="M55 690q0 289 204 496t486 207q231 0 383 -150v51q0 49 11.5 60.5t58.5 11.5h137q47 0 58.5 -11.5t11.5 -60.5v-360q0 -47 -11.5 -58.5t-58.5 -11.5h-200h-12q-45 0 -58 27q-61 92 -139 128t-170 36q-154 0 -256.5 -102.5t-102.5 -258.5q0 -160 106.5 -271.5
t258.5 -111.5q199 0 299 162q16 35 72 35h229q70 0 70 -41q0 -55 -80 -172q-100 -147 -261 -234.5t-331 -87.5q-289 0 -497 211t-208 506z" />
    <glyph glyph-name="d" unicode="d" horiz-adv-x="1460" 
d="M74 72v137q0 49 11 60.5t58 11.5h62v804h-62q-47 0 -58 11.5t-11 60.5v137q0 49 11 60.5t58 11.5h625q285 0 461 -188.5t176 -491.5q0 -301 -180.5 -493.5t-460.5 -192.5h-621q-47 0 -58 11.5t-11 60.5zM543 301h188q158 0 245 100.5t87 282.5t-87 281.5t-245 99.5h-188
v-764z" />
    <glyph glyph-name="e" unicode="e" horiz-adv-x="1169" 
d="M74 72v137q0 49 11 60.5t58 11.5h62v804h-62q-47 0 -58 11.5t-11 60.5v137q0 49 11 60.5t58 11.5h899q49 0 60.5 -11.5t11.5 -60.5v-307q0 -49 -11 -60.5t-61 -11.5h-196q-47 0 -58.5 11.5t-11.5 60.5v78h-233v-244h245q47 0 58.5 -11t11.5 -58v-121q0 -47 -11 -58.5
t-59 -11.5h-245v-260h233v78q0 49 11.5 60.5t58.5 11.5h196q49 0 60.5 -11.5t11.5 -60.5v-307q0 -49 -11 -60.5t-61 -11.5h-899q-47 0 -58 11.5t-11 60.5z" />
    <glyph glyph-name="f" unicode="f" horiz-adv-x="1142" 
d="M74 72v137q0 49 11 60.5t58 11.5h62v804h-62q-47 0 -58 11.5t-11 60.5v137q0 49 11 60.5t58 11.5h908q49 0 60 -11.5t11 -60.5v-303q0 -49 -11 -60t-60 -11h-197q-47 0 -58.5 11t-11.5 60v74h-241v-254h245q47 0 58.5 -11.5t11.5 -58.5v-120q0 -47 -11 -58.5t-59 -11.5
h-245v-270h61q47 0 58.5 -11.5t11.5 -60.5v-137q0 -49 -11.5 -60.5t-58.5 -11.5h-461q-47 0 -58 11.5t-11 60.5z" />
    <glyph glyph-name="g" unicode="g" horiz-adv-x="1507" 
d="M55 684q0 295 205 502t498 207q113 0 190.5 -26t190.5 -101v28q0 49 11 60.5t58 11.5h138q47 0 58 -11.5t11 -60.5v-303q0 -47 -11 -58t-58 -11h-254q-47 0 -66 22q-96 111 -256 111q-162 0 -267.5 -104.5t-105.5 -264.5t107.5 -268.5t265.5 -108.5q201 0 301 174h-321
q-47 0 -58.5 11.5t-11.5 60.5v141q0 49 11 60.5t59 11.5h626q47 0 58.5 -11.5t11.5 -60.5v-626q0 -47 -11.5 -58.5t-58.5 -11.5h-137q-47 0 -58.5 11.5t-11.5 58.5v71q-139 -168 -407 -168q-295 0 -501 207t-206 504z" />
    <glyph glyph-name="h" unicode="h" horiz-adv-x="1513" 
d="M74 72v137q0 49 11 60.5t58 11.5h62v804h-62q-47 0 -58 11.5t-11 60.5v137q0 49 11 60.5t58 11.5h461q47 0 58.5 -11.5t11.5 -60.5v-137q0 -49 -11.5 -60.5t-58.5 -11.5h-61v-235h428v235h-60q-47 0 -58 11.5t-11 60.5v137q0 49 11 60.5t58 11.5h459q47 0 58.5 -11.5
t11.5 -60.5v-137q0 -49 -11.5 -60.5t-58.5 -11.5h-61v-804h61q47 0 58.5 -11.5t11.5 -60.5v-137q0 -49 -11.5 -60.5t-58.5 -11.5h-459q-47 0 -58 11.5t-11 60.5v137q0 49 11 60.5t58 11.5h60v251h-428v-251h61q47 0 58.5 -11.5t11.5 -60.5v-137q0 -49 -11.5 -60.5
t-58.5 -11.5h-461q-47 0 -58 11.5t-11 60.5z" />
    <glyph glyph-name="i" unicode="i" horiz-adv-x="747" 
d="M74 72v137q0 49 11 60.5t58 11.5h62v804h-62q-47 0 -58 11.5t-11 60.5v137q0 49 11 60.5t58 11.5h461q47 0 58.5 -11.5t11.5 -60.5v-137q0 -49 -11.5 -60.5t-58.5 -11.5h-61v-804h61q47 0 58.5 -11.5t11.5 -60.5v-137q0 -49 -11.5 -60.5t-58.5 -11.5h-461q-47 0 -58 11.5
t-11 60.5z" />
    <glyph glyph-name="j" unicode="j" horiz-adv-x="1093" 
d="M16 379q0 37 19 49q10 6 51 6h215q35 0 45 -9t10 -45t26 -74q22 -33 74 -33q8 0 17 1q102 2 105 195v616h-62q-47 0 -58.5 11.5t-11.5 60.5v137q0 49 11.5 60.5t58.5 11.5h461q47 0 58.5 -11.5t11.5 -60.5v-137q0 -49 -11.5 -60.5t-58.5 -11.5h-62v-651q0 -236 -141 -356
q-123 -104 -309 -105q-195 0 -322 115t-127 291z" />
    <glyph glyph-name="k" unicode="k" horiz-adv-x="1406" 
d="M74 72v137q0 49 11 60.5t58 11.5h62v804h-62q-47 0 -58 11.5t-11 60.5v137q0 49 11 60.5t58 11.5h461q47 0 58.5 -11.5t11.5 -60.5v-137q0 -49 -11.5 -60.5t-58.5 -11.5h-61v-329l334 329h-33q-47 0 -58.5 11.5t-11.5 60.5v137q0 49 11.5 60.5t58.5 11.5h467
q47 0 58 -11.5t11 -60.5v-137q0 -49 -11 -60.5t-58 -11.5h-17l-417 -393l432 -411h28q47 0 58.5 -11.5t11.5 -60.5v-137q0 -49 -11.5 -60.5t-58.5 -11.5h-493q-47 0 -58.5 11.5t-11.5 60.5v137q0 49 11.5 60.5t58.5 11.5h41l-342 331v-331h61q47 0 58.5 -11.5t11.5 -60.5
v-137q0 -49 -11.5 -60.5t-58.5 -11.5h-461q-47 0 -58 11.5t-11 60.5z" />
    <glyph glyph-name="l" unicode="l" horiz-adv-x="1144" 
d="M74 72v137q0 49 11 60.5t58 11.5h62v804h-62q-47 0 -58 11.5t-11 60.5v137q0 49 11 60.5t58 11.5h461q47 0 58.5 -11.5t11.5 -60.5v-137q0 -49 -11.5 -60.5t-58.5 -11.5h-61v-784h250v78q0 49 11 60.5t60 11.5h195q49 0 60 -11.5t11 -60.5v-307q0 -49 -11 -60.5
t-60 -11.5h-916q-47 0 -58 11.5t-11 60.5z" />
    <glyph glyph-name="m" unicode="m" horiz-adv-x="1884" 
d="M74 72v137q0 49 11 60.5t58 11.5h62v804h-62q-47 0 -58 11.5t-11 60.5v137q0 49 11 60.5t58 11.5h455q43 0 52 -7t24 -48l258 -785l252 783q14 43 23.5 50t54.5 7h479q47 0 58 -11.5t11 -60.5v-137q0 -49 -11 -60.5t-58 -11.5h-62v-804h62q47 0 58 -11.5t11 -60.5v-137
q0 -49 -11 -60.5t-58 -11.5h-461q-47 0 -58.5 11.5t-11.5 60.5v137q0 49 11.5 60.5t58.5 11.5h61v677l-280 -903q-2 -2 -6 -16q-8 -27 -19.5 -33t-52.5 -6h-115q-43 0 -53 7t-22 48l-279 893v-667h61q47 0 58.5 -11.5t11.5 -60.5v-137q0 -49 -11 -60.5t-59 -11.5h-432
q-47 0 -58 11.5t-11 60.5z" />
    <glyph glyph-name="n" unicode="n" horiz-adv-x="1554" 
d="M74 72v137q0 49 11 60.5t58 11.5h82v804h-82q-47 0 -58 11.5t-11 60.5v137q0 49 11 60.5t58 11.5h308q39 0 52 -12.5t25 -28.5l510 -745v505h-61q-47 0 -58.5 11.5t-11.5 60.5v137q0 49 11.5 60.5t58.5 11.5h461q47 0 58 -11.5t11 -60.5v-137q0 -49 -11 -60.5t-58 -11.5
h-82v-1013q0 -49 -12.5 -60.5t-59.5 -11.5h-164q-43 0 -74.5 39t-39.5 53l-463 672v-483h61q47 0 58.5 -11.5t11.5 -60.5v-137q0 -49 -11.5 -60.5t-58.5 -11.5h-461q-47 0 -58 11.5t-11 60.5z" />
    <glyph glyph-name="o" unicode="o" horiz-adv-x="1538" 
d="M55 682q0 293 210 502t505 209t504 -207t209 -498q0 -297 -209 -506t-506 -209q-295 0 -504 208t-209 501zM397 684q0 -154 108.5 -263.5t264.5 -109.5q154 0 262.5 110.5t108.5 266.5q0 152 -108.5 259.5t-262.5 107.5q-156 0 -264.5 -108.5t-108.5 -262.5z" />
    <glyph glyph-name="p" unicode="p" horiz-adv-x="1210" 
d="M74 72v137q0 49 11 60.5t58 11.5h62v804h-62q-47 0 -58 11.5t-11 60.5v137q0 49 11 60.5t58 11.5h435q317 0 457.5 -119t140.5 -342q0 -209 -131.5 -342t-391.5 -133h-110v-149h61q47 0 58.5 -11.5t11.5 -60.5v-137q0 -49 -11.5 -60.5t-58.5 -11.5h-461q-47 0 -58 11.5
t-11 60.5zM543 731h121q170 0 170 164q0 170 -189 170h-102v-334z" />
    <glyph glyph-name="q" unicode="q" horiz-adv-x="1687" 
d="M53 684q0 293 207 501t500 208t499.5 -207t206.5 -500q0 -223 -106 -362q35 -41 119 -43h84q-20 0 8 -1t33 -42v-66v-59v-78q0 -37 -39 -41q-38 -9 -91 -9q-59 0 -137 11q-111 20 -202 88q-178 -113 -375 -113q-295 0 -501 208t-206 505zM395 733q100 41 262 41
q271 -8 437 -239q31 59 30 139q0 160 -106.5 270.5t-259.5 110.5q-139 0 -245.5 -94.5t-117.5 -227.5zM459 469q113 -160 305 -160q66 0 121 31q-96 150 -283 154q-86 -2 -143 -25z" />
    <glyph glyph-name="r" unicode="r" horiz-adv-x="1300" 
d="M74 72v137q0 49 11 60.5t58 11.5h62v804h-62q-47 0 -58 11.5t-11 60.5v137q0 49 11 60.5t58 11.5h541q264 0 399.5 -129t135.5 -348q0 -158 -78 -269.5t-207 -138.5l168 -200h67q47 0 58.5 -11.5t11.5 -60.5v-137q0 -49 -11 -60.5t-59 -11.5h-233q-51 0 -74 33l-6 10
l-25 35l-288 424v-221h16q47 0 58.5 -11.5t11.5 -60.5v-137q0 -49 -11.5 -60.5t-58.5 -11.5h-416q-47 0 -58 11.5t-11 60.5zM543 670h106q106 0 167 54t61 148q0 90 -50.5 141.5t-138.5 51.5h-145v-395z" />
    <glyph glyph-name="s" unicode="s" horiz-adv-x="1052" 
d="M55 975q0 174 124 296t300 122q119 0 221 -80q0 37 19 47q12 6 51 6h113q49 0 60 -11.5t11 -58.5v-256q0 -47 -11 -58t-60 -11h-164q-41 0 -53.5 6t-18.5 31q-25 102 -123 102q-57 0 -92 -34t-35 -87q0 -59 39 -90t168 -72q213 -68 304 -164t91 -253
q0 -186 -125.5 -311.5t-312.5 -125.5q-145 0 -233 90v-6q0 -41 -25 -51q-14 -6 -47 -6h-123q-49 0 -60.5 11.5t-11.5 58.5v299q0 47 11.5 58t60.5 11h170q63 0 70 -39q25 -137 147 -137q59 0 98 36t39 93q0 53 -35.5 84t-144.5 68q-197 68 -289 147q-133 117 -133 285z" />
    <glyph glyph-name="t" unicode="t" horiz-adv-x="1171" 
d="M14 967v329q0 47 11.5 58.5t58.5 11.5h1006q47 0 58 -11.5t11 -58.5v-329q0 -49 -11 -60.5t-58 -11.5h-127q-47 0 -58.5 11.5t-11.5 60.5v98h-137v-784h61q47 0 58.5 -11.5t11.5 -60.5v-137q0 -49 -11.5 -60.5t-58.5 -11.5h-461q-47 0 -58 11.5t-11 60.5v137
q0 49 11 60.5t58 11.5h62v784h-137v-98q0 -49 -11.5 -60.5t-58.5 -11.5h-127q-47 0 -58.5 11.5t-11.5 60.5z" />
    <glyph glyph-name="u" unicode="u" horiz-adv-x="1378" 
d="M47 1137v159q0 47 11.5 58.5t60.5 11.5h426q47 0 58 -11.5t11 -60.5v-137q0 -49 -11 -60.5t-58 -11.5h-29v-593q0 -201 174 -201q172 0 172 201v593h-26q-47 0 -58.5 11.5t-11.5 60.5v137q0 49 11 60.5t59 11.5h424q49 0 60 -10t11 -60v-159q0 -35 -15.5 -43.5
t-53.5 -8.5h-62v-628q0 -227 -135 -355.5t-375 -128.5q-242 0 -377 127t-135 357v628h-61q-49 0 -59.5 12.5t-10.5 39.5z" />
    <glyph glyph-name="v" unicode="v" horiz-adv-x="1302" 
d="M-14 1157v137q0 49 11 60.5t58 11.5h453q47 0 58.5 -11.5t11.5 -60.5v-137q0 -49 -11.5 -60.5t-58.5 -11.5h-35l176 -618l199 618h-35q-47 0 -58.5 11.5t-11.5 60.5v137q0 49 11.5 60.5t58.5 11.5h432q47 0 58.5 -11.5t11.5 -60.5v-137q0 -49 -11.5 -60.5t-58.5 -11.5
h-61l-344 -1030q-14 -41 -23.5 -48t-54.5 -7h-256q-45 0 -54.5 7t-21.5 50l-313 1028h-62q-47 0 -58 11.5t-11 60.5z" />
    <glyph glyph-name="w" unicode="w" horiz-adv-x="1896" 
d="M0 1157v137q0 49 11.5 60.5t58.5 11.5h456q47 0 58.5 -11.5t11.5 -60.5v-137q0 -49 -11.5 -60.5t-58.5 -11.5h-61l131 -512l186 734q12 45 21.5 52t54.5 7h168q41 0 52.5 -6t19.5 -33l6 -18l209 -727l117 503h-64q-47 0 -58.5 11.5t-11.5 60.5v137q0 49 11.5 60.5
t58.5 11.5h461q51 0 60 -10t9 -62v-137q0 -49 -11 -60.5t-58 -11.5h-74l-262 -1026q-10 -43 -20.5 -51t-55.5 -8h-188q-45 0 -55.5 7t-22.5 50l-205 717l-201 -717q-12 -43 -21 -50t-54 -7h-185q-45 0 -55 7t-22 50l-291 1028h-45q-47 0 -58.5 11.5t-11.5 60.5z" />
    <glyph glyph-name="x" unicode="x" horiz-adv-x="1366" 
d="M0 72v137q0 49 11.5 60.5t58.5 11.5h57l358 405l-340 399h-51q-47 0 -58 11.5t-11 60.5v137q0 49 11 60.5t58 11.5h463q49 0 60.5 -11.5t11.5 -60.5v-116q0 -49 -11.5 -60.5t-60.5 -11.5h-25l158 -184l160 184h-25q-47 0 -58 11t-11 61v116q0 49 11 60.5t58 11.5h471
q47 0 58.5 -11.5t11.5 -60.5v-137q0 -49 -11.5 -60.5t-58.5 -11.5h-55l-350 -399l350 -405h55q47 0 58.5 -11.5t11.5 -60.5v-137q0 -49 -11.5 -60.5t-58.5 -11.5h-471q-47 0 -58 11.5t-11 60.5v116q0 49 11 60.5t58 11.5h45l-180 197l-182 -197h37q47 0 58 -11t11 -61v-116
q0 -49 -11 -60.5t-58 -11.5h-475q-47 0 -58.5 11.5t-11.5 60.5z" />
    <glyph glyph-name="y" unicode="y" horiz-adv-x="1216" 
d="M-14 1157v137q0 49 11 60.5t58 11.5h420q47 0 58.5 -11.5t11.5 -60.5v-137q0 -49 -11.5 -60.5t-58.5 -11.5h-26l157 -321l168 321h-31q-47 0 -58 11.5t-11 60.5v137q0 49 11 60.5t58 11.5h416q47 0 58.5 -11.5t11.5 -60.5v-137q0 -49 -11.5 -60.5t-58.5 -11.5h-49
l-336 -598v-206h62q47 0 58 -11.5t11 -60.5v-137q0 -49 -11 -60.5t-58 -11.5h-461q-47 0 -58.5 11.5t-11.5 60.5v137q0 49 11.5 60.5t58.5 11.5h61v206l-330 598h-51q-47 0 -58 11.5t-11 60.5z" />
    <glyph glyph-name="z" unicode="z" horiz-adv-x="1132" 
d="M47 70v151q0 18 7 40t18 36l587 774h-272v-90q0 -49 -11 -60.5t-61 -11.5h-157q-49 0 -60.5 11.5t-11.5 60.5v315q0 47 11.5 58.5t60.5 11.5h837q47 0 58.5 -11.5t11.5 -58.5v-141q-2 -35 -7 -48t-18 -28l-591 -784h323v90q0 47 11.5 58.5t58.5 11.5h172q49 0 60 -11.5
t11 -58.5v-315q0 -47 -11 -58.5t-60 -11.5h-897q-47 0 -58.5 11.5t-11.5 58.5z" />
    <glyph glyph-name="braceleft" unicode="{" 
d="M332 614v516h516v-516h-516zM848 98v516h516v-516h-516z" />
    <glyph glyph-name="bar" unicode="|" 
d="M332 614v516h516v-516h-516zM848 98v516h516v-516h-516z" />
    <glyph glyph-name="braceright" unicode="}" 
d="M332 614v516h516v-516h-516zM848 98v516h516v-516h-516z" />
    <glyph glyph-name="asciitilde" unicode="~" 
d="M332 614v516h516v-516h-516zM848 98v516h516v-516h-516z" />
    <glyph glyph-name="uni00A0" unicode="&#xa0;" 
d="M332 614v516h516v-516h-516zM848 98v516h516v-516h-516z" />
    <glyph glyph-name="exclamdown" unicode="&#xa1;" horiz-adv-x="526" 
d="M109 70q0 -47 11 -58.5t58 -11.5h168q47 0 58.5 11.5t11.5 58.5v778q0 47 -11.5 58.5t-58.5 11.5h-168q-47 0 -58 -11.5t-11 -58.5v-778zM109 1128q0 -49 11 -60t58 -11h168q47 0 58.5 11t11.5 60v166q0 49 -11.5 60.5t-58.5 11.5h-168q-47 0 -58 -11.5t-11 -60.5v-166z
" />
    <glyph glyph-name="cent" unicode="&#xa2;" horiz-adv-x="1161" 
d="M117 680q0 158 95 285t247 170v122q0 49 11 60.5t58 11.5h103q47 0 58 -11t11 -61v-116q61 -20 125 -76q0 37 19 47q12 6 53 6h43q49 0 60.5 -11t11.5 -58v-209q0 -49 -11.5 -60.5t-60.5 -11.5h-166q-49 0 -63 18q-47 59 -121 60q-68 0 -115 -48t-47 -116q0 -70 47 -114
t121 -44q59 0 102 43q12 12 58 13h200q70 0 70 -41q0 -33 -31.5 -88.5t-72.5 -92.5q-85 -80 -222 -129v-118q0 -47 -11 -58.5t-58 -11.5h-103q-47 0 -58 11t-11 59v131q-152 39 -247 160.5t-95 277.5z" />
    <glyph glyph-name="sterling" unicode="&#xa3;" horiz-adv-x="1161" 
d="M49 606v101q0 49 11.5 60t60.5 11h10q-45 98 -45 197q0 180 112.5 297t284.5 117q106 0 176 -68q4 31 23 39q10 6 47 6h162q49 0 60.5 -11.5t11.5 -60.5v-266q0 -49 -11.5 -60.5t-60.5 -11.5h-166q-47 0 -56.5 8.5t-19.5 59.5q-16 88 -104 88q-53 0 -86 -41t-33 -110
q0 -88 57 -183h195q47 0 58.5 -11t11.5 -60v-101q0 -49 -11.5 -60t-58.5 -11h-41q47 -76 47 -136q0 -78 -78 -139h78q78 0 109.5 36t31.5 85q-10 45 -10 49q0 43 70 43h145q57 0 72 -33q10 -25 10 -88q0 -188 -166 -286q-111 -66 -313 -66h-492q-47 0 -58 11.5t-11 60.5v116
q0 49 11 60.5t58 11.5h72q129 0 129 107q0 72 -66 168h-155q-49 0 -60.5 11t-11.5 60z" />
    <glyph glyph-name="yen" unicode="&#xa5;" horiz-adv-x="1347" 
d="M96 72v166q0 49 11.5 60t58.5 11h170q47 0 58.5 -11t11.5 -60v-166q0 -49 -11.5 -60.5t-58.5 -11.5h-170q-47 0 -58.5 11.5t-11.5 60.5zM539 72v166q0 49 11 60t58 11h170q47 0 58.5 -11t11.5 -60v-166q0 -49 -11.5 -60.5t-58.5 -11.5h-170q-47 0 -58 11.5t-11 60.5z
M983 72v166q0 49 11.5 60t58.5 11h170q47 0 58 -11t11 -60v-166q0 -49 -11 -60.5t-58 -11.5h-170q-47 0 -58.5 11.5t-11.5 60.5z" />
    <glyph glyph-name="section" unicode="&#xa7;" horiz-adv-x="1161" 
d="M151 29q-1 43 69 43h168q59 0 76 -43l20 -78q25 -43 109 -43q121 0 121 115q0 68 -64 96q-8 4 -149 53q-319 111 -320 360q0 150 129 267q-123 92 -123 235q0 156 112 257.5t282 101.5q164 0 277.5 -95.5t113.5 -232.5q0 -37 -19 -49q-10 -6 -51 -6h-137q-41 0 -53.5 6
t-18.5 31q-23 80 -104 79q-92 0 -92 -92q0 -49 32 -76q18 -14 80 -36q199 -72 287 -163t88 -224q0 -152 -125 -242q154 -90 154 -264q0 -180 -115 -283.5t-315 -103.5q-195 0 -313.5 106.5t-118.5 280.5zM474 535q0 -43 32 -73t79 -30t79.5 31t32.5 76q0 41 -32.5 70.5
t-77.5 29.5q-47 0 -80 -30.5t-33 -73.5z" />
    <glyph glyph-name="dieresis" unicode="&#xa8;" 
d="M332 614v516h516v-516h-516zM848 98v516h516v-516h-516z" />
    <glyph glyph-name="copyright" unicode="&#xa9;" 
d="M332 614v516h516v-516h-516zM848 98v516h516v-516h-516z" />
    <glyph glyph-name="ordfeminine" unicode="&#xaa;" 
d="M332 614v516h516v-516h-516zM848 98v516h516v-516h-516z" />
    <glyph glyph-name="guillemotleft" unicode="&#xab;" 
d="M332 614v516h516v-516h-516zM848 98v516h516v-516h-516z" />
    <glyph glyph-name="logicalnot" unicode="&#xac;" 
d="M332 614v516h516v-516h-516zM848 98v516h516v-516h-516z" />
    <glyph glyph-name="uni00AD" unicode="&#xad;" horiz-adv-x="520" 
d="M0 449v155q0 49 11.5 60.5t58.5 11.5h381q47 0 58 -11.5t11 -60.5v-155q0 -49 -11 -60.5t-58 -11.5h-381q-47 0 -58.5 11t-11.5 61z" />
    <glyph glyph-name="registered" unicode="&#xae;" 
d="M332 614v516h516v-516h-516zM848 98v516h516v-516h-516z" />
    <glyph glyph-name="macron" unicode="&#xaf;" horiz-adv-x="1024" 
d="M164 1313v51q0 47 11 58.5t58 11.5h558q47 0 58 -11.5t11 -58.5v-51q0 -47 -11 -58.5t-58 -11.5h-558q-47 0 -58 11.5t-11 58.5z" />
    <glyph glyph-name="degree" unicode="&#xb0;" 
d="M332 614v516h516v-516h-516zM848 98v516h516v-516h-516z" />
    <glyph glyph-name="plusminus" unicode="&#xb1;" horiz-adv-x="8761" 
d="M45 72v137q0 49 11.5 60.5t58.5 11.5h61v804h-61q-47 0 -58.5 11.5t-11.5 60.5v137q0 49 11.5 60.5t58.5 11.5h555q221 0 325.5 -91t104.5 -255q0 -205 -172 -289q223 -94 223 -336q0 -180 -115.5 -287.5t-343.5 -107.5h-577q-47 0 -58.5 11.5t-11.5 60.5zM514 295h107
q100 0 144 31.5t44 105.5q0 139 -174 139h-121v-276zM514 842h107q94 0 132 26.5t38 89.5q0 66 -38 92.5t-132 26.5h-107v-235zM1180 72v137q0 49 11 60.5t58 11.5h62v804h-62q-47 0 -58 11.5t-11 60.5v137q0 49 11 60.5t58 11.5h899q49 0 60.5 -11.5t11.5 -60.5v-307
q0 -49 -11 -60.5t-61 -11.5h-196q-47 0 -58.5 11.5t-11.5 60.5v78h-233v-244h245q47 0 58.5 -11t11.5 -58v-121q0 -47 -11 -58.5t-59 -11.5h-245v-260h233v78q0 49 11.5 60.5t58.5 11.5h196q49 0 60.5 -11.5t11.5 -60.5v-307q0 -49 -11 -60.5t-61 -11.5h-899q-47 0 -58 11.5
t-11 60.5zM2900 72v137q0 49 11 60.5t59 11.5h61v804h-61q-47 0 -58.5 11.5t-11.5 60.5v137q0 49 11 60.5t59 11.5h540q264 0 399.5 -129t135.5 -348q0 -158 -78 -269.5t-207 -138.5l168 -200h68q47 0 58 -11.5t11 -60.5v-137q0 -49 -11 -60.5t-58 -11.5h-234q-51 0 -74 33
l-6 10l-24 35l-289 424v-221h16q47 0 58.5 -11.5t11.5 -60.5v-137q0 -49 -11.5 -60.5t-58.5 -11.5h-415q-47 0 -58.5 11.5t-11.5 60.5zM3369 670h106q106 0 167 54t61 148q0 90 -50.5 141.5t-138.5 51.5h-145v-395zM4127 72v137q0 49 11 60.5t58 11.5h62v804h-62
q-47 0 -58 11.5t-11 60.5v137q0 49 11 60.5t58 11.5h461q47 0 58.5 -11.5t11.5 -60.5v-137q0 -49 -11.5 -60.5t-58.5 -11.5h-61v-804h61q47 0 58.5 -11.5t11.5 -60.5v-137q0 -49 -11.5 -60.5t-58.5 -11.5h-461q-47 0 -58 11.5t-11 60.5zM4682 684q0 295 204.5 502t497.5 207
q113 0 190.5 -26t190.5 -101v28q0 49 11.5 60.5t58.5 11.5h137q47 0 58.5 -11.5t11.5 -60.5v-303q0 -47 -11.5 -58t-58.5 -11h-254q-47 0 -66 22q-96 111 -256 111q-162 0 -267 -104.5t-105 -264.5t107.5 -268.5t264.5 -108.5q201 0 302 174h-322q-47 0 -58.5 11.5
t-11.5 60.5v141q0 49 11.5 60.5t58.5 11.5h627q47 0 58 -11.5t11 -60.5v-626q0 -47 -11 -58.5t-58 -11.5h-138q-47 0 -58 11.5t-11 58.5v71q-139 -168 -408 -168q-295 0 -500.5 207t-205.5 504zM6134 72v137q0 49 11 60.5t58 11.5h62v804h-62q-47 0 -58 11.5t-11 60.5v137
q0 49 11 60.5t58 11.5h461q47 0 58.5 -11.5t11.5 -60.5v-137q0 -49 -11.5 -60.5t-58.5 -11.5h-61v-235h428v235h-60q-47 0 -58 11.5t-11 60.5v137q0 49 11 60.5t58 11.5h459q47 0 58.5 -11.5t11.5 -60.5v-137q0 -49 -11.5 -60.5t-58.5 -11.5h-61v-804h61q47 0 58.5 -11.5
t11.5 -60.5v-137q0 -49 -11.5 -60.5t-58.5 -11.5h-459q-47 0 -58 11.5t-11 60.5v137q0 49 11 60.5t58 11.5h60v251h-428v-251h61q47 0 58.5 -11.5t11.5 -60.5v-137q0 -49 -11.5 -60.5t-58.5 -11.5h-461q-47 0 -58 11.5t-11 60.5zM7557 967v329q0 47 11.5 58.5t58.5 11.5
h1005q47 0 58.5 -11.5t11.5 -58.5v-329q0 -49 -11.5 -60.5t-58.5 -11.5h-127q-47 0 -58 11.5t-11 60.5v98h-138v-784h62q47 0 58.5 -11.5t11.5 -60.5v-137q0 -49 -11.5 -60.5t-58.5 -11.5h-461q-47 0 -58 11.5t-11 60.5v137q0 49 11 60.5t58 11.5h62v784h-138v-98
q0 -49 -11 -60.5t-58 -11.5h-127q-47 0 -58.5 11.5t-11.5 60.5z" />
    <glyph glyph-name="acute" unicode="&#xb4;" 
d="M332 614v516h516v-516h-516zM848 98v516h516v-516h-516z" />
    <glyph glyph-name="uni00B5" unicode="&#xb5;" 
d="M332 614v516h516v-516h-516zM848 98v516h516v-516h-516z" />
    <glyph glyph-name="paragraph" unicode="&#xb6;" 
d="M332 614v516h516v-516h-516zM848 98v516h516v-516h-516z" />
    <glyph glyph-name="periodcentered" unicode="&#xb7;" horiz-adv-x="501" 
d="M96 442v166q0 49 11.5 60.5t58.5 11.5h170q47 0 58.5 -11.5t11.5 -60.5v-166q0 -49 -11.5 -60t-58.5 -11h-170q-47 0 -58.5 11t-11.5 60z" />
    <glyph glyph-name="cedilla" unicode="&#xb8;" horiz-adv-x="1024" 
d="M340 -348q0 41 68 41h22q39 0 49 -4t21.5 -25.5t44.5 -21.5q59 0 59 57q0 59 -61 59q-20 0 -31.5 -9t-28.5 -9q-14 0 -43 14l-12 6q-49 25 -49 47q0 12 14 46l64 147h164l-50 -104q188 -25 189 -195q0 -90 -61.5 -151.5t-151.5 -61.5q-78 0 -142.5 51t-64.5 113z" />
    <glyph glyph-name="ordmasculine" unicode="&#xba;" 
d="M332 614v516h516v-516h-516zM848 98v516h516v-516h-516z" />
    <glyph glyph-name="guillemotright" unicode="&#xbb;" 
d="M332 614v516h516v-516h-516zM848 98v516h516v-516h-516z" />
    <glyph glyph-name="questiondown" unicode="&#xbf;" horiz-adv-x="1044" 
d="M360 1155q0 -47 11.5 -58.5t60.5 -11.5h160q49 0 60.5 11.5t11.5 58.5v168q0 47 -11.5 58.5t-60.5 11.5h-160q-49 0 -60.5 -11.5t-11.5 -58.5v-168zM904 493h-176q-63 1 -69 -36q-19 -131 -144 -131q-60 0 -101 43t-41 102q-1 51 35 98q15 21 75 78q107 102 143 161.5
t36 133.5q0 45 -71 45h-166q-60 0 -69 -31q-18 -64 -142 -170q-161 -137 -161 -317q0 -193 136.5 -329t329.5 -136q178 0 316 134t138 310q0 45 -69 45z" />
    <glyph glyph-name="Agrave" unicode="&#xc0;" horiz-adv-x="1398" 
d="M-14 70v139q0 49 11 60.5t60 11.5h60l334 804h-62q-47 0 -58.5 11.5t-11.5 60.5v137q0 49 11.5 60.5t58.5 11.5h395q43 0 52.5 -6t25.5 -47l418 -1032h61q47 0 58.5 -11.5t11.5 -60.5v-139q0 -47 -11 -58.5t-59 -11.5h-483q-47 0 -58.5 11.5t-11.5 58.5v104
q0 47 11.5 58.5t58.5 11.5h60l-41 125h-381l-37 -125h59q47 0 58.5 -11.5t11.5 -58.5v-104q0 -47 -11.5 -58.5t-58.5 -11.5h-461q-49 0 -60 11.5t-11 58.5zM287 1597q0 10 6 39l33 148q12 59 45 59q10 0 41 -8l448 -127q59 -16 60 -45q0 -12 -3.5 -21.5t-3.5 -17.5l-20 -94
q-14 -61 -45 -62q-14 0 -37 5l-463 81q-61 10 -61 43zM578 625h217l-109 346z" />
    <glyph glyph-name="Aacute" unicode="&#xc1;" horiz-adv-x="1398" 
d="M-14 70v139q0 49 11 60.5t60 11.5h60l334 804h-62q-47 0 -58.5 11.5t-11.5 60.5v137q0 49 11.5 60.5t58.5 11.5h395q43 0 52.5 -6t25.5 -47l418 -1032h61q47 0 58.5 -11.5t11.5 -60.5v-139q0 -47 -11 -58.5t-59 -11.5h-483q-47 0 -58.5 11.5t-11.5 58.5v104
q0 47 11.5 58.5t58.5 11.5h60l-41 125h-381l-37 -125h59q47 0 58.5 -11.5t11.5 -58.5v-104q0 -47 -11.5 -58.5t-58.5 -11.5h-461q-49 0 -60 11.5t-11 58.5zM422 1663q0 29 57 45l451 127q29 8 41 8q31 0 43 -59l33 -148q2 -4 5 -15t3 -24q0 -33 -64 -43l-463 -81
q-23 -4 -36 -5q-34 1 -46 62l-18 94q-6 31 -6 39zM578 625h217l-109 346z" />
    <glyph glyph-name="Acircumflex" unicode="&#xc2;" horiz-adv-x="1398" 
d="M-14 70v139q0 49 11 60.5t60 11.5h60l334 804h-62q-47 0 -58.5 11.5t-11.5 60.5v137q0 49 11.5 60.5t58.5 11.5h395q43 0 52.5 -6t25.5 -47l418 -1032h61q47 0 58.5 -11.5t11.5 -60.5v-139q0 -47 -11 -58.5t-59 -11.5h-483q-47 0 -58.5 11.5t-11.5 58.5v104
q0 47 11.5 58.5t58.5 11.5h60l-41 125h-381l-37 -125h59q47 0 58.5 -11.5t11.5 -58.5v-104q0 -47 -11.5 -58.5t-58.5 -11.5h-461q-49 0 -60 11.5t-11 58.5zM252 1532q0 16 35 49l219 201q6 8 14 12q18 18 64 18h172q45 0 63 -18q10 -4 15 -12l219 -201q35 -33 34 -49
q0 -43 -71 -43h-180q-39 0 -45.5 3t-32.5 30l-88 90l-88 -90q-4 -6 -13 -13q-18 -20 -65 -20h-180q-72 0 -72 43zM578 625h217l-109 346z" />
    <glyph glyph-name="Atilde" unicode="&#xc3;" horiz-adv-x="1398" 
d="M-14 70v139q0 49 11 60.5t60 11.5h60l334 804h-62q-47 0 -58.5 11.5t-11.5 60.5v137q0 49 11.5 60.5t58.5 11.5h395q43 0 52.5 -6t25.5 -47l418 -1032h61q47 0 58.5 -11.5t11.5 -60.5v-139q0 -47 -11 -58.5t-59 -11.5h-483q-47 0 -58.5 11.5t-11.5 58.5v104
q0 47 11.5 58.5t58.5 11.5h60l-41 125h-381l-37 -125h59q47 0 58.5 -11.5t11.5 -58.5v-104q0 -47 -11.5 -58.5t-58.5 -11.5h-461q-49 0 -60 11.5t-11 58.5zM236 1696q0 33 59 55.5t147 22.5q72 0 185 -23q100 -20 153 -20q78 0 135 24q14 6 21 6q20 0 39 -22q4 -3 12 -15
l62 -73q29 -35 28 -47q0 -27 -22 -39q-86 -49 -207 -49q-72 0 -219 32q-66 14 -101 15q-70 0 -118 -31q-10 -6 -23 -6q-18 0 -49 35l-74 86q-29 33 -28 49zM578 625h217l-109 346z" />
    <glyph glyph-name="Adieresis" unicode="&#xc4;" horiz-adv-x="1398" 
d="M-14 70v139q0 49 11 60.5t60 11.5h60l334 804h-62q-47 0 -58.5 11.5t-11.5 60.5v137q0 49 11.5 60.5t58.5 11.5h395q43 0 52.5 -6t25.5 -47l418 -1032h61q47 0 58.5 -11.5t11.5 -60.5v-139q0 -47 -11 -58.5t-59 -11.5h-483q-47 0 -58.5 11.5t-11.5 58.5v104
q0 47 11.5 58.5t58.5 11.5h60l-41 125h-381l-37 -125h59q47 0 58.5 -11.5t11.5 -58.5v-104q0 -47 -11.5 -58.5t-58.5 -11.5h-461q-49 0 -60 11.5t-11 58.5zM272 1569v157q0 47 11.5 58.5t58.5 11.5h174q47 0 58.5 -11.5t11.5 -58.5v-157q0 -47 -11.5 -58.5t-58.5 -11.5h-174
q-47 0 -58.5 11.5t-11.5 58.5zM578 625h217l-109 346zM700 1569v157q0 47 11.5 58.5t58.5 11.5h174q47 0 58.5 -11.5t11.5 -58.5v-157q0 -47 -11.5 -58.5t-58.5 -11.5h-174q-47 0 -58.5 11.5t-11.5 58.5z" />
    <glyph glyph-name="Aring" unicode="&#xc5;" horiz-adv-x="1398" 
d="M-14 70v139q0 49 11 60.5t60 11.5h60l334 804h-62q-47 0 -58.5 11.5t-11.5 60.5v137q0 49 11.5 60.5t58.5 11.5h395q43 0 52.5 -6t25.5 -47l418 -1032h61q47 0 58.5 -11.5t11.5 -60.5v-139q0 -47 -11 -58.5t-59 -11.5h-483q-47 0 -58.5 11.5t-11.5 58.5v104
q0 47 11.5 58.5t58.5 11.5h60l-41 125h-381l-37 -125h59q47 0 58.5 -11.5t11.5 -58.5v-104q0 -47 -11.5 -58.5t-58.5 -11.5h-461q-49 0 -60 11.5t-11 58.5zM440 1686q0 98 70 167.5t168 69.5t167.5 -69.5t69.5 -167.5t-69.5 -168t-167.5 -70t-168 69.5t-70 168.5zM578 625
h217l-109 346zM602 1686q0 -31 22.5 -53.5t53.5 -22.5q33 0 54.5 22.5t21.5 55.5q0 31 -21.5 52t-54.5 21q-31 0 -53.5 -22.5t-22.5 -52.5z" />
    <glyph glyph-name="AE" unicode="&#xc6;" horiz-adv-x="1812" 
d="M-41 72v137q0 49 11.5 60.5t58.5 11.5h67l543 804h-55q-49 0 -60.5 11.5t-11.5 60.5v137q0 49 11.5 60.5t60.5 11.5h1104q49 0 60 -11.5t11 -60.5v-307q0 -49 -11 -60.5t-60 -11.5h-197q-47 0 -58.5 11.5t-11.5 60.5v78h-239v-244h243q47 0 58.5 -11t11.5 -58v-119
q0 -49 -11 -60.5t-59 -11.5h-243v-260h239v80q0 47 11.5 58.5t58.5 11.5h197q49 0 60 -11.5t11 -58.5v-309q0 -49 -11 -60.5t-60 -11.5h-906q-47 0 -58 11.5t-11 60.5v92q0 49 11 60.5t58 11.5h62v135h-340l-84 -135h63q49 0 60.5 -11.5t11.5 -60.5v-92q0 -49 -11.5 -60.5
t-60.5 -11.5h-454q-47 0 -58.5 11.5t-11.5 60.5zM651 614h193v318z" />
    <glyph glyph-name="Ccedilla" unicode="&#xc7;" horiz-adv-x="1480" 
d="M55 690q0 287 204 495t486 208q231 0 383 -150v51q0 49 11.5 60.5t58.5 11.5h137q47 0 58.5 -11.5t11.5 -60.5v-360q0 -47 -11.5 -58.5t-58.5 -11.5h-200q-55 0 -70 27q-41 70 -129 117t-180 47q-154 0 -256.5 -102.5t-102.5 -258.5q0 -160 106.5 -272.5t258.5 -112.5
q199 0 307 178q12 20 64 21h229q70 0 70 -41q0 -33 -42 -107.5t-90 -130.5q-198 -229 -485 -254l-39 -86q184 -18 185 -186q0 -88 -61.5 -150.5t-149.5 -62.5q-74 0 -136.5 49t-62.5 107q0 43 65 43h23q39 0 48 -4t21.5 -24.5t45.5 -20.5q55 0 55 55q0 25 -18.5 43t-42.5 18
q-16 0 -37 -14q-2 -2 -11 -4h-6q-10 0 -43 14l-14 6q-51 23 -51 47q0 10 14 43l59 134q-266 45 -435 243.5t-169 464.5z" />
    <glyph glyph-name="Egrave" unicode="&#xc8;" horiz-adv-x="1169" 
d="M74 72v137q0 49 11 60.5t58 11.5h62v804h-62q-47 0 -58 11.5t-11 60.5v137q0 49 11 60.5t58 11.5h899q49 0 60.5 -11.5t11.5 -60.5v-307q0 -49 -11 -60.5t-61 -11.5h-196q-47 0 -58.5 11.5t-11.5 60.5v78h-233v-244h245q47 0 58.5 -11t11.5 -58v-121q0 -47 -11 -58.5
t-59 -11.5h-245v-260h233v78q0 49 11.5 60.5t58.5 11.5h196q49 0 60.5 -11.5t11.5 -60.5v-307q0 -49 -11 -60.5t-61 -11.5h-899q-47 0 -58 11.5t-11 60.5zM227 1597q0 10 6 39l33 148q12 59 45 59q10 0 41 -8l449 -127q59 -16 59 -45q0 -12 -3 -21.5t-3 -17.5l-20 -94
q-14 -61 -46 -62q-14 0 -36 5l-463 81q-61 10 -62 43z" />
    <glyph glyph-name="Eacute" unicode="&#xc9;" horiz-adv-x="1169" 
d="M74 72v137q0 49 11 60.5t58 11.5h62v804h-62q-47 0 -58 11.5t-11 60.5v137q0 49 11 60.5t58 11.5h899q49 0 60.5 -11.5t11.5 -60.5v-307q0 -49 -11 -60.5t-61 -11.5h-196q-47 0 -58.5 11.5t-11.5 60.5v78h-233v-244h245q47 0 58.5 -11t11.5 -58v-121q0 -47 -11 -58.5
t-59 -11.5h-245v-260h233v78q0 49 11.5 60.5t58.5 11.5h196q49 0 60.5 -11.5t11.5 -60.5v-307q0 -49 -11 -60.5t-61 -11.5h-899q-47 0 -58 11.5t-11 60.5zM362 1663q0 29 58 45l450 127q29 8 41 8q31 0 43 -59l33 -148q2 -4 5 -15t3 -24q0 -33 -63 -43l-463 -81
q-23 -4 -37 -5q-33 1 -45 62l-18 94q-6 31 -7 39z" />
    <glyph glyph-name="Ecircumflex" unicode="&#xca;" horiz-adv-x="1169" 
d="M74 72v137q0 49 11 60.5t58 11.5h62v804h-62q-47 0 -58 11.5t-11 60.5v137q0 49 11 60.5t58 11.5h899q49 0 60.5 -11.5t11.5 -60.5v-307q0 -49 -11 -60.5t-61 -11.5h-196q-47 0 -58.5 11.5t-11.5 60.5v78h-233v-244h245q47 0 58.5 -11t11.5 -58v-121q0 -47 -11 -58.5
t-59 -11.5h-245v-260h233v78q0 49 11.5 60.5t58.5 11.5h196q49 0 60.5 -11.5t11.5 -60.5v-307q0 -49 -11 -60.5t-61 -11.5h-899q-47 0 -58 11.5t-11 60.5zM193 1532q0 16 34 49l219 201q6 8 15 12q18 18 63 18h172q45 0 64 -18q10 -4 14 -12l219 -201q35 -33 35 -49
q0 -43 -72 -43h-180q-39 0 -45 3t-33 30l-88 90l-88 -90q-4 -6 -12 -13q-18 -20 -66 -20h-180q-72 0 -71 43z" />
    <glyph glyph-name="Edieresis" unicode="&#xcb;" horiz-adv-x="1169" 
d="M74 72v137q0 49 11 60.5t58 11.5h62v804h-62q-47 0 -58 11.5t-11 60.5v137q0 49 11 60.5t58 11.5h899q49 0 60.5 -11.5t11.5 -60.5v-307q0 -49 -11 -60.5t-61 -11.5h-196q-47 0 -58.5 11.5t-11.5 60.5v78h-233v-244h245q47 0 58.5 -11t11.5 -58v-121q0 -47 -11 -58.5
t-59 -11.5h-245v-260h233v78q0 49 11.5 60.5t58.5 11.5h196q49 0 60.5 -11.5t11.5 -60.5v-307q0 -49 -11 -60.5t-61 -11.5h-899q-47 0 -58 11.5t-11 60.5zM240 1569v157q0 47 11 58.5t58 11.5h174q47 0 58.5 -11.5t11.5 -58.5v-157q0 -47 -10.5 -58.5t-59.5 -11.5h-174
q-47 0 -58 11.5t-11 58.5zM668 1569v157q0 47 11 58.5t58 11.5h174q47 0 58.5 -11.5t11.5 -58.5v-157q0 -47 -11.5 -58.5t-58.5 -11.5h-174q-47 0 -58 11.5t-11 58.5z" />
    <glyph glyph-name="Igrave" unicode="&#xcc;" horiz-adv-x="747" 
d="M-10 1597q0 10 6 39l33 148q12 59 45 59q10 0 41 -8l448 -127q59 -16 60 -45q0 -12 -3.5 -21.5t-3.5 -17.5l-20 -94q-14 -61 -45 -62q-14 0 -37 5l-463 81q-61 10 -61 43zM74 72v137q0 49 11 60.5t58 11.5h62v804h-62q-47 0 -58 11.5t-11 60.5v137q0 49 11 60.5t58 11.5
h461q47 0 58.5 -11.5t11.5 -60.5v-137q0 -49 -11.5 -60.5t-58.5 -11.5h-61v-804h61q47 0 58.5 -11.5t11.5 -60.5v-137q0 -49 -11.5 -60.5t-58.5 -11.5h-461q-47 0 -58 11.5t-11 60.5z" />
    <glyph glyph-name="Iacute" unicode="&#xcd;" horiz-adv-x="747" 
d="M74 72v137q0 49 11 60.5t58 11.5h62v804h-62q-47 0 -58 11.5t-11 60.5v137q0 49 11 60.5t58 11.5h461q47 0 58.5 -11.5t11.5 -60.5v-137q0 -49 -11.5 -60.5t-58.5 -11.5h-61v-804h61q47 0 58.5 -11.5t11.5 -60.5v-137q0 -49 -11.5 -60.5t-58.5 -11.5h-461q-47 0 -58 11.5
t-11 60.5zM125 1663q0 29 57 45l451 127q29 8 41 8q31 0 43 -59l33 -148q2 -4 5 -15t3 -24q0 -33 -64 -43l-463 -81q-23 -4 -36 -5q-33 1 -45 62l-19 94q-6 31 -6 39z" />
    <glyph glyph-name="Icircumflex" unicode="&#xce;" horiz-adv-x="747" 
d="M-47 1532q0 16 35 49l219 201q6 8 14 12q18 18 64 18h172q45 0 63 -18q10 -4 15 -12l219 -201q35 -33 34 -49q0 -43 -71 -43h-180q-39 0 -45.5 3t-32.5 30l-88 90l-88 -90q-4 -6 -13 -13q-18 -20 -65 -20h-180q-72 0 -72 43zM72 72v137q0 49 11 60.5t58 11.5h62v804h-62
q-47 0 -58 11.5t-11 60.5v137q0 49 11 60.5t58 11.5h461q47 0 58.5 -11.5t11.5 -60.5v-137q0 -49 -11.5 -60.5t-58.5 -11.5h-61v-804h61q47 0 58.5 -11.5t11.5 -60.5v-137q0 -49 -11.5 -60.5t-58.5 -11.5h-461q-47 0 -58 11.5t-11 60.5z" />
    <glyph glyph-name="Idieresis" unicode="&#xcf;" horiz-adv-x="747" 
d="M49 1569v157q0 47 11.5 58.5t58.5 11.5h133q47 0 58.5 -11.5t11.5 -58.5v-157q0 -47 -11.5 -58.5t-58.5 -11.5h-133q-47 0 -58.5 11.5t-11.5 58.5zM74 72v137q0 49 11 60.5t58 11.5h62v804h-62q-47 0 -58 11.5t-11 60.5v137q0 49 11 60.5t58 11.5h459q47 0 58.5 -11.5
t11.5 -60.5v-137q0 -49 -11.5 -60.5t-58.5 -11.5h-59v-804h59q47 0 58.5 -11.5t11.5 -60.5v-137q0 -49 -11.5 -60.5t-58.5 -11.5h-459q-47 0 -58 11.5t-11 60.5zM424 1569v157q0 47 11 58.5t59 11.5h133q47 0 58 -11.5t11 -58.5v-157q0 -47 -11 -58.5t-58 -11.5h-133
q-47 0 -58.5 11.5t-11.5 58.5z" />
    <glyph glyph-name="Ntilde" unicode="&#xd1;" horiz-adv-x="1554" 
d="M74 72v137q0 49 11 60.5t58 11.5h62v804h-62q-47 0 -58 11.5t-11 60.5v137q0 49 11 60.5t58 11.5h308q39 0 47 -4t30 -37l510 -725v485h-61q-47 0 -58.5 11.5t-11.5 60.5v137q0 49 11.5 60.5t58.5 11.5h461q47 0 58 -11.5t11 -60.5v-137q0 -49 -11 -60.5t-58 -11.5h-62
v-1013q0 -49 -11 -60.5t-60 -11.5h-185q-51 0 -69 25q-2 4 -11 16l-497 702v-462h61q47 0 58.5 -11.5t11.5 -60.5v-137q0 -49 -11.5 -60.5t-58.5 -11.5h-461q-47 0 -58 11.5t-11 60.5zM356 1696q0 33 59.5 55.5t147.5 22.5q72 0 185 -23q100 -20 153 -20q78 0 135 24
q14 6 21 6q20 0 39 -22q4 -3 12 -15l61 -73q29 -35 29 -47q0 -27 -22 -39q-86 -49 -207 -49q-72 0 -219 32q-66 14 -101 15q-70 0 -119 -31q-10 -6 -22 -6q-18 0 -49 35l-74 86q-29 33 -29 49z" />
    <glyph glyph-name="Ograve" unicode="&#xd2;" horiz-adv-x="1538" 
d="M55 682q0 293 210 502t505 209t504 -207t209 -498q0 -297 -209 -506t-506 -209q-295 0 -504 208t-209 501zM385 1597q0 10 6 39l33 148q12 59 45 59q10 0 41 -8l448 -127q59 -16 60 -45q0 -12 -3 -21.5t-3 -17.5l-21 -94q-14 -61 -45 -62q-14 0 -37 5l-463 81
q-61 10 -61 43zM397 684q0 -154 108.5 -263.5t264.5 -109.5q154 0 262.5 110.5t108.5 266.5q0 152 -108.5 259.5t-262.5 107.5q-156 0 -264.5 -108.5t-108.5 -262.5z" />
    <glyph glyph-name="Oacute" unicode="&#xd3;" horiz-adv-x="1538" 
d="M55 682q0 293 210 502t505 209t504 -207t209 -498q0 -297 -209 -506t-506 -209q-295 0 -504 208t-209 501zM397 684q0 -154 108.5 -263.5t264.5 -109.5q154 0 262.5 110.5t108.5 266.5q0 152 -108.5 259.5t-262.5 107.5q-156 0 -264.5 -108.5t-108.5 -262.5zM520 1663
q0 29 58 45l450 127q29 8 41 8q31 0 43 -59l33 -148q2 -4 5 -15t3 -24q0 -33 -63 -43l-463 -81q-23 -4 -37 -5q-33 1 -45 62l-19 94q-6 31 -6 39z" />
    <glyph glyph-name="Ocircumflex" unicode="&#xd4;" horiz-adv-x="1538" 
d="M55 682q0 293 210 502t505 209t504 -207t209 -498q0 -297 -209 -506t-506 -209q-295 0 -504 208t-209 501zM350 1532q0 16 35 49l219 201q6 8 14 12q18 18 64 18h172q45 0 64 -18q10 -4 14 -12l219 -201q35 -33 35 -49q0 -43 -72 -43h-180q-39 0 -45 3t-33 30l-88 90
l-88 -90q-4 -6 -12 -13q-18 -20 -66 -20h-180q-72 0 -72 43zM397 684q0 -154 108.5 -263.5t264.5 -109.5q154 0 262.5 110.5t108.5 266.5q0 152 -108.5 259.5t-262.5 107.5q-156 0 -264.5 -108.5t-108.5 -262.5z" />
    <glyph glyph-name="Otilde" unicode="&#xd5;" horiz-adv-x="1538" 
d="M55 682q0 293 210 502t505 209t504 -207t209 -498q0 -297 -209 -506t-506 -209q-295 0 -504 208t-209 501zM348 1696q0 33 59.5 55.5t147.5 22.5q72 0 184 -23q100 -20 154 -20q78 0 135 24q14 6 21 6q20 0 38 -22q5 -3 13 -15l61 -73q29 -35 29 -47q0 -27 -23 -39
q-86 -49 -206 -49q-72 0 -220 32q-66 14 -100 15q-70 0 -119 -31q-10 -6 -22 -6q-18 0 -49 35l-74 86q-29 33 -29 49zM397 684q0 -154 108.5 -263.5t264.5 -109.5q154 0 262.5 110.5t108.5 266.5q0 152 -108.5 259.5t-262.5 107.5q-156 0 -264.5 -108.5t-108.5 -262.5z" />
    <glyph glyph-name="Odieresis" unicode="&#xd6;" horiz-adv-x="1538" 
d="M55 682q0 293 210 502t505 209t504 -207t209 -498q0 -297 -209 -506t-506 -209q-295 0 -504 208t-209 501zM397 684q0 -154 108.5 -263.5t264.5 -109.5q154 0 262.5 110.5t108.5 266.5q0 152 -108.5 259.5t-262.5 107.5q-156 0 -264.5 -108.5t-108.5 -262.5zM399 1569
v157q0 47 11.5 58.5t58.5 11.5h174q47 0 58.5 -11.5t11.5 -58.5v-157q0 -47 -11.5 -58.5t-58.5 -11.5h-174q-47 0 -58.5 11.5t-11.5 58.5zM827 1569v157q0 47 11.5 58.5t58.5 11.5h174q47 0 58.5 -11.5t11.5 -58.5v-157q0 -47 -11.5 -58.5t-58.5 -11.5h-174
q-47 0 -58.5 11.5t-11.5 58.5z" />
    <glyph glyph-name="Oslash" unicode="&#xd8;" horiz-adv-x="1531" 
d="M55 674q0 301 209 510t512 209q100 0 174 -21q57 -18 162 -69l78 98q29 37 53 37q12 0 47 -27l76 -59q39 -31 39 -52q0 -20 -29 -49l-80 -96q100 -123 141.5 -230.5t41.5 -246.5q0 -297 -211 -501t-518 -204q-104 0 -177 21q-54 14 -165 67l-78 -96q-2 -4 -11 -14
q-18 -25 -40 -25q-12 0 -33 17q-6 4 -15 12l-71 57q-37 29 -37 51q0 16 27 50l79 96q-174 215 -174 465zM397 678q1 -107 60 -189l438 537q-57 29 -131 29q-152 0 -259.5 -110.5t-107.5 -266.5zM631 338q57 -27 141 -27q154 0 259.5 107.5t105.5 265.5q-1 129 -62 197z" />
    <glyph glyph-name="Ugrave" unicode="&#xd9;" horiz-adv-x="1378" 
d="M47 1137v159q0 47 11.5 58.5t60.5 11.5h426q47 0 58 -11.5t11 -60.5v-137q0 -49 -11 -60.5t-58 -11.5h-29v-593q0 -201 174 -201q172 0 172 201v593h-26q-47 0 -58.5 11.5t-11.5 60.5v137q0 49 11 60.5t59 11.5h424q49 0 60 -10t11 -60v-159q0 -35 -15.5 -43.5
t-53.5 -8.5h-62v-628q0 -227 -135 -355.5t-375 -128.5q-242 0 -377 127t-135 357v628h-61q-49 0 -59.5 12.5t-10.5 39.5zM305 1597q0 10 6 39l33 148q12 59 45 59q10 0 41 -8l449 -127q59 -16 59 -45q0 -12 -3 -21.5t-3 -17.5l-21 -94q-14 -61 -45 -62q-14 0 -37 5l-462 81
q-61 10 -62 43z" />
    <glyph glyph-name="Uacute" unicode="&#xda;" horiz-adv-x="1378" 
d="M47 1137v159q0 47 11.5 58.5t60.5 11.5h426q47 0 58 -11.5t11 -60.5v-137q0 -49 -11 -60.5t-58 -11.5h-29v-593q0 -201 174 -201q172 0 172 201v593h-26q-47 0 -58.5 11.5t-11.5 60.5v137q0 49 11 60.5t59 11.5h424q49 0 60 -10t11 -60v-159q0 -35 -15.5 -43.5
t-53.5 -8.5h-62v-628q0 -227 -135 -355.5t-375 -128.5q-242 0 -377 127t-135 357v628h-61q-49 0 -59.5 12.5t-10.5 39.5zM440 1663q0 29 58 45l450 127q29 8 41 8q31 0 43 -59l33 -148q2 -4 5 -15t3 -24q0 -33 -63 -43l-463 -81q-23 -4 -37 -5q-33 1 -45 62l-19 94
q-6 31 -6 39z" />
    <glyph glyph-name="Ucircumflex" unicode="&#xdb;" horiz-adv-x="1378" 
d="M47 1137v159q0 47 11.5 58.5t60.5 11.5h426q47 0 58 -11.5t11 -60.5v-137q0 -49 -11 -60.5t-58 -11.5h-29v-593q0 -201 174 -201q172 0 172 201v593h-26q-47 0 -58.5 11.5t-11.5 60.5v137q0 49 11 60.5t59 11.5h424q49 0 60 -10t11 -60v-159q0 -35 -15.5 -43.5
t-53.5 -8.5h-62v-628q0 -227 -135 -355.5t-375 -128.5q-242 0 -377 127t-135 357v628h-61q-49 0 -59.5 12.5t-10.5 39.5zM270 1532q0 16 35 49l219 201q6 8 15 12q18 18 63 18h172q45 0 64 -18q10 -4 14 -12l219 -201q35 -33 35 -49q0 -43 -72 -43h-180q-39 0 -45 3t-33 30
l-88 90l-88 -90q-4 -6 -12 -13q-18 -20 -66 -20h-180q-72 0 -72 43z" />
    <glyph glyph-name="Udieresis" unicode="&#xdc;" horiz-adv-x="1378" 
d="M47 1137v159q0 47 11.5 58.5t60.5 11.5h426q47 0 58 -11.5t11 -60.5v-137q0 -49 -11 -60.5t-58 -11.5h-29v-593q0 -201 174 -201q172 0 172 201v593h-26q-47 0 -58.5 11.5t-11.5 60.5v137q0 49 11 60.5t59 11.5h424q49 0 60 -10t11 -60v-159q0 -35 -15.5 -43.5
t-53.5 -8.5h-62v-628q0 -227 -135 -355.5t-375 -128.5q-242 0 -377 127t-135 357v628h-61q-49 0 -59.5 12.5t-10.5 39.5zM317 1569v157q0 47 11.5 58.5t58.5 11.5h174q47 0 58.5 -11.5t11.5 -58.5v-157q0 -47 -11.5 -58.5t-58.5 -11.5h-174q-47 0 -58.5 11.5t-11.5 58.5z
M745 1569v157q0 47 11.5 58.5t58.5 11.5h174q47 0 58.5 -11.5t11.5 -58.5v-157q0 -47 -11.5 -58.5t-58.5 -11.5h-174q-47 0 -58.5 11.5t-11.5 58.5z" />
    <glyph glyph-name="Yacute" unicode="&#xdd;" horiz-adv-x="1216" 
d="M-168 2032v516h516v-516h-516zM-14 1157v137q0 49 11 60.5t58 11.5h420q47 0 58.5 -11.5t11.5 -60.5v-137q0 -49 -11.5 -60.5t-58.5 -11.5h-26l157 -321l168 321h-31q-47 0 -58 11.5t-11 60.5v137q0 49 11 60.5t58 11.5h416q47 0 58.5 -11.5t11.5 -60.5v-137
q0 -49 -11.5 -60.5t-58.5 -11.5h-49l-336 -598v-206h62q47 0 58 -11.5t11 -60.5v-137q0 -49 -11 -60.5t-58 -11.5h-461q-47 0 -58.5 11.5t-11.5 60.5v137q0 49 11.5 60.5t58.5 11.5h61v206l-330 598h-51q-47 0 -58 11.5t-11 60.5zM348 1516v516h516v-516h-516z" />
    <glyph glyph-name="germandbls" unicode="&#xdf;" horiz-adv-x="1251" 
d="M63 72v137q0 49 11.5 60.5t58.5 11.5h39v616q0 217 133 358.5t336 141.5q180 0 298 -110.5t118 -278.5q0 -172 -123 -246q264 -74 264 -371q0 -188 -118.5 -305t-309.5 -117q-133 0 -178 29q-18 12 -19 63v136q0 72 43 71q6 0 27 -6t55 -6q193 0 193 156q0 174 -252 178
q-45 0 -55.5 11t-10.5 58v125q0 68 43 70q133 8 134 127q0 51 -36 85t-91 34q-147 0 -148 -203v-825q0 -49 -11 -60.5t-58 -11.5h-273q-47 0 -58.5 11.5t-11.5 60.5z" />
    <glyph glyph-name="agrave" unicode="&#xe0;" horiz-adv-x="4816" 
d="M74 72v137q0 49 11 60.5t58 11.5h82v804h-82q-47 0 -58 11.5t-11 60.5v137q0 49 11 60.5t58 11.5h308q39 0 52 -12.5t25 -28.5l510 -745v505h-61q-47 0 -58.5 11.5t-11.5 60.5v137q0 49 11.5 60.5t58.5 11.5h461q47 0 58 -11.5t11 -60.5v-137q0 -49 -11 -60.5t-58 -11.5
h-82v-1013q0 -49 -12.5 -60.5t-59.5 -11.5h-164q-43 0 -74.5 39t-39.5 53l-463 672v-483h61q47 0 58.5 -11.5t11.5 -60.5v-137q0 -49 -11.5 -60.5t-58.5 -11.5h-461q-47 0 -58 11.5t-11 60.5zM1561 72v137q0 49 11 60.5t58 11.5h62v804h-62q-47 0 -58 11.5t-11 60.5v137
q0 49 11 60.5t58 11.5h899q49 0 60.5 -11.5t11.5 -60.5v-307q0 -49 -11.5 -60.5t-60.5 -11.5h-196q-47 0 -58.5 11.5t-11.5 60.5v78h-233v-244h245q47 0 58.5 -11t11.5 -58v-121q0 -47 -11.5 -58.5t-58.5 -11.5h-245v-260h233v78q0 49 11.5 60.5t58.5 11.5h196
q49 0 60.5 -11.5t11.5 -60.5v-307q0 -49 -11.5 -60.5t-60.5 -11.5h-899q-47 0 -58 11.5t-11 60.5zM2652 1157q0 -49 11.5 -60.5t58.5 -11.5h104v-1011q0 -49 11.5 -60.5t62.5 -13.5h176q51 0 62 6q25 12 40 37l478 750v-719q0 -49 18.5 -61.5t56.5 -12.5h193q39 2 49 8
q27 8 43 35l666 1042h67q47 0 58.5 11.5t11.5 60.5v137q0 49 -11.5 60.5t-58.5 11.5h-454q-49 0 -60.5 -11.5t-11.5 -60.5v-92q0 -49 11.5 -60.5t60.5 -11.5h63l-424 -696v860q0 49 -10 60.5t-59 11.5h-150q-14 -2 -27 -6q-29 -8 -43 -33l-538 -893v696h61q47 0 58.5 11.5
t11.5 60.5v92q0 49 -11.5 60.5t-58.5 11.5h-446q-47 0 -58.5 -11.5t-11.5 -60.5v-137z" />
    <glyph glyph-name="aacute" unicode="&#xe1;" horiz-adv-x="7604" 
d="M74 72v137q0 49 11 60.5t58 11.5h62v804h-62q-47 0 -58 11.5t-11 60.5v137q0 49 11 60.5t58 11.5h899q49 0 60.5 -11.5t11.5 -60.5v-307q0 -49 -11 -60.5t-61 -11.5h-196q-47 0 -58.5 11.5t-11.5 60.5v78h-233v-244h245q47 0 58.5 -11t11.5 -58v-121q0 -47 -11 -58.5
t-59 -11.5h-245v-260h233v78q0 49 11.5 60.5t58.5 11.5h196q49 0 60.5 -11.5t11.5 -60.5v-307q0 -49 -11 -60.5t-61 -11.5h-899q-47 0 -58 11.5t-11 60.5zM1163 72v137q0 49 11.5 60.5t58.5 11.5h61v804h-61q-47 0 -58.5 11.5t-11.5 60.5v137q0 49 11.5 60.5t58.5 11.5h434
q317 0 457.5 -119t140.5 -342q0 -209 -131 -342t-391 -133h-111v-149h62q47 0 58 -11.5t11 -60.5v-137q0 -49 -11 -60.5t-58 -11.5h-461q-47 0 -58.5 11.5t-11.5 60.5zM1632 731h121q170 0 170 164q0 170 -188 170h-103v-334zM2277 72v137q0 49 11.5 60.5t58.5 11.5h61v804
h-61q-47 0 -58.5 11.5t-11.5 60.5v137q0 49 11.5 60.5t58.5 11.5h461q47 0 58 -11.5t11 -60.5v-137q0 -49 -11 -60.5t-58 -11.5h-62v-804h62q47 0 58 -11.5t11 -60.5v-137q0 -49 -11 -60.5t-58 -11.5h-461q-47 0 -58.5 11.5t-11.5 60.5zM2920 975q0 174 124 296t300 122
q119 0 222 -80q0 37 18 47q12 6 51 6h113q49 0 60.5 -11.5t11.5 -58.5v-256q0 -47 -11.5 -58t-60.5 -11h-164q-41 0 -53.5 6t-18.5 31q-25 102 -123 102q-57 0 -92 -34t-35 -87q0 -59 39 -90t168 -72q213 -68 304.5 -164t91.5 -253q0 -186 -126 -311.5t-313 -125.5
q-145 0 -233 90q2 -47 -25 -57q-14 -6 -47 -6h-123q-49 0 -60 11.5t-11 58.5v299q0 47 11 58t60 11h170q63 0 70 -39q25 -137 147 -137q59 0 98.5 36t39.5 93q0 53 -36 84t-145 68q-197 68 -288 147q-133 117 -134 285zM3881 682q0 293 210 502t505 209t503.5 -207
t208.5 -498q0 -297 -208.5 -506t-505.5 -209q-295 0 -504 208t-209 501zM4223 684q0 -154 108.5 -263.5t264.5 -109.5q154 0 262 110.5t108 266.5q0 152 -108 259.5t-262 107.5q-156 0 -264.5 -108.5t-108.5 -262.5zM5267 72v137q0 49 11.5 60.5t58.5 11.5h62v804h-62
q-47 0 -58.5 11.5t-11.5 60.5v137q0 49 11.5 60.5t58.5 11.5h625q285 0 461 -188.5t176 -491.5q0 -301 -180.5 -493.5t-460.5 -192.5h-621q-47 0 -58.5 11.5t-11.5 60.5zM5736 301h189q158 0 245 100.5t87 282.5t-87 281.5t-245 99.5h-189v-764zM6566 72v137q0 49 11 60.5
t59 11.5h61v804h-61q-47 0 -58.5 11.5t-11.5 60.5v137q0 49 11 60.5t59 11.5h899q49 0 60 -11.5t11 -60.5v-307q0 -49 -11 -60.5t-60 -11.5h-197q-47 0 -58.5 11.5t-11.5 60.5v78h-233v-244h246q47 0 58 -11t11 -58v-121q0 -47 -11 -58.5t-58 -11.5h-246v-260h233v78
q0 49 11.5 60.5t58.5 11.5h197q49 0 60 -11.5t11 -60.5v-307q0 -49 -11 -60.5t-60 -11.5h-899q-47 0 -58.5 11.5t-11.5 60.5z" />
    <glyph glyph-name="acircumflex" unicode="&#xe2;" horiz-adv-x="6410" 
d="M74 72v137q0 49 11 60.5t58 11.5h62v804h-62q-47 0 -58 11.5t-11 60.5v137q0 49 11 60.5t58 11.5h899q49 0 60.5 -11.5t11.5 -60.5v-307q0 -49 -11 -60.5t-61 -11.5h-196q-47 0 -58.5 11.5t-11.5 60.5v78h-233v-244h245q47 0 58.5 -11t11.5 -58v-121q0 -47 -11 -58.5
t-59 -11.5h-245v-260h233v78q0 49 11.5 60.5t58.5 11.5h196q49 0 60.5 -11.5t11.5 -60.5v-307q0 -49 -11 -60.5t-61 -11.5h-899q-47 0 -58 11.5t-11 60.5zM1163 72v137q0 49 11.5 60.5t58.5 11.5h57l359 405l-340 399h-52q-47 0 -58 11.5t-11 60.5v137q0 49 11 60.5t58 11.5
h463q49 0 60.5 -11.5t11.5 -60.5v-116q0 -49 -11.5 -60.5t-60.5 -11.5h-24l157 -184l160 184h-24q-47 0 -58.5 11t-11.5 61v116q0 49 11.5 60.5t58.5 11.5h471q47 0 58 -11.5t11 -60.5v-137q0 -49 -11 -60.5t-58 -11.5h-56l-350 -399l350 -405h56q47 0 58 -11.5t11 -60.5
v-137q0 -49 -11 -60.5t-58 -11.5h-471q-47 0 -58.5 11.5t-11.5 60.5v116q0 49 11.5 60.5t58.5 11.5h45l-181 197l-182 -197h37q47 0 58.5 -11t11.5 -61v-116q0 -49 -11.5 -60.5t-58.5 -11.5h-475q-47 0 -58.5 11.5t-11.5 60.5zM2580 967v329q0 47 11.5 58.5t58.5 11.5h1006
q47 0 58 -11.5t11 -58.5v-329q0 -49 -11 -60.5t-58 -11.5h-127q-47 0 -58.5 11.5t-11.5 60.5v98h-137v-784h61q47 0 58.5 -11.5t11.5 -60.5v-137q0 -49 -11.5 -60.5t-58.5 -11.5h-461q-47 0 -58 11.5t-11 60.5v137q0 49 11 60.5t58 11.5h62v784h-137v-98q0 -49 -11.5 -60.5
t-58.5 -11.5h-127q-47 0 -58.5 11.5t-11.5 60.5zM3777 72v137q0 49 11 60.5t58 11.5h62v804h-62q-47 0 -58 11.5t-11 60.5v137q0 49 11 60.5t58 11.5h541q264 0 399 -129t135 -348q0 -158 -77.5 -269.5t-206.5 -138.5l168 -200h67q47 0 58.5 -11.5t11.5 -60.5v-137
q0 -49 -11.5 -60.5t-58.5 -11.5h-233q-51 0 -74 33l-6 10l-25 35l-288 424v-221h16q47 0 58.5 -11.5t11.5 -60.5v-137q0 -49 -11.5 -60.5t-58.5 -11.5h-416q-47 0 -58 11.5t-11 60.5zM4246 670h106q106 0 166.5 54t60.5 148q0 90 -50 141.5t-138 51.5h-145v-395zM4989 70
v139q0 49 11 60.5t61 11.5h59l334 804h-62q-47 0 -58 11.5t-11 60.5v137q0 49 11 60.5t58 11.5h396q25 0 41 -6t36 -47l418 -1032h62q47 0 58 -11.5t11 -60.5v-139q0 -47 -11 -58.5t-58 -11.5h-484q-47 0 -58 11.5t-11 58.5v104q0 47 11 58.5t58 11.5h60l-41 125h-381
l-37 -125h59q47 0 58.5 -11.5t11.5 -58.5v-104q0 -47 -11 -58.5t-59 -11.5h-460q-49 0 -60.5 11.5t-11.5 58.5zM5581 625h217l-109 346z" />
    <glyph glyph-name="atilde" unicode="&#xe3;" horiz-adv-x="4167" 
d="M14 967v329q0 47 11.5 58.5t58.5 11.5h1006q47 0 58 -11.5t11 -58.5v-329q0 -49 -11 -60.5t-58 -11.5h-127q-47 0 -58.5 11.5t-11.5 60.5v98h-137v-784h61q47 0 58.5 -11.5t11.5 -60.5v-137q0 -49 -11.5 -60.5t-58.5 -11.5h-461q-47 0 -58 11.5t-11 60.5v137
q0 49 11 60.5t58 11.5h62v784h-137v-98q0 -49 -11.5 -60.5t-58.5 -11.5h-127q-47 0 -58.5 11.5t-11.5 60.5zM1208 72v137q0 49 11.5 60.5t58.5 11.5h61v804h-61q-47 0 -58.5 11.5t-11.5 60.5v137q0 49 11.5 60.5t58.5 11.5h461q47 0 58 -11.5t11 -60.5v-137q0 -49 -11 -60.5
t-58 -11.5h-62v-235h428v235h-59q-47 0 -58.5 11.5t-11.5 60.5v137q0 49 11.5 60.5t58.5 11.5h459q47 0 58 -11.5t11 -60.5v-137q0 -49 -11 -60.5t-58 -11.5h-62v-804h62q47 0 58 -11.5t11 -60.5v-137q0 -49 -11 -60.5t-58 -11.5h-459q-47 0 -58.5 11.5t-11.5 60.5v137
q0 49 11.5 60.5t58.5 11.5h59v251h-428v-251h62q47 0 58 -11.5t11 -60.5v-137q0 -49 -11 -60.5t-58 -11.5h-461q-47 0 -58.5 11.5t-11.5 60.5zM2623 72v137q0 49 11.5 60.5t58.5 11.5h62v804h-62q-47 0 -58.5 11.5t-11.5 60.5v137q0 49 11.5 60.5t58.5 11.5h461
q47 0 58.5 -11.5t11.5 -60.5v-137q0 -49 -11.5 -60.5t-58.5 -11.5h-62v-804h62q47 0 58.5 -11.5t11.5 -60.5v-137q0 -49 -11.5 -60.5t-58.5 -11.5h-461q-47 0 -58.5 11.5t-11.5 60.5zM3271 975q0 174 123.5 296t300.5 122q119 0 221 -80q0 37 18 47q12 6 51 6h113
q49 0 60.5 -11.5t11.5 -58.5v-256q0 -47 -11.5 -58t-60.5 -11h-164q-41 0 -53 6t-18 31q-25 102 -123 102q-57 0 -92 -34t-35 -87q0 -59 38.5 -90t168.5 -72q213 -68 304 -164t91 -253q0 -186 -126 -311.5t-312 -125.5q-145 0 -234 90q2 -47 -25 -57q-14 -6 -47 -6h-123
q-49 0 -60 11.5t-11 58.5v299q0 47 11 58t60 11h170q63 0 70 -39q25 -137 148 -137q59 0 98 36t39 93q0 53 -36 84t-144 68q-197 68 -289 147q-133 117 -133 285z" />
    <glyph glyph-name="adieresis" unicode="&#xe4;" horiz-adv-x="11157" 
d="M74 72v137q0 49 11 60.5t58 11.5h62v804h-62q-47 0 -58 11.5t-11 60.5v137q0 49 11 60.5t58 11.5h455q43 0 52 -7t24 -48l258 -785l252 783q14 43 23.5 50t54.5 7h479q47 0 58 -11.5t11 -60.5v-137q0 -49 -11 -60.5t-58 -11.5h-62v-804h62q47 0 58 -11.5t11 -60.5v-137
q0 -49 -11 -60.5t-58 -11.5h-461q-47 0 -58.5 11.5t-11.5 60.5v137q0 49 11.5 60.5t58.5 11.5h61v677l-280 -903q-2 -2 -6 -16q-8 -27 -19.5 -33t-52.5 -6h-115q-43 0 -53 7t-22 48l-279 893v-667h61q47 0 58.5 -11.5t11.5 -60.5v-137q0 -49 -11 -60.5t-59 -11.5h-432
q-47 0 -58 11.5t-11 60.5zM1868 70v139q0 49 11 60.5t60 11.5h60l334 804h-62q-47 0 -58 11.5t-11 60.5v137q0 49 11 60.5t58 11.5h395q25 0 41.5 -6t36.5 -47l418 -1032h62q47 0 58 -11.5t11 -60.5v-139q0 -47 -11 -58.5t-58 -11.5h-484q-47 0 -58 11.5t-11 58.5v104
q0 47 11 58.5t58 11.5h60l-41 125h-381l-37 -125h59q47 0 58.5 -11.5t11.5 -58.5v-104q0 -47 -11.5 -58.5t-58.5 -11.5h-461q-49 0 -60 11.5t-11 58.5zM2460 625h217l-109 346zM3361 72v137q0 49 11 60.5t58 11.5h62v804h-62q-47 0 -58 11.5t-11 60.5v137q0 49 11 60.5
t58 11.5h541q264 0 399.5 -129t135.5 -348q0 -158 -78 -269.5t-207 -138.5l168 -200h67q47 0 58.5 -11.5t11.5 -60.5v-137q0 -49 -11 -60.5t-59 -11.5h-233q-51 0 -74 33l-8 10l-22 35l-289 424v-221h16q47 0 58.5 -11.5t11.5 -60.5v-137q0 -49 -11.5 -60.5t-58.5 -11.5
h-416q-47 0 -58 11.5t-11 60.5zM3830 670h106q106 0 167 54t61 148q0 90 -50.5 141.5t-138.5 51.5h-145v-395zM4585 70v139q0 49 11.5 60.5t60.5 11.5h60l333 804h-61q-47 0 -58.5 11.5t-11.5 60.5v137q0 49 11.5 60.5t58.5 11.5h395q25 0 41.5 -6t36.5 -47l418 -1032h61
q47 0 58.5 -11.5t11.5 -60.5v-139q0 -47 -11.5 -58.5t-58.5 -11.5h-483q-47 0 -58.5 11.5t-11.5 58.5v104q0 47 11.5 58.5t58.5 11.5h59l-41 125h-381l-36 -125h59q47 0 58.5 -11.5t11.5 -58.5v-104q0 -47 -11.5 -58.5t-58.5 -11.5h-461q-49 0 -60.5 11.5t-11.5 58.5z
M5177 625h217l-108 346zM5800 967v329q0 47 11 58.5t59 11.5h1005q47 0 58.5 -11.5t11.5 -58.5v-329q0 -49 -11.5 -60.5t-58.5 -11.5h-127q-47 0 -58 11.5t-11 60.5v98h-138v-784h62q47 0 58 -11.5t11 -60.5v-137q0 -49 -11 -60.5t-58 -11.5h-461q-47 0 -58.5 11.5
t-11.5 60.5v137q0 49 11.5 60.5t58.5 11.5h61v784h-137v-98q0 -49 -11 -60.5t-58 -11.5h-127q-47 0 -58.5 11.5t-11.5 60.5zM7006 72v137q0 49 11.5 60.5t58.5 11.5h61v804h-61q-47 0 -58.5 11.5t-11.5 60.5v137q0 49 11.5 60.5t58.5 11.5h461q47 0 58 -11.5t11 -60.5v-137
q0 -49 -11 -60.5t-58 -11.5h-62v-235h428v235h-59q-47 0 -58.5 11.5t-11.5 60.5v137q0 49 11.5 60.5t58.5 11.5h459q47 0 58 -11.5t11 -60.5v-137q0 -49 -11 -60.5t-58 -11.5h-62v-804h62q47 0 58 -11.5t11 -60.5v-137q0 -49 -11 -60.5t-58 -11.5h-459q-47 0 -58.5 11.5
t-11.5 60.5v137q0 49 11.5 60.5t58.5 11.5h59v251h-428v-251h62q47 0 58 -11.5t11 -60.5v-137q0 -49 -11 -60.5t-58 -11.5h-461q-47 0 -58.5 11.5t-11.5 60.5zM8346 682q0 293 209.5 502t504.5 209t504 -207t209 -498q0 -297 -209 -506t-506 -209q-295 0 -503.5 208
t-208.5 501zM8688 684q0 -154 108.5 -263.5t263.5 -109.5q154 0 262.5 110.5t108.5 266.5q0 152 -108.5 259.5t-262.5 107.5q-156 0 -264 -108.5t-108 -262.5zM9724 72v137q0 49 11 60.5t59 11.5h81v804h-81q-47 0 -58.5 11.5t-11.5 60.5v137q0 49 11 60.5t59 11.5h307
q39 0 52 -12.5t26 -28.5l510 -745v505h-62q-47 0 -58.5 11.5t-11.5 60.5v137q0 49 11.5 60.5t58.5 11.5h461q47 0 58.5 -11.5t11.5 -60.5v-137q0 -49 -11.5 -60.5t-58.5 -11.5h-82v-1013q0 -49 -12.5 -60.5t-59.5 -11.5h-164q-43 0 -74.5 39t-39.5 53l-463 672v-483h61
q47 0 58.5 -11.5t11.5 -60.5v-137q0 -49 -11.5 -60.5t-58.5 -11.5h-460q-47 0 -58.5 11.5t-11.5 60.5z" />
    <glyph glyph-name="aring" unicode="&#xe5;" horiz-adv-x="5187" 
d="M74 72v137q0 49 11 60.5t58 11.5h82v804h-82q-47 0 -58 11.5t-11 60.5v137q0 49 11 60.5t58 11.5h308q39 0 52 -12.5t25 -28.5l510 -745v505h-61q-47 0 -58.5 11.5t-11.5 60.5v137q0 49 11.5 60.5t58.5 11.5h461q47 0 58 -11.5t11 -60.5v-137q0 -49 -11 -60.5t-58 -11.5
h-82v-1013q0 -49 -12.5 -60.5t-59.5 -11.5h-164q-43 0 -74.5 39t-39.5 53l-463 672v-483h61q47 0 58.5 -11.5t11.5 -60.5v-137q0 -49 -11.5 -60.5t-58.5 -11.5h-461q-47 0 -58 11.5t-11 60.5zM1550 72v137q0 49 11.5 60.5t58.5 11.5h61v804h-61q-47 0 -58.5 11.5t-11.5 60.5
v137q0 49 11.5 60.5t58.5 11.5h899q49 0 60.5 -11.5t11.5 -60.5v-307q0 -49 -11.5 -60.5t-60.5 -11.5h-197q-47 0 -58 11.5t-11 60.5v78h-234v-244h246q47 0 58.5 -11t11.5 -58v-121q0 -47 -11.5 -58.5t-58.5 -11.5h-246v-260h234v78q0 49 11 60.5t58 11.5h197
q49 0 60.5 -11.5t11.5 -60.5v-307q0 -49 -11.5 -60.5t-60.5 -11.5h-899q-47 0 -58.5 11.5t-11.5 60.5zM2636 72v137q0 49 11 60.5t58 11.5h58l358 405l-340 399h-51q-47 0 -58.5 11.5t-11.5 60.5v137q0 49 11.5 60.5t58.5 11.5h463q49 0 60.5 -11.5t11.5 -60.5v-116
q0 -49 -11.5 -60.5t-60.5 -11.5h-25l158 -184l160 184h-25q-47 0 -58.5 11t-11.5 61v116q0 49 11.5 60.5t58.5 11.5h471q47 0 58.5 -11.5t11.5 -60.5v-137q0 -49 -11.5 -60.5t-58.5 -11.5h-55l-350 -399l350 -405h55q47 0 58.5 -11.5t11.5 -60.5v-137q0 -49 -11.5 -60.5
t-58.5 -11.5h-471q-47 0 -58.5 11.5t-11.5 60.5v116q0 49 11.5 60.5t58.5 11.5h45l-180 197l-182 -197h37q47 0 58 -11t11 -61v-116q0 -49 -11 -60.5t-58 -11.5h-476q-47 0 -58 11.5t-11 60.5zM4041 967v329q0 47 11 58.5t58 11.5h1006q47 0 58.5 -11.5t11.5 -58.5v-329
q0 -49 -11.5 -60.5t-58.5 -11.5h-127q-47 0 -58.5 11.5t-11.5 60.5v98h-137v-784h62q47 0 58 -11.5t11 -60.5v-137q0 -49 -11 -60.5t-58 -11.5h-461q-47 0 -58.5 11.5t-11.5 60.5v137q0 49 11.5 60.5t58.5 11.5h61v784h-137v-98q0 -49 -11.5 -60.5t-58.5 -11.5h-127
q-47 0 -58 11.5t-11 60.5z" />
    <glyph glyph-name="ae" unicode="&#xe6;" 
d="M332 614v516h516v-516h-516zM848 98v516h516v-516h-516z" />
    <glyph glyph-name="ccedilla" unicode="&#xe7;" horiz-adv-x="4708" 
d="M74 72v137q0 49 11 60.5t58 11.5h82v804h-82q-47 0 -58 11.5t-11 60.5v137q0 49 11 60.5t58 11.5h308q39 0 52 -12.5t25 -28.5l510 -745v505h-61q-47 0 -58.5 11.5t-11.5 60.5v137q0 49 11.5 60.5t58.5 11.5h461q47 0 58 -11.5t11 -60.5v-137q0 -49 -11 -60.5t-58 -11.5
h-82v-1013q0 -49 -12.5 -60.5t-59.5 -11.5h-164q-43 0 -74.5 39t-39.5 53l-463 672v-483h61q47 0 58.5 -11.5t11.5 -60.5v-137q0 -49 -11.5 -60.5t-58.5 -11.5h-461q-47 0 -58 11.5t-11 60.5zM1456 682q0 293 210 502t505 209t504 -207t209 -498q0 -297 -209 -506t-506 -209
q-295 0 -504 208t-209 501zM1798 684q0 -154 108.5 -263.5t264.5 -109.5q154 0 262.5 110.5t108.5 266.5q0 152 -108.5 259.5t-262.5 107.5q-156 0 -264.5 -108.5t-108.5 -262.5zM2812 1157v137q0 49 11 60.5t59 11.5h456q47 0 58.5 -11.5t11.5 -60.5v-137
q0 -49 -11.5 -60.5t-58.5 -11.5h-61l131 -512l186 734q12 45 21.5 52t54.5 7h168q41 0 52 -6t20 -33l6 -18l209 -727l116 503h-63q-47 0 -58.5 11.5t-11.5 60.5v137q0 49 11.5 60.5t58.5 11.5h461q51 0 60 -10t9 -62v-137q0 -49 -11 -60.5t-58 -11.5h-74l-262 -1026
q-10 -43 -20.5 -51t-55.5 -8h-188q-45 0 -55.5 7t-22.5 50l-205 717l-201 -717q-12 -43 -21 -50t-54 -7h-185q-45 0 -55 7t-23 50l-290 1028h-45q-47 0 -58.5 11.5t-11.5 60.5z" />
    <glyph glyph-name="egrave" unicode="&#xe8;" horiz-adv-x="8673" 
d="M14 967v329q0 47 11.5 58.5t58.5 11.5h1006q47 0 58 -11.5t11 -58.5v-329q0 -49 -11 -60.5t-58 -11.5h-127q-47 0 -58.5 11.5t-11.5 60.5v98h-137v-784h61q47 0 58.5 -11.5t11.5 -60.5v-137q0 -49 -11.5 -60.5t-58.5 -11.5h-461q-47 0 -58 11.5t-11 60.5v137
q0 49 11 60.5t58 11.5h62v784h-137v-98q0 -49 -11.5 -60.5t-58.5 -11.5h-127q-47 0 -58.5 11.5t-11.5 60.5zM1188 682q0 293 210 502t505 209t503.5 -207t208.5 -498q0 -297 -208.5 -506t-505.5 -209q-295 0 -504 208t-209 501zM1530 684q0 -154 108.5 -263.5t264.5 -109.5
q154 0 262 110.5t108 266.5q0 152 -108 259.5t-262 107.5q-156 0 -264.5 -108.5t-108.5 -262.5zM2580 72v137q0 49 11.5 60.5t58.5 11.5h82v804h-82q-47 0 -58.5 11.5t-11.5 60.5v137q0 49 11.5 60.5t58.5 11.5h307q39 0 52.5 -12.5t25.5 -28.5l510 -745v505h-61
q-47 0 -58.5 11.5t-11.5 60.5v137q0 49 11.5 60.5t58.5 11.5h460q47 0 58.5 -11.5t11.5 -60.5v-137q0 -49 -11 -60.5t-59 -11.5h-81v-1013q0 -49 -12.5 -60.5t-59.5 -11.5h-164q-43 0 -74.5 39t-40.5 53l-463 672v-483h62q47 0 58.5 -11.5t11.5 -60.5v-137
q0 -49 -11.5 -60.5t-58.5 -11.5h-461q-47 0 -58.5 11.5t-11.5 60.5zM4071 72v137q0 49 11.5 60.5t58.5 11.5h61v804h-61q-47 0 -58.5 11.5t-11.5 60.5v137q0 49 11.5 60.5t58.5 11.5h461q47 0 58 -11.5t11 -60.5v-137q0 -49 -11 -60.5t-58 -11.5h-62v-804h62q47 0 58 -11.5
t11 -60.5v-137q0 -49 -11 -60.5t-58 -11.5h-461q-47 0 -58.5 11.5t-11.5 60.5zM4643 684q0 295 204.5 502t497.5 207q113 0 191 -26t190 -101v28q0 49 11.5 60.5t58.5 11.5h137q47 0 58.5 -11.5t11.5 -60.5v-303q0 -47 -11.5 -58t-58.5 -11h-254q-47 0 -65 22
q-96 111 -256 111q-162 0 -267.5 -104.5t-105.5 -264.5t107.5 -268.5t265.5 -108.5q201 0 301 174h-322q-47 0 -58.5 11.5t-11.5 60.5v141q0 49 11.5 60.5t58.5 11.5h627q47 0 58 -11.5t11 -60.5v-626q0 -47 -11 -58.5t-58 -11.5h-137q-47 0 -58.5 11.5t-11.5 58.5v71
q-139 -168 -408 -168q-295 0 -500.5 207t-205.5 504zM6095 72v137q0 49 11 60.5t58 11.5h62v804h-62q-47 0 -58 11.5t-11 60.5v137q0 49 11 60.5t58 11.5h461q47 0 58.5 -11.5t11.5 -60.5v-137q0 -49 -11.5 -60.5t-58.5 -11.5h-61v-235h428v235h-60q-47 0 -58 11.5t-11 60.5
v137q0 49 11 60.5t58 11.5h459q47 0 58.5 -11.5t11.5 -60.5v-137q0 -49 -11.5 -60.5t-58.5 -11.5h-61v-804h61q47 0 58.5 -11.5t11.5 -60.5v-137q0 -49 -11.5 -60.5t-58.5 -11.5h-459q-47 0 -58 11.5t-11 60.5v137q0 49 11 60.5t58 11.5h60v251h-428v-251h61
q47 0 58.5 -11.5t11.5 -60.5v-137q0 -49 -11.5 -60.5t-58.5 -11.5h-461q-47 0 -58 11.5t-11 60.5zM7526 967v329q0 47 11.5 58.5t58.5 11.5h1006q47 0 58 -11.5t11 -58.5v-329q0 -49 -11 -60.5t-58 -11.5h-127q-47 0 -58.5 11.5t-11.5 60.5v98h-137v-784h61q47 0 58.5 -11.5
t11.5 -60.5v-137q0 -49 -11.5 -60.5t-58.5 -11.5h-461q-47 0 -58 11.5t-11 60.5v137q0 49 11 60.5t58 11.5h62v784h-137v-98q0 -49 -11.5 -60.5t-58.5 -11.5h-127q-47 0 -58.5 11.5t-11.5 60.5z" />
    <glyph glyph-name="eacute" unicode="&#xe9;" horiz-adv-x="9697" 
d="M74 72v137q0 49 11 60.5t58 11.5h62v804h-62q-47 0 -58 11.5t-11 60.5v137q0 49 11 60.5t58 11.5h435q317 0 457.5 -119t140.5 -342q0 -209 -131.5 -342t-391.5 -133h-110v-149h61q47 0 58.5 -11.5t11.5 -60.5v-137q0 -49 -11.5 -60.5t-58.5 -11.5h-461q-47 0 -58 11.5
t-11 60.5zM543 731h121q170 0 170 164q0 170 -189 170h-102v-334zM1182 72v137q0 49 11 60.5t58 11.5h62v804h-62q-47 0 -58 11.5t-11 60.5v137q0 49 11 60.5t58 11.5h541q264 0 399.5 -129t135.5 -348q0 -158 -78 -269.5t-207 -138.5l168 -200h67q47 0 58.5 -11.5
t11.5 -60.5v-137q0 -49 -11.5 -60.5t-58.5 -11.5h-233q-51 0 -74 33l-8 10l-23 35l-288 424v-221h16q47 0 58.5 -11.5t11.5 -60.5v-137q0 -49 -11.5 -60.5t-58.5 -11.5h-416q-47 0 -58 11.5t-11 60.5zM1651 670h106q106 0 167 54t61 148q0 90 -50.5 141.5t-138.5 51.5h-145
v-395zM2392 72v137q0 49 11.5 60.5t58.5 11.5h61v804h-61q-47 0 -58.5 11.5t-11.5 60.5v137q0 49 11.5 60.5t58.5 11.5h899q49 0 60 -11.5t11 -60.5v-307q0 -49 -11 -60.5t-60 -11.5h-197q-47 0 -58 11.5t-11 60.5v78h-234v-244h246q47 0 58 -11t11 -58v-121
q0 -47 -11 -58.5t-58 -11.5h-246v-260h234v78q0 49 11 60.5t58 11.5h197q49 0 60 -11.5t11 -60.5v-307q0 -49 -11 -60.5t-60 -11.5h-899q-47 0 -58.5 11.5t-11.5 60.5zM3478 72q0 -49 11 -60.5t58 -11.5h455q49 0 60 11.5t11 60.5v92q0 49 -11 60.5t-60 11.5h-64l424 696
v-860q0 -49 11.5 -60.5t58.5 -11.5h151q14 0 27 4q29 10 43 33l539 895v-696h-62q-47 0 -58 -11.5t-11 -60.5v-92q0 -49 11 -60.5t58 -11.5h447q49 0 59 11.5t10 60.5v137q0 49 -10 60.5t-59 11.5h-103v804h103q49 0 59 11.5t10 60.5v137q0 49 -10 60.5t-59 11.5h-344
q-55 0 -95 -57l-495 -736v721q0 49 -11.5 60.5t-60.5 11.5h-469q-49 0 -60.5 -11.5t-11.5 -60.5v-137q0 -49 11.5 -60.5t60.5 -11.5h55l-542 -804h-68q-47 0 -58 -11.5t-11 -60.5v-137zM5695 72v137q0 49 11.5 60.5t58.5 11.5h62v804h-62q-47 0 -58.5 11.5t-11.5 60.5v137
q0 49 11.5 60.5t58.5 11.5h461q47 0 58.5 -11.5t11.5 -60.5v-137q0 -49 -11.5 -60.5t-58.5 -11.5h-62v-804h62q47 0 58.5 -11.5t11.5 -60.5v-137q0 -49 -11.5 -60.5t-58.5 -11.5h-461q-47 0 -58.5 11.5t-11.5 60.5zM6345 72v137q0 49 11 60.5t58 11.5h62v804h-62
q-47 0 -58 11.5t-11 60.5v137q0 49 11 60.5t58 11.5h899q49 0 60.5 -11.5t11.5 -60.5v-307q0 -49 -11 -60.5t-61 -11.5h-196q-47 0 -58.5 11.5t-11.5 60.5v78h-233v-244h245q47 0 58.5 -11t11.5 -58v-121q0 -47 -11 -58.5t-59 -11.5h-245v-260h233v78q0 49 11.5 60.5
t58.5 11.5h196q49 0 60.5 -11.5t11.5 -60.5v-307q0 -49 -11 -60.5t-61 -11.5h-899q-47 0 -58 11.5t-11 60.5zM7432 72v137q0 49 11.5 60.5t58.5 11.5h61v804h-61q-47 0 -58.5 11.5t-11.5 60.5v137q0 49 11.5 60.5t58.5 11.5h540q264 0 399.5 -129t135.5 -348
q0 -158 -78 -269.5t-207 -138.5l168 -200h68q47 0 58.5 -11.5t11.5 -60.5v-137q0 -49 -11.5 -60.5t-58.5 -11.5h-234q-51 0 -73 33l-9 10l-22 35l-289 424v-221h17q47 0 58 -11.5t11 -60.5v-137q0 -49 -11 -60.5t-58 -11.5h-416q-47 0 -58.5 11.5t-11.5 60.5zM7901 670h107
q106 0 166.5 54t60.5 148q0 90 -50 141.5t-138 51.5h-146v-395zM8653 72v137q0 49 11 60.5t58 11.5h62v804h-62q-47 0 -58 11.5t-11 60.5v137q0 49 11 60.5t58 11.5h900q49 0 60 -11.5t11 -60.5v-307q0 -49 -11 -60.5t-60 -11.5h-197q-47 0 -58.5 11.5t-11.5 60.5v78h-233
v-244h246q47 0 58 -11t11 -58v-121q0 -47 -11 -58.5t-58 -11.5h-246v-260h233v78q0 49 11.5 60.5t58.5 11.5h197q49 0 60 -11.5t11 -60.5v-307q0 -49 -11 -60.5t-60 -11.5h-900q-47 0 -58 11.5t-11 60.5z" />
    <glyph glyph-name="ecircumflex" unicode="&#xea;" horiz-adv-x="7303" 
d="M55 975q0 174 124 296t300 122q119 0 221 -80q0 37 19 47q12 6 51 6h113q49 0 60 -11.5t11 -58.5v-256q0 -47 -11 -58t-60 -11h-164q-41 0 -53.5 6t-18.5 31q-25 102 -123 102q-57 0 -92 -34t-35 -87q0 -59 39 -90t168 -72q213 -68 304 -164t91 -253
q0 -186 -125.5 -311.5t-312.5 -125.5q-145 0 -233 90q2 -47 -25 -57q-14 -6 -47 -6h-123q-49 0 -60.5 11.5t-11.5 58.5v299q0 47 11.5 58t60.5 11h170q63 0 70 -39q25 -137 147 -137q59 0 98 36t39 93q0 53 -35.5 84t-144.5 68q-197 68 -289 147q-133 117 -133 285zM1006 72
v137q0 49 11 60.5t58 11.5h62v804h-62q-47 0 -58 11.5t-11 60.5v137q0 49 11 60.5t58 11.5h899q49 0 60.5 -11.5t11.5 -60.5v-307q0 -49 -11.5 -60.5t-60.5 -11.5h-196q-47 0 -58.5 11.5t-11.5 60.5v78h-233v-244h245q47 0 58.5 -11t11.5 -58v-121q0 -47 -11.5 -58.5
t-58.5 -11.5h-245v-260h233v78q0 49 11.5 60.5t58.5 11.5h196q49 0 60.5 -11.5t11.5 -60.5v-307q0 -49 -11.5 -60.5t-60.5 -11.5h-899q-47 0 -58 11.5t-11 60.5zM2093 70v139q0 49 11.5 60.5t60.5 11.5h59l334 804h-61q-47 0 -58.5 11.5t-11.5 60.5v137q0 49 11 60.5
t59 11.5h395q25 0 41 -6t37 -47l417 -1032h62q47 0 58 -11.5t11 -60.5v-139q0 -47 -11 -58.5t-58 -11.5h-483q-47 0 -58.5 11.5t-11.5 58.5v104q0 47 11 58.5t59 11.5h59l-41 125h-381l-37 -125h60q47 0 58 -11.5t11 -58.5v-104q0 -47 -11 -58.5t-58 -11.5h-461
q-49 0 -60.5 11.5t-11.5 58.5zM2695 625h217l-108 346zM3557 975q0 174 124 296t300 122q119 0 221 -80q0 37 19 47q12 6 51 6h113q49 0 60 -11.5t11 -58.5v-256q0 -47 -11 -58t-60 -11h-164q-41 0 -53.5 6t-18.5 31q-25 102 -123 102q-57 0 -92 -34t-35 -87q0 -59 39 -90
t168 -72q213 -68 304.5 -164t91.5 -253q0 -186 -126 -311.5t-313 -125.5q-145 0 -233 90q2 -47 -25 -57q-14 -6 -47 -6h-123q-49 0 -60 11.5t-11 58.5v299q0 47 11 58t60 11h170q63 0 70 -39q25 -137 147 -137q59 0 98 36t39 93q0 53 -35.5 84t-144.5 68q-197 68 -289 147
q-133 117 -133 285zM4512 682q0 293 209.5 502t504.5 209t504 -207t209 -498q0 -297 -209 -506t-506 -209q-295 0 -503.5 208t-208.5 501zM4854 684q0 -154 108.5 -263.5t263.5 -109.5q154 0 262.5 110.5t108.5 266.5q0 152 -108.5 259.5t-262.5 107.5q-156 0 -264 -108.5
t-108 -262.5zM5870 72v137q0 49 11 60.5t58 11.5h82v804h-82q-47 0 -58 11.5t-11 60.5v137q0 49 11 60.5t58 11.5h307q39 0 52.5 -12.5t25.5 -28.5l510 -745v505h-61q-47 0 -58.5 11.5t-11.5 60.5v137q0 49 11.5 60.5t58.5 11.5h461q47 0 58 -11.5t11 -60.5v-137
q0 -49 -11 -60.5t-58 -11.5h-82v-1013q0 -49 -12.5 -60.5t-59.5 -11.5h-164q-43 0 -74.5 39t-40.5 53l-462 672v-483h61q47 0 58.5 -11.5t11.5 -60.5v-137q0 -49 -11.5 -60.5t-58.5 -11.5h-461q-47 0 -58 11.5t-11 60.5z" />
    <glyph glyph-name="edieresis" unicode="&#xeb;" horiz-adv-x="2105" 
d="M14 967v329q0 47 10.5 58.5t59.5 11.5h473q41 0 51 -12.5t10 -59.5v-1222q0 -47 -10 -59.5t-51 -12.5h-201q-49 0 -59 11.5t-10 60.5v137q0 49 10 60.5t59 11.5h62v784h-137v-98q0 -49 -11.5 -60.5t-58.5 -11.5h-127q-49 0 -59.5 11.5t-10.5 60.5zM684 72v1222
q0 47 10 58q2 4 8 6q27 8 43 8h476q47 0 58 -11.5t11 -58.5v-272q0 -49 -11 -60.5t-58 -11.5h-127q-47 0 -58.5 11.5t-11.5 60.5v41h-137v-215h684v235h-60q-47 0 -58 11.5t-11 60.5v137q0 49 11 60.5t58 11.5h459q47 0 58.5 -11.5t11.5 -60.5v-137q0 -49 -11.5 -60.5
t-58.5 -11.5h-61v-804h61q47 0 58.5 -11.5t11.5 -60.5v-137q0 -49 -11.5 -60.5t-58.5 -11.5h-459q-47 0 -58 11.5t-11 60.5v137q0 49 11 60.5t58 11.5h60v251h-684v-251h61q47 0 58.5 -11.5t11.5 -60.5v-137q0 -49 -11.5 -60.5t-58.5 -11.5h-203h-16q-10 2 -16 3t-11.5 4
t-7.5 5q-10 16 -10 60z" />
    <glyph glyph-name="igrave" unicode="&#xec;" horiz-adv-x="1323" 
d="M-14 1157v137q0 46 12 58q8 8 20.5 11t38.5 3h451q49 0 63 -14q10 -6 11 -58v-90q0 -53 -11 -63q-16 -10 -63 -11h-64l426 -696v696h-61q-45 0 -61 11q-4 6 -7.5 20.5t-3.5 42.5v90q0 25 3 39.5t8 18.5q14 14 61 14h442q49 0 62 -14q10 -6 10 -58v-137q0 -45 -10 -59
q-12 -12 -62 -13h-102v-1011q0 -51 -12 -62q-6 -8 -62 -12h-176q-37 0 -52.5 5t-19.5 7q-12 8 -16 15l-12 16l-676 1042h-66q-51 0 -59 13q-12 12 -12 59z" />
    <glyph glyph-name="iacute" unicode="&#xed;" horiz-adv-x="1320" 
d="M-14 1157v137q0 51 10 58q12 14 61 14h443q47 0 61 -14q4 -4 7 -18.5t3 -39.5v-90q0 -29 -3 -43t-7 -20q-16 -10 -61 -11h-62v-696l426 696h-63q-47 0 -64 11q-10 10 -10 63v90q0 51 10 58q14 14 64 14h450q27 0 39.5 -3t20.5 -11q12 -12 12 -58v-137q0 -47 -12 -59
q-10 -12 -60 -13h-65l-676 -1042l-14 -16q-4 -6 -15 -15q-4 -2 -19.5 -7t-51.5 -5h-177q-55 4 -61 12q-12 10 -12 62v1011h-103q-49 0 -61 13q-10 14 -10 59z" />
    <glyph glyph-name="icircumflex" unicode="&#xee;" horiz-adv-x="2174" 
d="M0 1157v137q0 49 11.5 60.5t58.5 11.5h446q47 0 58.5 -11.5t11.5 -60.5v-92q0 -49 -11.5 -60.5t-58.5 -11.5h-61v-696l538 893q14 25 43 33q12 4 27 6h149q49 0 59.5 -11.5t10.5 -60.5v-860l424 696h-64q-49 0 -60 11.5t-11 60.5v92q0 49 11 60.5t60 11.5h455
q47 0 58.5 -11.5t11.5 -60.5v-137q0 -49 -11.5 -60.5t-58.5 -11.5h-67l-666 -1042q-16 -27 -43 -35q-10 -6 -49 -8h-193q-39 0 -57 12.5t-18 61.5v719l-478 -750q-16 -25 -41 -37q-10 -6 -61 -6h-176q-51 2 -62.5 13.5t-11.5 60.5v1011h-104q-47 0 -58.5 11.5t-11.5 60.5z
" />
    <glyph glyph-name="idieresis" unicode="&#xef;" 
d="M332 614v516h516v-516h-516zM848 98v516h516v-516h-516z" />
    <glyph glyph-name="ntilde" unicode="&#xf1;" 
d="M332 614v516h516v-516h-516zM848 98v516h516v-516h-516z" />
    <glyph glyph-name="ograve" unicode="&#xf2;" 
d="M332 614v516h516v-516h-516zM848 98v516h516v-516h-516z" />
    <glyph glyph-name="oacute" unicode="&#xf3;" 
d="M332 614v516h516v-516h-516zM848 98v516h516v-516h-516z" />
    <glyph glyph-name="ocircumflex" unicode="&#xf4;" 
d="M332 614v516h516v-516h-516zM848 98v516h516v-516h-516z" />
    <glyph glyph-name="otilde" unicode="&#xf5;" 
d="M332 614v516h516v-516h-516zM848 98v516h516v-516h-516z" />
    <glyph glyph-name="odieresis" unicode="&#xf6;" 
d="M332 614v516h516v-516h-516zM848 98v516h516v-516h-516z" />
    <glyph glyph-name="divide" unicode="&#xf7;" 
d="M332 614v516h516v-516h-516zM848 98v516h516v-516h-516z" />
    <glyph glyph-name="oslash" unicode="&#xf8;" 
d="M332 614v516h516v-516h-516zM848 98v516h516v-516h-516z" />
    <glyph glyph-name="ugrave" unicode="&#xf9;" 
d="M332 614v516h516v-516h-516zM848 98v516h516v-516h-516z" />
    <glyph glyph-name="uacute" unicode="&#xfa;" 
d="M332 614v516h516v-516h-516zM848 98v516h516v-516h-516z" />
    <glyph glyph-name="ucircumflex" unicode="&#xfb;" 
d="M332 614v516h516v-516h-516zM848 98v516h516v-516h-516z" />
    <glyph glyph-name="udieresis" unicode="&#xfc;" 
d="M332 614v516h516v-516h-516zM848 98v516h516v-516h-516z" />
    <glyph glyph-name="yacute" unicode="&#xfd;" horiz-adv-x="1216" 
d="M-168 2032v516h516v-516h-516zM-14 1157v137q0 49 11 60.5t58 11.5h420q47 0 58.5 -11.5t11.5 -60.5v-137q0 -49 -11.5 -60.5t-58.5 -11.5h-26l157 -321l168 321h-31q-47 0 -58 11.5t-11 60.5v137q0 49 11 60.5t58 11.5h416q47 0 58.5 -11.5t11.5 -60.5v-137
q0 -49 -11.5 -60.5t-58.5 -11.5h-49l-336 -598v-206h62q47 0 58 -11.5t11 -60.5v-137q0 -49 -11 -60.5t-58 -11.5h-461q-47 0 -58.5 11.5t-11.5 60.5v137q0 49 11.5 60.5t58.5 11.5h61v206l-330 598h-51q-47 0 -58 11.5t-11 60.5zM348 1516v516h516v-516h-516z" />
    <glyph glyph-name="ydieresis" unicode="&#xff;" 
d="M332 614v516h516v-516h-516zM848 98v516h516v-516h-516z" />
    <glyph glyph-name="OE" unicode="&#x152;" horiz-adv-x="2103" 
d="M55 686q0 295 207 501t502 206q115 0 194.5 -28t178.5 -101v32q0 47 11 58.5t58 11.5h772q49 0 60.5 -11.5t11.5 -58.5v-299q0 -47 -11 -58t-61 -11h-196q-47 0 -58.5 11t-11.5 58v68h-237v-242h245q47 0 58.5 -11t11.5 -58v-121q0 -47 -11.5 -58.5t-58.5 -11.5h-245
v-262h237v78q0 49 11.5 60.5t58.5 11.5h196q49 0 60.5 -11.5t11.5 -60.5v-309q0 -47 -11 -58.5t-61 -11.5h-772q-47 0 -58 11.5t-11 58.5v43q-86 -78 -168 -109t-205 -31q-301 0 -505 205t-204 508zM397 680q0 -154 106.5 -262.5t256.5 -108.5t256 108.5t106 262.5
q0 156 -105 265.5t-255 109.5t-257.5 -110.5t-107.5 -264.5z" />
    <glyph glyph-name="oe" unicode="&#x153;" 
d="M332 614v516h516v-516h-516zM848 98v516h516v-516h-516z" />
    <glyph glyph-name="Ydieresis" unicode="&#x178;" horiz-adv-x="1216" 
d="M-14 1157v137q0 49 11 60.5t58 11.5h420q47 0 58.5 -11.5t11.5 -60.5v-137q0 -49 -11.5 -60.5t-58.5 -11.5h-26l157 -321l168 321h-31q-47 0 -58 11.5t-11 60.5v137q0 49 11 60.5t58 11.5h416q47 0 58.5 -11.5t11.5 -60.5v-137q0 -49 -11.5 -60.5t-58.5 -11.5h-49
l-336 -598v-206h62q47 0 58 -11.5t11 -60.5v-137q0 -49 -11 -60.5t-58 -11.5h-461q-47 0 -58.5 11.5t-11.5 60.5v137q0 49 11.5 60.5t58.5 11.5h61v206l-330 598h-51q-47 0 -58 11.5t-11 60.5zM236 1569v157q0 47 11 58.5t58 11.5h174q47 0 58.5 -11.5t11.5 -58.5v-157
q0 -47 -11.5 -58.5t-58.5 -11.5h-174q-47 0 -58 11.5t-11 58.5zM664 1569v157q0 47 11 58.5t58 11.5h174q47 0 58.5 -11.5t11.5 -58.5v-157q0 -47 -11.5 -58.5t-58.5 -11.5h-174q-47 0 -58 11.5t-11 58.5z" />
    <glyph glyph-name="circumflex" unicode="&#x2c6;" horiz-adv-x="1024" 
d="M163 1214q0 18 28 52l168 196q27 31 33 34t45 3h150q39 0 45 -2t33 -35l167 -196q29 -33 29 -52q0 -41 -69 -40h-123q-39 0 -45.5 3t-32.5 35l-78 97l-80 -97q-27 -31 -33 -34.5t-45 -3.5h-121q-72 0 -71 40z" />
    <glyph glyph-name="tilde" unicode="&#x2dc;" horiz-adv-x="1024" 
d="M152 1386q-2 29 52 52.5t126 23.5q59 0 159 -22l27 -6q66 -14 107 -15q70 0 112 25q12 4 21 4q20 0 49 -39l49 -66q25 -33 27 -49q2 -31 -60.5 -57.5t-138.5 -26.5q-59 0 -191 33q-49 12 -88 12q-47 0 -94 -24q-10 -8 -24 -8q-20 0 -50 39l-57 75q-27 35 -26 49z" />
    <glyph glyph-name="uni2000" unicode="&#x2000;" horiz-adv-x="1274" 
 />
    <glyph glyph-name="uni2001" unicode="&#x2001;" horiz-adv-x="2548" 
 />
    <glyph glyph-name="uni2002" unicode="&#x2002;" horiz-adv-x="1274" 
 />
    <glyph glyph-name="uni2003" unicode="&#x2003;" horiz-adv-x="2548" 
 />
    <glyph glyph-name="uni2004" unicode="&#x2004;" horiz-adv-x="849" 
 />
    <glyph glyph-name="uni2005" unicode="&#x2005;" horiz-adv-x="637" 
 />
    <glyph glyph-name="uni2006" unicode="&#x2006;" horiz-adv-x="424" 
 />
    <glyph glyph-name="uni2007" unicode="&#x2007;" horiz-adv-x="424" 
 />
    <glyph glyph-name="uni2008" unicode="&#x2008;" horiz-adv-x="318" 
 />
    <glyph glyph-name="uni2009" unicode="&#x2009;" horiz-adv-x="509" 
 />
    <glyph glyph-name="uni200A" unicode="&#x200a;" horiz-adv-x="141" 
 />
    <glyph glyph-name="uni2010" unicode="&#x2010;" 
d="M332 614v516h516v-516h-516zM848 98v516h516v-516h-516z" />
    <glyph glyph-name="uni2011" unicode="&#x2011;" 
d="M332 614v516h516v-516h-516zM848 98v516h516v-516h-516z" />
    <glyph glyph-name="figuredash" unicode="&#x2012;" 
d="M332 614v516h516v-516h-516zM848 98v516h516v-516h-516z" />
    <glyph glyph-name="endash" unicode="&#x2013;" horiz-adv-x="1161" 
d="M104 449v155q0 49 11.5 60.5t58.5 11.5h811q47 0 58.5 -11.5t11.5 -60.5v-155q0 -49 -11.5 -60.5t-58.5 -11.5h-811q-47 0 -58.5 11t-11.5 61z" />
    <glyph glyph-name="emdash" unicode="&#x2014;" horiz-adv-x="1562" 
d="M0 449v155q0 49 11.5 60.5t58.5 11.5h1423q47 0 58.5 -11.5t11.5 -60.5v-155q0 -49 -11.5 -60.5t-58.5 -11.5h-1423q-47 0 -58.5 11t-11.5 61z" />
    <glyph glyph-name="quoteleft" unicode="&#x2018;" horiz-adv-x="501" 
d="M96 827v308q0 115 61.5 180t172.5 65h6q47 0 58.5 -11t11.5 -60v-6q0 -68 -44 -72q-88 -8 -88 -117v-49h62q47 0 58.5 -11.5t11.5 -60.5v-166q0 -49 -11.5 -60t-58.5 -11h-168q-49 0 -60.5 11t-11.5 60z" />
    <glyph glyph-name="quoteright" unicode="&#x2019;" horiz-adv-x="501" 
d="M96 813v6q0 68 43 72q90 8 90 117v49h-61q-49 0 -60.5 11t-11.5 60v166q0 49 11.5 60.5t60.5 11.5h168q49 0 60.5 -11.5t11.5 -60.5v-307q0 -115 -61.5 -180.5t-172.5 -65.5h-6q-49 0 -60.5 11.5t-11.5 60.5z" />
    <glyph glyph-name="quotesinglbase" unicode="&#x201a;" horiz-adv-x="501" 
d="M96 72v166q0 49 11.5 60t60.5 11h168q49 0 60.5 -11t11.5 -60v-308q0 -115 -61.5 -180t-172.5 -65h-6q-49 0 -60.5 11t-11.5 60v6q0 68 43 72q90 8 90 117v49h-61q-49 0 -60.5 11.5t-11.5 60.5z" />
    <glyph glyph-name="quotedblleft" unicode="&#x201c;" horiz-adv-x="952" 
d="M96 827v308q0 115 61.5 180t172.5 65h6q47 0 58.5 -11t11.5 -60v-6q0 -68 -44 -72q-88 -8 -88 -117v-49h62q47 0 58.5 -11.5t11.5 -60.5v-166q0 -49 -11.5 -60t-58.5 -11h-168q-49 0 -60.5 11t-11.5 60zM547 827v308q0 115 61.5 180t171.5 65h6q47 0 58.5 -11t11.5 -60
v-6q0 -68 -43 -72q-88 -8 -88 -117v-49h61q47 0 58.5 -11.5t11.5 -60.5v-166q0 -49 -11 -60t-59 -11h-168q-49 0 -60 11t-11 60z" />
    <glyph glyph-name="quotedblright" unicode="&#x201d;" horiz-adv-x="952" 
d="M96 813v6q0 68 43 72q90 8 90 117v49h-61q-49 0 -60.5 11t-11.5 60v166q0 49 11.5 60.5t60.5 11.5h168q49 0 60.5 -11.5t11.5 -60.5v-307q0 -115 -61.5 -180.5t-172.5 -65.5h-6q-49 0 -60.5 11.5t-11.5 60.5zM547 813v6q0 68 43 72q88 8 88 117v49h-62q-47 0 -58 11
t-11 60v166q0 49 11 60.5t58 11.5h168q49 0 60.5 -11.5t11.5 -60.5v-307q0 -115 -61.5 -180.5t-171.5 -65.5h-7q-47 0 -58 11.5t-11 60.5z" />
    <glyph glyph-name="quotedblbase" unicode="&#x201e;" horiz-adv-x="952" 
d="M96 72v166q0 49 11.5 60t60.5 11h168q49 0 60.5 -11t11.5 -60v-308q0 -115 -61.5 -180t-172.5 -65h-6q-49 0 -60.5 11t-11.5 60v6q0 68 43 72q90 8 90 117v49h-61q-49 0 -60.5 11.5t-11.5 60.5zM547 72v166q0 49 11 60t58 11h168q49 0 60.5 -11t11.5 -60v-308
q0 -115 -61.5 -180t-171.5 -65h-7q-47 0 -58 11t-11 60v6q0 68 43 72q88 8 88 117v49h-62q-47 0 -58 11.5t-11 60.5z" />
    <glyph glyph-name="bullet" unicode="&#x2022;" 
d="M332 614v516h516v-516h-516zM848 98v516h516v-516h-516z" />
    <glyph glyph-name="ellipsis" unicode="&#x2026;" 
d="M332 614v516h516v-516h-516zM848 98v516h516v-516h-516z" />
    <glyph glyph-name="uni202F" unicode="&#x202f;" horiz-adv-x="509" 
 />
    <glyph glyph-name="guilsinglleft" unicode="&#x2039;" horiz-adv-x="380" 
d="M61 449v153q0 39 3.5 46t29.5 34l119 115q33 33 51 32q41 2 41 -71v-115q0 -39 -3 -45t-34 -33l-57 -51l57 -47q31 -25 34 -32t3 -48v-96q0 -74 -41 -72q-18 0 -51 33l-119 119q-29 29 -31 34t-2 44z" />
    <glyph glyph-name="guilsinglright" unicode="&#x203a;" horiz-adv-x="380" 
d="M76 291v96q0 41 3 48t34 32l57 47l-57 51q-31 27 -34 33t-3 45v115q0 74 41 71q18 0 51 -32l119 -115q29 -27 30.5 -33t1.5 -47v-153q0 -39 -2 -44.5t-30 -33.5l-119 -119q-33 -33 -51 -33q-41 -2 -41 72z" />
    <glyph glyph-name="uni205F" unicode="&#x205f;" horiz-adv-x="637" 
 />
    <glyph glyph-name="Euro" unicode="&#x20ac;" 
d="M332 614v516h516v-516h-516zM848 98v516h516v-516h-516z" />
    <glyph glyph-name="trademark" unicode="&#x2122;" 
d="M332 614v516h516v-516h-516zM848 98v516h516v-516h-516z" />
    <glyph glyph-name="uniE000" unicode="&#xe000;" horiz-adv-x="1361" 
d="M0 0v1362h1362v-1362h-1362z" />
  </font>
</defs>
</svg>
